<?xml version="1.0" encoding="utf-8"?>
<!-- Generator: Adobe Illustrator 16.0.0, SVG Export Plug-In . SVG Version: 6.00 Build 0)  -->
<!DOCTYPE svg PUBLIC "-//W3C//DTD SVG 1.1//EN" "http://www.w3.org/Graphics/SVG/1.1/DTD/svg11.dtd">
<svg version="1.1" id="Capa_1" xmlns="http://www.w3.org/2000/svg" xmlns:xlink="http://www.w3.org/1999/xlink" x="0px" y="0px"
	 width="32px" height="32px" viewBox="0 0 32 32" enable-background="new 0 0 32 32" xml:space="preserve">
<g id="icomoon-ignore">
</g>
<path fill="#EF6262" d="M29.229,13.342L17.634,1.747c-0.436-0.436-1.016-0.677-1.633-0.677s-1.197,0.24-1.633,0.677L11.84,4.275
	H8.005v3.834L2.673,13.44v17.492h26.656v-17.49l-0.099-0.099L29.229,13.342z M28.125,13.747l-4.129,4.129V9.619L28.125,13.747
	L28.125,13.747z M15.121,2.5c0.47-0.47,1.289-0.47,1.759,0l1.774,1.774h-5.307L15.121,2.5z M19.719,5.34l3.211,3.212v10.39
	l-2.469,2.47l-2.829-2.829c-0.437-0.436-1.016-0.677-1.633-0.677s-1.197,0.241-1.633,0.677l-2.871,2.87l-2.426-2.427V5.341
	L19.719,5.34L19.719,5.34z M4.38,13.24l3.624-3.624v8.343l-4.172-4.172L4.38,13.24L4.38,13.24z M3.738,16.058v-0.856l7.003,7.003
	l-0.079,0.08l-0.001-0.001l-6.923,6.923V16.058z M4.589,29.864l0.573-0.573h0.002l9.957-9.956c0.47-0.47,1.289-0.47,1.759,0
	l10.531,10.529H4.589z M28.262,15.36v13.848l-7.046-7.043l7.046-7.046V15.36L28.262,15.36z"/>
<path fill="#EF6262" d="M12.268,8.539h7.464v1.066h-7.464V8.539z"/>
<path fill="#EF6262" d="M12.268,14.937h7.464v1.066h-7.464V14.937z"/>
<path fill="#EF6262" d="M12.268,11.738H17.6v1.066h-5.332V11.738z"/>
</svg>
