<?xml version="1.0" encoding="utf-8"?>
<!-- Generator: Adobe Illustrator 16.0.0, SVG Export Plug-In . SVG Version: 6.00 Build 0)  -->
<!DOCTYPE svg PUBLIC "-//W3C//DTD SVG 1.1//EN" "http://www.w3.org/Graphics/SVG/1.1/DTD/svg11.dtd">
<svg version="1.1" id="Capa_1" xmlns="http://www.w3.org/2000/svg" xmlns:xlink="http://www.w3.org/1999/xlink" x="0px" y="0px"
	 width="25px" height="32px" viewBox="0 0 25 32" enable-background="new 0 0 25 32" xml:space="preserve">
<g id="icomoon-ignore">
</g>
<path fill="#7F7F7F" d="M6.294,14.164h12.588v1.049H6.294V14.164z"/>
<path fill="#7F7F7F" d="M6.294,18.359h12.588v1.05H6.294V18.359z"/>
<path fill="#7F7F7F" d="M6.294,22.557h8.392v1.049H6.294V22.557z"/>
<path fill="#7F7F7F" d="M15.688,3.674c-0.25-1.488-1.541-2.623-3.1-2.623c-1.559,0-2.85,1.135-3.1,2.623h-9.489v27.275h25.176V3.674
	H15.688L15.688,3.674z M10.49,6.082V4.198c0-1.157,0.941-2.098,2.098-2.098c1.157,0,2.098,0.941,2.098,2.098v1.884l0.531,0.302
	c1.03,0.586,1.82,1.477,2.273,2.535H7.687C8.14,7.861,8.93,6.97,9.96,6.384L10.49,6.082z M24.128,29.9H1.05V4.723h8.392v0.749
	C7.804,6.404,6.618,8.038,6.295,9.968h12.588c-0.322-1.93-1.509-3.563-3.146-4.496V4.723h8.392V29.9z"/>
</svg>
