<?xml version="1.0" encoding="utf-8"?>
<!DOCTYPE svg PUBLIC "-//W3C//DTD SVG 1.1//EN" "http://www.w3.org/Graphics/SVG/1.1/DTD/svg11.dtd">
<svg version="1.1" id="Layer_1" xmlns="http://www.w3.org/2000/svg" xmlns:xlink="http://www.w3.org/1999/xlink" x="0px" y="0px"
	 width="171px" height="35px" viewBox="0 0 171 35" enable-background="new 0 0 171 35" xml:space="preserve">
	<path fill="#D3CFBC" d="M171,33c0,1.1-0.9,2-2,2H2c-1.1,0-2-0.9-2-2V2c0-1.1,0.9-2,2-2h167c1.1,0,2,0.9,2,2V33z"/>
	<path fill="#1A1A1A" d="M4.134,25.18l1.689-0.465c0.144-0.046,0.257-0.117,0.34-0.216c0.083-0.099,0.125-0.23,0.125-0.396V11.675
		c0-0.159-0.045-0.287-0.136-0.386c-0.091-0.098-0.2-0.166-0.329-0.204l-1.689-0.476V9.884h6.587v0.726l-1.689,0.476
		c-0.136,0.038-0.25,0.106-0.34,0.204c-0.091,0.099-0.136,0.227-0.136,0.386v12.427c0,0.174,0.045,0.31,0.136,0.408
		c0.09,0.098,0.204,0.166,0.34,0.204l1.689,0.465v0.736H4.134V25.18z"/>
	<path fill="#1A1A1A" d="M12.536,25.18l1.633-0.465c0.128-0.038,0.238-0.108,0.329-0.21c0.091-0.103,0.136-0.236,0.136-0.402V11.675
		c0-0.159-0.045-0.287-0.136-0.386c-0.091-0.098-0.2-0.166-0.329-0.204l-1.633-0.476V9.884h7.098c0.529,0,1.094,0.049,1.695,0.147
		s1.198,0.268,1.792,0.51c0.593,0.242,1.164,0.563,1.712,0.964c0.548,0.4,1.03,0.899,1.446,1.497
		c0.416,0.597,0.749,1.306,0.998,2.126c0.249,0.82,0.374,1.767,0.374,2.84c0,1.368-0.212,2.551-0.635,3.548
		c-0.423,0.998-1,1.824-1.729,2.478c-0.729,0.654-1.583,1.138-2.563,1.451c-0.979,0.314-2.024,0.471-3.135,0.471h-7.052V25.18z
		 M19.69,24.737c0.938,0,1.748-0.144,2.432-0.431c0.684-0.288,1.251-0.705,1.701-1.253c0.449-0.549,0.782-1.221,0.998-2.019
		s0.323-1.707,0.323-2.727c0-1.119-0.146-2.126-0.437-3.021c-0.291-0.896-0.705-1.657-1.242-2.285s-1.185-1.109-1.944-1.446
		s-1.601-0.504-2.523-0.504h-2.098v13.686H19.69z"/>
	<path fill="#1A1A1A" d="M39.749,23.161v1.134c-0.265,0.227-0.571,0.453-0.918,0.681c-0.348,0.227-0.729,0.429-1.145,0.606
		c-0.416,0.178-0.856,0.323-1.321,0.437s-0.943,0.17-1.435,0.17c-0.793,0-1.529-0.133-2.205-0.396
		c-0.677-0.265-1.263-0.656-1.758-1.174s-0.882-1.154-1.162-1.911c-0.28-0.756-0.419-1.629-0.419-2.619
		c0-0.861,0.134-1.672,0.402-2.432c0.269-0.76,0.646-1.423,1.134-1.99c0.488-0.567,1.077-1.017,1.769-1.35
		c0.691-0.333,1.457-0.499,2.296-0.499c0.764,0,1.442,0.128,2.036,0.385c0.593,0.257,1.094,0.599,1.502,1.026
		s0.718,0.922,0.93,1.485c0.211,0.563,0.317,1.147,0.317,1.752c0,0.075-0.002,0.161-0.006,0.255
		c-0.004,0.095-0.007,0.193-0.011,0.294c-0.004,0.103-0.013,0.2-0.028,0.295s-0.03,0.18-0.045,0.255h-8.062
		c0.007,1.655,0.361,2.912,1.06,3.771c0.699,0.857,1.71,1.287,3.033,1.287c0.431,0,0.837-0.052,1.219-0.153
		c0.381-0.103,0.733-0.227,1.054-0.374s0.608-0.305,0.862-0.471s0.471-0.321,0.652-0.465H39.749z M37.492,18.535
		c0-0.529-0.045-1.017-0.136-1.463c-0.091-0.446-0.242-0.831-0.454-1.156c-0.212-0.325-0.484-0.579-0.816-0.76
		c-0.333-0.182-0.741-0.272-1.225-0.272c-0.438,0-0.839,0.083-1.202,0.249c-0.363,0.167-0.682,0.407-0.958,0.72
		c-0.276,0.314-0.501,0.697-0.674,1.151c-0.174,0.454-0.288,0.964-0.34,1.531H37.492z"/>
	<path fill="#1A1A1A" d="M41.166,25.202l1.53-0.397c0.144-0.037,0.259-0.104,0.346-0.198c0.086-0.094,0.13-0.221,0.13-0.38V10.825
		c0-0.174-0.049-0.315-0.147-0.425c-0.099-0.109-0.238-0.194-0.419-0.255l-1.497-0.556V8.954l4.207-0.431v15.704
		c0,0.159,0.047,0.288,0.142,0.386c0.094,0.099,0.206,0.163,0.334,0.192l1.451,0.397v0.714h-6.077V25.202z"/>
	<path fill="#1A1A1A" d="M48.445,25.202l1.565-0.397c0.144-0.037,0.261-0.104,0.352-0.198c0.09-0.094,0.136-0.221,0.136-0.38v-7.755
		c0-0.174-0.049-0.316-0.147-0.425s-0.242-0.195-0.431-0.255l-1.44-0.499v-0.635l4.15-0.669v10.238c0,0.159,0.047,0.288,0.142,0.386
		c0.095,0.099,0.206,0.163,0.334,0.192l1.508,0.397v0.714h-6.168V25.202z M51.393,11.573c-0.212,0-0.41-0.036-0.595-0.108
		c-0.186-0.072-0.348-0.168-0.488-0.289c-0.14-0.121-0.251-0.27-0.334-0.448s-0.125-0.376-0.125-0.595s0.042-0.419,0.125-0.601
		c0.083-0.181,0.195-0.334,0.334-0.459c0.14-0.125,0.302-0.221,0.488-0.29c0.185-0.068,0.383-0.102,0.595-0.102
		c0.227,0,0.438,0.032,0.635,0.097s0.365,0.157,0.505,0.278c0.14,0.121,0.249,0.266,0.329,0.437c0.08,0.17,0.119,0.365,0.119,0.584
		c0,0.227-0.04,0.431-0.119,0.612c-0.08,0.181-0.191,0.338-0.334,0.47c-0.144,0.132-0.314,0.234-0.51,0.306
		C51.82,11.538,51.612,11.573,51.393,11.573z"/>
	<path fill="#1A1A1A" d="M56.506,15.757c-0.061-0.151-0.146-0.269-0.255-0.352c-0.11-0.083-0.24-0.151-0.391-0.204l-0.862-0.352
		v-0.703h5.284v0.703l-1.667,0.487l2.687,6.338l0.533,1.61h0.125l3.005-7.71l-1.576-0.726v-0.703h4.331v0.703l-0.896,0.556
		c-0.151,0.076-0.284,0.155-0.397,0.238c-0.113,0.083-0.2,0.193-0.261,0.329l-3.107,7.585l-1.236,2.472h-0.975L56.506,15.757z"/>
	<path fill="#1A1A1A" d="M78.696,23.161v1.134c-0.265,0.227-0.571,0.453-0.918,0.681c-0.348,0.227-0.729,0.429-1.145,0.606
		c-0.416,0.178-0.856,0.323-1.321,0.437s-0.943,0.17-1.435,0.17c-0.793,0-1.529-0.133-2.205-0.396
		c-0.677-0.265-1.263-0.656-1.758-1.174s-0.882-1.154-1.162-1.911c-0.28-0.756-0.419-1.629-0.419-2.619
		c0-0.861,0.134-1.672,0.402-2.432c0.269-0.76,0.646-1.423,1.134-1.99c0.488-0.567,1.077-1.017,1.769-1.35
		c0.691-0.333,1.457-0.499,2.296-0.499c0.764,0,1.442,0.128,2.036,0.385c0.593,0.257,1.094,0.599,1.502,1.026
		s0.718,0.922,0.93,1.485c0.211,0.563,0.317,1.147,0.317,1.752c0,0.075-0.002,0.161-0.006,0.255
		c-0.004,0.095-0.007,0.193-0.011,0.294c-0.004,0.103-0.013,0.2-0.028,0.295s-0.03,0.18-0.045,0.255h-8.062
		c0.007,1.655,0.361,2.912,1.06,3.771c0.699,0.857,1.71,1.287,3.033,1.287c0.431,0,0.837-0.052,1.219-0.153
		c0.381-0.103,0.733-0.227,1.054-0.374s0.608-0.305,0.862-0.471s0.471-0.321,0.652-0.465H78.696z M76.439,18.535
		c0-0.529-0.045-1.017-0.136-1.463c-0.091-0.446-0.242-0.831-0.454-1.156c-0.212-0.325-0.484-0.579-0.816-0.76
		c-0.333-0.182-0.741-0.272-1.225-0.272c-0.438,0-0.839,0.083-1.202,0.249c-0.363,0.167-0.682,0.407-0.958,0.72
		c-0.276,0.314-0.501,0.697-0.674,1.151c-0.174,0.454-0.288,0.964-0.34,1.531H76.439z"/>
	<path fill="#1A1A1A" d="M80.385,25.202l1.349-0.397c0.136-0.037,0.248-0.104,0.334-0.198c0.087-0.094,0.13-0.221,0.13-0.38v-7.732
		c0-0.196-0.055-0.355-0.164-0.476c-0.11-0.121-0.248-0.212-0.414-0.272l-1.281-0.521v-0.635l3.844-0.669v2.585h0.08
		c0.287-0.423,0.568-0.801,0.845-1.134c0.275-0.333,0.561-0.614,0.856-0.845s0.597-0.406,0.907-0.527
		c0.31-0.121,0.643-0.181,0.998-0.181c0.189,0,0.372,0.009,0.55,0.028s0.346,0.049,0.505,0.091c0.159,0.042,0.312,0.098,0.459,0.17
		s0.293,0.157,0.437,0.255v2.767h-1.1l-0.34-0.896c-0.038-0.091-0.102-0.17-0.193-0.238c-0.091-0.068-0.195-0.126-0.312-0.176
		c-0.118-0.049-0.244-0.086-0.38-0.113c-0.136-0.026-0.265-0.04-0.386-0.04c-0.302,0-0.584,0.049-0.845,0.147
		s-0.503,0.229-0.726,0.391c-0.223,0.163-0.433,0.35-0.629,0.561c-0.197,0.212-0.385,0.435-0.567,0.669v6.792
		c0,0.159,0.043,0.288,0.13,0.386c0.087,0.099,0.199,0.163,0.334,0.192l1.656,0.397v0.714h-6.078V25.202z"/>
	<path fill="#1A1A1A" d="M98.096,24.159c-0.294,0.431-0.617,0.776-0.969,1.037s-0.707,0.463-1.066,0.606
		c-0.358,0.144-0.71,0.238-1.054,0.283c-0.345,0.046-0.656,0.068-0.936,0.068c-0.515,0-0.974-0.091-1.378-0.272
		c-0.404-0.181-0.748-0.419-1.032-0.714c-0.283-0.295-0.5-0.639-0.651-1.032c-0.151-0.393-0.227-0.801-0.227-1.225
		c0-0.498,0.086-0.944,0.261-1.338c0.174-0.393,0.408-0.736,0.702-1.031c0.295-0.295,0.636-0.546,1.021-0.754
		c0.386-0.208,0.784-0.378,1.196-0.511c0.412-0.132,0.828-0.229,1.248-0.289c0.419-0.061,0.811-0.091,1.173-0.091
		c0.076,0,0.193,0.008,0.352,0.022c0.159,0.016,0.325,0.03,0.499,0.045s0.338,0.03,0.493,0.045c0.155,0.016,0.274,0.027,0.357,0.034
		v-1.802c0-0.408-0.048-0.749-0.142-1.021c-0.095-0.272-0.229-0.489-0.402-0.652c-0.175-0.162-0.388-0.277-0.641-0.346
		c-0.254-0.068-0.543-0.102-0.868-0.102c-0.378,0-0.754,0.066-1.128,0.199s-0.731,0.293-1.071,0.481
		c-0.34,0.189-0.654,0.386-0.941,0.59s-0.533,0.378-0.737,0.521H91.78L91.6,14.839c0.294-0.121,0.597-0.242,0.906-0.363
		c0.311-0.121,0.643-0.23,0.998-0.329c0.355-0.098,0.733-0.177,1.134-0.238s0.835-0.091,1.304-0.091c0.522,0,1.04,0.059,1.554,0.176
		s0.974,0.319,1.378,0.606c0.404,0.288,0.731,0.677,0.98,1.168c0.25,0.491,0.374,1.111,0.374,1.859l-0.034,6.168
		c0,0.136,0.026,0.257,0.08,0.363c0.053,0.105,0.124,0.196,0.215,0.271c0.091,0.076,0.2,0.135,0.329,0.176
		c0.129,0.042,0.265,0.063,0.408,0.063c0.061,0,0.134-0.01,0.221-0.028s0.182-0.041,0.284-0.068c0.102-0.026,0.202-0.058,0.3-0.096
		c0.099-0.038,0.189-0.076,0.272-0.113h0.159v0.816c-0.114,0.083-0.26,0.18-0.437,0.289c-0.178,0.109-0.373,0.215-0.584,0.317
		c-0.212,0.102-0.428,0.188-0.646,0.261c-0.22,0.071-0.424,0.107-0.612,0.107c-0.333,0-0.624-0.038-0.873-0.113
		c-0.25-0.075-0.458-0.192-0.624-0.352s-0.291-0.364-0.374-0.618c-0.083-0.253-0.125-0.557-0.125-0.912H98.096z M98.085,19.93
		c-0.756,0-1.444,0.039-2.063,0.119c-0.62,0.079-1.147,0.215-1.582,0.408c-0.435,0.192-0.773,0.455-1.015,0.788
		c-0.242,0.332-0.363,0.748-0.363,1.247c0,0.416,0.066,0.762,0.198,1.037c0.133,0.276,0.299,0.497,0.499,0.663
		c0.2,0.167,0.428,0.286,0.681,0.357c0.253,0.072,0.497,0.107,0.731,0.107s0.487-0.024,0.76-0.073
		c0.271-0.049,0.54-0.125,0.805-0.227c0.265-0.103,0.512-0.232,0.743-0.392c0.23-0.158,0.425-0.352,0.584-0.578L98.085,19.93z"/>
	<path fill="#1A1A1A" d="M104.468,10.825c0-0.174-0.051-0.313-0.152-0.419c-0.103-0.106-0.24-0.193-0.414-0.261l-1.304-0.556V8.954
		l4.002-0.431v6.724v0.612c0.317-0.469,0.658-0.839,1.021-1.111c0.363-0.272,0.716-0.476,1.061-0.612
		c0.344-0.136,0.665-0.223,0.964-0.261c0.298-0.038,0.55-0.057,0.754-0.057c0.733,0,1.387,0.144,1.961,0.431
		c0.575,0.288,1.061,0.686,1.457,1.196c0.397,0.51,0.701,1.117,0.913,1.82s0.317,1.467,0.317,2.291c0,0.922-0.129,1.785-0.386,2.591
		c-0.257,0.805-0.635,1.51-1.134,2.114s-1.109,1.081-1.831,1.429s-1.548,0.521-2.478,0.521c-0.393,0-0.793-0.019-1.201-0.057
		s-0.813-0.099-1.214-0.182s-0.798-0.19-1.19-0.323c-0.393-0.132-0.774-0.296-1.146-0.493V10.825z M106.6,24.113
		c0.129,0.136,0.301,0.267,0.516,0.392c0.216,0.124,0.442,0.234,0.681,0.328c0.238,0.095,0.473,0.169,0.703,0.222
		s0.429,0.079,0.596,0.079c0.635,0,1.185-0.13,1.649-0.391c0.465-0.262,0.849-0.612,1.15-1.055c0.303-0.442,0.527-0.953,0.675-1.531
		s0.222-1.188,0.222-1.831c0-0.71-0.068-1.368-0.204-1.973c-0.137-0.604-0.35-1.13-0.641-1.576
		c-0.291-0.446-0.664-0.796-1.117-1.049c-0.453-0.253-0.994-0.38-1.621-0.38c-0.189,0-0.399,0.021-0.63,0.062
		c-0.23,0.042-0.463,0.112-0.697,0.21s-0.463,0.229-0.686,0.391c-0.224,0.163-0.422,0.365-0.596,0.606V24.113z"/>
	<path fill="#1A1A1A" d="M116.396,25.202l1.53-0.397c0.144-0.037,0.259-0.104,0.346-0.198c0.087-0.094,0.131-0.221,0.131-0.38
		V10.825c0-0.174-0.05-0.315-0.147-0.425c-0.099-0.109-0.238-0.194-0.42-0.255l-1.497-0.556V8.954l4.207-0.431v15.704
		c0,0.159,0.047,0.288,0.142,0.386c0.095,0.099,0.206,0.163,0.335,0.192l1.451,0.397v0.714h-6.077V25.202z"/>
	<path fill="#1A1A1A" d="M134.175,23.161v1.134c-0.265,0.227-0.571,0.453-0.919,0.681c-0.348,0.227-0.729,0.429-1.145,0.606
		c-0.416,0.178-0.856,0.323-1.321,0.437s-0.943,0.17-1.435,0.17c-0.793,0-1.528-0.133-2.205-0.396
		c-0.677-0.265-1.263-0.656-1.758-1.174s-0.882-1.154-1.162-1.911c-0.279-0.756-0.419-1.629-0.419-2.619
		c0-0.861,0.134-1.672,0.402-2.432s0.646-1.423,1.134-1.99s1.077-1.017,1.769-1.35c0.691-0.333,1.457-0.499,2.296-0.499
		c0.764,0,1.442,0.128,2.036,0.385c0.593,0.257,1.094,0.599,1.502,1.026s0.718,0.922,0.93,1.485s0.317,1.147,0.317,1.752
		c0,0.075-0.002,0.161-0.006,0.255c-0.004,0.095-0.007,0.193-0.011,0.294c-0.004,0.103-0.014,0.2-0.028,0.295
		c-0.016,0.095-0.03,0.18-0.046,0.255h-8.062c0.008,1.655,0.361,2.912,1.061,3.771c0.699,0.857,1.71,1.287,3.032,1.287
		c0.432,0,0.838-0.052,1.22-0.153c0.381-0.103,0.732-0.227,1.054-0.374s0.608-0.305,0.862-0.471
		c0.253-0.166,0.471-0.321,0.651-0.465H134.175z M131.918,18.535c0-0.529-0.045-1.017-0.136-1.463
		c-0.091-0.446-0.242-0.831-0.453-1.156c-0.212-0.325-0.484-0.579-0.816-0.76c-0.333-0.182-0.741-0.272-1.225-0.272
		c-0.438,0-0.84,0.083-1.202,0.249c-0.363,0.167-0.683,0.407-0.958,0.72c-0.276,0.314-0.501,0.697-0.675,1.151
		s-0.287,0.964-0.34,1.531H131.918z"/>
	<path fill="#D35320" d="M143.755,21.993c0-0.667-0.093-1.225-0.277-1.672c-0.185-0.446-0.445-0.809-0.781-1.086
		s-0.745-0.487-1.229-0.628s-1.019-0.235-1.606-0.282v-1.34c0.597-0.057,1.136-0.153,1.619-0.29
		c0.483-0.136,0.893-0.343,1.229-0.621s0.594-0.637,0.774-1.08c0.181-0.442,0.271-1.002,0.271-1.679v-3.302
		c0-0.988,0.136-1.832,0.409-2.533c0.272-0.701,0.661-1.272,1.165-1.714c0.504-0.442,1.111-0.764,1.82-0.967
		c0.71-0.202,1.502-0.303,2.375-0.303v1.256c-0.386,0.028-0.787,0.083-1.203,0.162c-0.416,0.08-0.794,0.231-1.134,0.452
		c-0.34,0.221-0.619,0.536-0.838,0.945s-0.327,0.958-0.327,1.644v3.02c0,0.988-0.101,1.801-0.303,2.441
		c-0.201,0.64-0.483,1.162-0.844,1.566c-0.361,0.405-0.79,0.715-1.285,0.931c-0.496,0.217-1.042,0.391-1.638,0.522v0.438
		c0.596,0.132,1.142,0.306,1.638,0.522c0.495,0.217,0.924,0.525,1.285,0.924c0.36,0.4,0.643,0.923,0.844,1.566
		c0.202,0.645,0.303,1.461,0.303,2.448v3.006c0,0.687,0.108,1.234,0.327,1.644s0.498,0.727,0.838,0.952s0.718,0.379,1.134,0.459
		s0.817,0.134,1.203,0.162v1.27c-0.873,0-1.665-0.099-2.375-0.296c-0.709-0.197-1.316-0.518-1.82-0.959
		c-0.504-0.442-0.893-1.015-1.165-1.715c-0.273-0.701-0.409-1.56-0.409-2.575V21.993z"/>
	<path fill="#D35320" d="M156.387,29.557c0.395-0.028,0.798-0.082,1.21-0.162c0.411-0.08,0.789-0.233,1.134-0.459
		c0.344-0.226,0.625-0.543,0.844-0.952s0.327-0.957,0.327-1.644v-3.006c0-0.987,0.102-1.804,0.303-2.448
		c0.201-0.644,0.48-1.166,0.838-1.566c0.356-0.399,0.785-0.707,1.285-0.924c0.499-0.216,1.048-0.39,1.644-0.522v-0.438
		c-0.596-0.131-1.145-0.305-1.644-0.522c-0.5-0.216-0.929-0.526-1.285-0.931c-0.357-0.404-0.637-0.926-0.838-1.566
		c-0.201-0.64-0.303-1.453-0.303-2.441v-3.02c0-0.687-0.108-1.235-0.327-1.644s-0.5-0.724-0.844-0.945
		c-0.345-0.221-0.723-0.372-1.134-0.452c-0.412-0.08-0.815-0.134-1.21-0.162V4.497c0.882,0,1.678,0.101,2.388,0.303
		c0.709,0.203,1.316,0.525,1.82,0.967c0.504,0.442,0.893,1.014,1.165,1.714c0.273,0.701,0.41,1.545,0.41,2.533v3.302
		c0,0.677,0.09,1.237,0.271,1.679c0.181,0.442,0.438,0.802,0.774,1.08s0.743,0.484,1.223,0.621c0.479,0.137,1.021,0.233,1.625,0.29
		v1.34c-0.597,0.047-1.134,0.141-1.612,0.282c-0.479,0.141-0.889,0.351-1.229,0.628c-0.341,0.277-0.601,0.64-0.781,1.086
		c-0.181,0.447-0.271,1.005-0.271,1.672v3.288c0,1.016-0.137,1.874-0.41,2.575c-0.272,0.7-0.661,1.272-1.165,1.715
		c-0.504,0.441-1.111,0.762-1.82,0.959c-0.71,0.197-1.506,0.296-2.388,0.296V29.557z"/>
</svg>
