<?xml version="1.0" encoding="utf-8"?>
<!-- Generator: Adobe Illustrator 21.0.2, SVG Export Plug-In . SVG Version: 6.00 Build 0)  -->
<svg version="1.1" id="Layer_1" xmlns="http://www.w3.org/2000/svg" xmlns:xlink="http://www.w3.org/1999/xlink" x="0px" y="0px"
	 width="2400px" height="800px" viewBox="0 0 2400 800" enable-background="new 0 0 2400 800" xml:space="preserve">
<path fill="#FFFFFF" d="M11.644,365.852c54.007,0,76.1,4.91,93.284-41.732c36.823-103.104,125.197-193.933,250.395-193.933l0,0
	c125.197,0,216.027,88.375,252.849,193.933c17.184,46.642,41.732,41.732,95.739,41.732c7.365,0-4.91,0,0,0l-4.91-166.93
	L355.323,7.444L9.189,208.742L11.644,365.852C11.644,365.852,14.099,365.852,11.644,365.852
	C14.099,365.852-0.63,365.852,11.644,365.852z"/>
<path fill="#FFFFFF" d="M11.644,459.136v137.472l348.589,196.388l341.224-203.752V461.591c-4.91,2.455,2.455-2.455-4.91-2.455
	h-34.368c-31.913,2.455-46.642,9.819-56.462,31.913c-36.823,103.104-127.652,184.114-252.849,184.114l0,0
	c-125.197,0-216.027-78.555-252.849-184.114c-9.819-27.003-24.548-29.458-56.462-31.913H11.644"/>
<path fill="#FFFFFF" d="M308.681,525.417V299.571L480.52,412.494L308.681,525.417z M482.975,277.477
	c-71.191-71.191-181.659-71.191-250.395,0c-71.191,71.191-71.191,184.114,0,252.849c71.191,71.191,181.659,71.191,250.395,0
	C551.711,461.591,551.711,348.668,482.975,277.477z"/>
<g>
	<path fill="#FFFFFF" d="M930.115,309.661h-19.87V195.762c0-8.99,0.55-19.948,1.655-32.881h-0.472
		c-1.893,7.649-3.589,13.129-5.086,16.44l-57.837,130.34h-9.699l-57.955-129.394c-1.579-3.469-3.274-9.264-5.086-17.386h-0.473
		c0.63,6.782,0.947,17.821,0.947,33.117v113.663h-19.162V140.053h26.258l52.041,118.276c3.942,8.99,6.505,15.771,7.688,20.343h0.829
		c3.942-10.88,6.661-17.819,8.161-20.816l53.106-117.803h24.956V309.661z"/>
	<path fill="#FFFFFF" d="M994.692,145.139c0,3.628-1.262,6.644-3.784,9.048c-2.524,2.406-5.521,3.608-8.99,3.608
		c-3.548,0-6.546-1.163-8.988-3.488c-2.445-2.326-3.667-5.382-3.667-9.167c0-3.389,1.201-6.327,3.608-8.811
		c2.404-2.485,5.42-3.726,9.048-3.726c3.626,0,6.663,1.222,9.108,3.666C993.47,138.714,994.692,141.671,994.692,145.139z
		 M991.381,309.661h-19.398V188.546h19.398V309.661z"/>
	<path fill="#FFFFFF" d="M1112.259,304.101c-9.385,5.677-20.461,8.516-33.235,8.516c-11.041,0-20.956-2.543-29.746-7.629
		c-8.793-5.085-15.634-12.28-20.521-21.584c-4.89-9.304-7.333-19.753-7.333-31.344c0-20.028,5.736-36.112,17.209-48.256
		c11.473-12.142,26.748-18.215,45.832-18.215c10.566,0,19.91,2.051,28.032,6.151v19.87c-9.069-6.307-18.688-9.462-28.859-9.462
		c-12.538,0-22.73,4.476-30.575,13.425c-7.847,8.95-11.769,20.521-11.769,34.713c0,14.115,3.726,25.273,11.177,33.472
		c7.452,8.202,17.446,12.3,29.984,12.3c10.565,0,20.5-3.469,29.805-10.408V304.101z"/>
	<path fill="#FFFFFF" d="M1204.75,208.18c-3.47-2.601-8.397-3.902-14.784-3.902c-8.596,0-15.574,4.041-20.936,12.123
		c-5.362,8.084-8.042,18.59-8.042,31.52v61.74h-19.398V188.546h19.398v24.957h0.472c2.68-8.357,6.82-14.963,12.42-19.811
		c5.598-4.85,12.023-7.274,19.278-7.274c5.045,0,8.91,0.552,11.591,1.656V208.18z"/>
	<path fill="#FFFFFF" d="M1332.724,248.63c0,19.24-5.46,34.714-16.381,46.423c-10.921,11.709-25.567,17.564-43.939,17.564
		c-17.901,0-32.191-5.696-42.875-17.091c-10.685-11.393-16.026-26.394-16.026-45.003c0-20.028,5.48-35.856,16.44-47.488
		c10.96-11.629,26.06-17.446,45.3-17.446c17.978,0,32.052,5.619,42.224,16.855C1327.639,213.68,1332.724,229.076,1332.724,248.63z
		 M1312.854,249.341c0-15.217-3.37-26.888-10.113-35.01c-6.742-8.12-16.381-12.182-28.919-12.182
		c-12.459,0-22.315,4.159-29.569,12.478c-7.255,8.32-10.882,20.047-10.882,35.186c0,14.509,3.646,25.844,10.941,34.005
		c7.292,8.161,17.129,12.241,29.509,12.241c12.616,0,22.275-4.02,28.979-12.063C1309.502,275.953,1312.854,264.402,1312.854,249.341
		z"/>
	<path fill="#FFFFFF" d="M1428.882,277.254c0,10.488-4.041,19.004-12.123,25.547c-8.084,6.546-18.826,9.817-32.23,9.817
		c-11.434,0-21.449-2.445-30.042-7.333v-20.816c9.54,7.729,20.028,11.591,31.461,11.591c15.376,0,23.064-5.636,23.064-16.913
		c0-4.572-1.498-8.297-4.495-11.177c-2.998-2.877-9.817-6.759-20.461-11.649c-10.725-4.573-18.295-9.481-22.708-14.725
		c-4.418-5.244-6.624-12.201-6.624-20.876c0-10.013,4.021-18.372,12.064-25.074c8.043-6.701,18.254-10.054,30.633-10.054
		c9.54,0,18.174,1.893,25.903,5.677v19.516c-7.886-5.754-17.032-8.634-27.441-8.634c-6.387,0-11.531,1.578-15.435,4.731
		c-3.903,3.154-5.855,7.215-5.855,12.182c0,5.363,1.497,9.483,4.495,12.36c2.996,2.88,9.186,6.289,18.569,10.231
		c11.511,4.89,19.594,10.014,24.246,15.376C1426.557,262.392,1428.882,269.132,1428.882,277.254z"/>
	<path fill="#FFFFFF" d="M1567.264,248.63c0,19.24-5.46,34.714-16.381,46.423s-25.567,17.564-43.939,17.564
		c-17.901,0-32.191-5.696-42.875-17.091c-10.685-11.393-16.026-26.394-16.026-45.003c0-20.028,5.48-35.856,16.44-47.488
		c10.96-11.629,26.06-17.446,45.3-17.446c17.978,0,32.052,5.619,42.224,16.855S1567.264,229.076,1567.264,248.63z M1547.394,249.341
		c0-15.217-3.37-26.888-10.113-35.01c-6.742-8.12-16.381-12.182-28.919-12.182c-12.459,0-22.315,4.159-29.569,12.478
		c-7.255,8.32-10.882,20.047-10.882,35.186c0,14.509,3.646,25.844,10.941,34.005c7.292,8.161,17.129,12.241,29.509,12.241
		c12.616,0,22.275-4.02,28.979-12.063C1544.042,275.953,1547.394,264.402,1547.394,249.341z"/>
	<path fill="#FFFFFF" d="M1652.778,147.387c-3.785-2.129-8.084-3.193-12.893-3.193c-13.562,0-20.343,8.556-20.343,25.665v18.687
		h28.386v16.441h-28.386v104.674h-19.398V204.987h-20.579v-16.441h20.579v-19.634c0-12.3,3.626-22.235,10.882-29.805
		c7.254-7.57,16.479-11.355,27.677-11.355c5.913,0,10.604,0.709,14.076,2.129V147.387z"/>
	<path fill="#FFFFFF" d="M1729.302,308.478c-4.652,2.601-10.724,3.903-18.214,3.903c-21.133,0-31.698-11.905-31.698-35.719v-71.675
		h-20.816v-16.441h20.816v-29.569l19.396-6.269v35.837h30.515v16.441h-30.515v68.363c0,8.122,1.379,13.898,4.141,17.328
		c2.759,3.43,7.372,5.144,13.838,5.144c4.808,0,8.988-1.301,12.536-3.903V308.478z"/>
	<path fill="#FFFFFF" d="M1945.511,309.661h-21.999l-17.86-47.428h-72.03l-16.913,47.428h-21.999l64.815-169.608h20.579
		L1945.511,309.661z M1899.028,244.255l-26.612-72.148c-0.632-1.733-1.537-5.559-2.721-11.473h-0.472
		c-0.711,4.968-1.579,8.793-2.603,11.473l-26.375,72.148H1899.028z"/>
	<path fill="#FFFFFF" d="M2052.431,194.106l-71.793,99.116h70.966v16.44h-99.47v-6.031l71.675-98.642h-64.934v-16.441h93.556
		V194.106z"/>
	<path fill="#FFFFFF" d="M2175.2,309.661h-19.396V290.5h-0.473c-8.043,14.745-20.462,22.117-37.257,22.117
		c-28.938,0-43.407-17.227-43.407-51.686v-72.386h19.398v69.31c0,25.47,9.776,38.203,29.333,38.203
		c9.618,0,17.425-3.488,23.418-10.467c5.992-6.978,8.99-16.066,8.99-27.263v-69.783h19.396V309.661z"/>
	<path fill="#FFFFFF" d="M2277.627,208.18c-3.47-2.601-8.397-3.902-14.784-3.902c-8.596,0-15.574,4.041-20.936,12.123
		c-5.362,8.084-8.042,18.59-8.042,31.52v61.74h-19.398V188.546h19.398v24.957h0.472c2.679-8.357,6.82-14.963,12.419-19.811
		c5.598-4.85,12.023-7.274,19.279-7.274c5.045,0,8.91,0.552,11.591,1.656V208.18z"/>
	<path fill="#FFFFFF" d="M2392,253.954h-85.513c0.314,13.642,3.921,24.069,10.822,31.283c6.899,7.215,16.458,10.822,28.682,10.822
		c13.72,0,26.217-4.414,37.494-13.246v18.096c-10.567,7.806-24.602,11.709-42.106,11.709c-17.268,0-30.751-5.577-40.45-16.735
		c-9.699-11.157-14.548-26.592-14.548-46.305c0-11.985,2.425-22.925,7.274-32.821c4.849-9.895,11.532-17.564,20.047-23.005
		c8.516-5.44,17.978-8.161,28.386-8.161c15.691,0,27.933,5.106,36.724,15.317c8.792,10.213,13.189,24.504,13.189,42.875V253.954z
		 M2372.129,237.513c-0.158-11.196-2.859-19.888-8.101-26.079c-5.245-6.189-12.637-9.285-22.177-9.285
		c-8.99,0-16.677,3.234-23.064,9.699c-6.387,6.466-10.408,15.021-12.064,25.665H2372.129z"/>
	<path fill="#FFFFFF" d="M930.115,626.007h-19.87V512.108c0-8.99,0.55-19.948,1.655-32.881h-0.472
		c-1.893,7.649-3.589,13.129-5.086,16.44l-57.837,130.34h-9.699l-57.955-129.393c-1.579-3.469-3.274-9.264-5.086-17.386h-0.473
		c0.63,6.782,0.947,17.821,0.947,33.117v113.663h-19.162V456.4h26.258l52.041,118.276c3.942,8.99,6.505,15.771,7.688,20.343h0.829
		c3.942-10.88,6.661-17.819,8.161-20.816L905.159,456.4h24.956V626.007z"/>
	<path fill="#FFFFFF" d="M1068.378,570.3h-85.513c0.314,13.642,3.921,24.069,10.822,31.283c6.899,7.216,16.458,10.822,28.682,10.822
		c13.72,0,26.217-4.414,37.494-13.246v18.096c-10.567,7.806-24.602,11.709-42.106,11.709c-17.268,0-30.751-5.577-40.45-16.735
		c-9.699-11.157-14.548-26.592-14.548-46.305c0-11.985,2.425-22.925,7.274-32.821c4.849-9.895,11.533-17.564,20.047-23.005
		c8.516-5.44,17.978-8.161,28.386-8.161c15.691,0,27.932,5.106,36.724,15.317c8.792,10.213,13.189,24.504,13.189,42.875V570.3z
		 M1048.507,553.859c-0.158-11.196-2.859-19.888-8.101-26.079c-5.245-6.189-12.637-9.285-22.177-9.285
		c-8.99,0-16.677,3.234-23.064,9.699c-6.387,6.466-10.408,15.021-12.064,25.665H1048.507z"/>
	<path fill="#FFFFFF" d="M1199.191,626.007h-19.396v-20.58h-0.473c-8.99,15.692-22.868,23.537-41.633,23.537
		c-15.298,0-27.48-5.5-36.547-16.499c-9.069-11-13.602-25.684-13.602-44.058c0-20.028,5.026-36.112,15.081-48.256
		c10.053-12.142,23.516-18.215,40.391-18.215c16.559,0,28.662,6.546,36.311,19.634h0.473v-74.868h19.396V626.007z M1179.794,571.246
		v-17.86c0-10.012-3.332-18.332-9.995-24.956c-6.664-6.623-14.766-9.935-24.306-9.935c-11.671,0-20.934,4.317-27.795,12.951
		c-6.86,8.634-10.29,20.6-10.29,35.896c0,13.879,3.233,24.859,9.699,32.94c6.465,8.084,15.179,12.123,26.139,12.123
		c10.646,0,19.398-3.862,26.258-11.591C1176.364,593.088,1179.794,583.233,1179.794,571.246z"/>
	<path fill="#FFFFFF" d="M1261.168,461.486c0,3.628-1.262,6.644-3.784,9.048c-2.524,2.406-5.521,3.608-8.99,3.608
		c-3.548,0-6.546-1.163-8.988-3.488c-2.445-2.326-3.667-5.382-3.667-9.167c0-3.389,1.201-6.327,3.608-8.811
		c2.404-2.485,5.42-3.726,9.048-3.726c3.626,0,6.663,1.222,9.108,3.666C1259.945,455.061,1261.168,458.017,1261.168,461.486z
		 M1257.857,626.007h-19.398V504.893h19.398V626.007z"/>
	<path fill="#FFFFFF" d="M1382.873,626.007h-19.396v-18.924h-0.473c-8.438,14.589-20.858,21.881-37.256,21.881
		c-11.671,0-21.015-3.173-28.032-9.521c-7.019-6.346-10.526-14.882-10.526-25.607c0-22.549,13.324-35.718,39.977-39.504
		l36.311-5.086c0-20.501-8.32-30.751-24.956-30.751c-14.589,0-27.756,4.928-39.505,14.785v-19.871
		c3.548-2.68,9.619-5.262,18.215-7.747c8.593-2.483,16.242-3.726,22.944-3.726c28.464,0,42.698,15.101,42.698,45.3V626.007z
		 M1363.476,564.741l-29.333,4.139c-10.015,1.42-17.031,3.805-21.052,7.156c-4.021,3.352-6.033,8.773-6.033,16.263
		c0,6.073,2.168,10.94,6.505,14.606c4.336,3.667,9.895,5.5,16.677,5.5c9.619,0,17.564-3.389,23.833-10.171
		c6.269-6.781,9.403-15.258,9.403-25.429V564.741z"/>
	<path fill="#FFFFFF" d="M1565.017,583.192c0,14.272-5.046,25.47-15.139,33.59c-10.094,8.122-23.814,12.182-41.16,12.182
		c-6.31,0-13.425-1.046-21.349-3.134c-7.923-2.088-13.543-4.276-16.853-6.564v-23.536c4.808,4.337,11.136,7.965,18.983,10.88
		c7.845,2.918,15.158,4.377,21.941,4.377c21.762,0,32.643-8.475,32.643-25.429c0-7.096-2.327-13.187-6.978-18.273
		c-4.654-5.086-14.194-11.769-28.623-20.047c-13.956-7.884-23.734-15.376-29.331-22.472c-5.6-7.096-8.398-15.73-8.398-25.903
		c0-13.403,5.006-24.306,15.021-32.703c10.013-8.398,22.946-12.596,38.794-12.596c15.217,0,26.335,2.01,33.354,6.031v22.235
		c-8.832-6.937-20.305-10.408-34.419-10.408c-9.383,0-17.051,2.348-23.004,7.038c-5.954,4.692-8.93,10.901-8.93,18.629
		c0,5.599,0.887,10.094,2.661,13.483c1.774,3.392,4.771,6.742,8.99,10.054c4.218,3.311,11.334,7.767,21.348,13.365
		c14.981,8.358,25.469,16.243,31.462,23.655C1562.02,565.056,1565.017,573.572,1565.017,583.192z"/>
	<path fill="#FFFFFF" d="M1692.637,570.3h-85.513c0.314,13.642,3.921,24.069,10.822,31.283c6.899,7.216,16.458,10.822,28.682,10.822
		c13.72,0,26.217-4.414,37.494-13.246v18.096c-10.567,7.806-24.602,11.709-42.106,11.709c-17.268,0-30.751-5.577-40.45-16.735
		c-9.699-11.157-14.548-26.592-14.548-46.305c0-11.985,2.425-22.925,7.274-32.821c4.849-9.895,11.533-17.564,20.047-23.005
		c8.516-5.44,17.978-8.161,28.386-8.161c15.691,0,27.932,5.106,36.724,15.317c8.792,10.213,13.189,24.504,13.189,42.875V570.3z
		 M1672.766,553.859c-0.158-11.196-2.859-19.888-8.101-26.079c-5.245-6.189-12.637-9.285-22.177-9.285
		c-8.99,0-16.677,3.234-23.064,9.699c-6.387,6.466-10.408,15.021-12.064,25.665H1672.766z"/>
	<path fill="#FFFFFF" d="M1784.182,524.526c-3.47-2.601-8.397-3.902-14.784-3.902c-8.596,0-15.574,4.041-20.936,12.123
		c-5.362,8.084-8.042,18.59-8.042,31.52v61.74h-19.398V504.893h19.398v24.957h0.472c2.68-8.357,6.82-14.963,12.42-19.811
		c5.598-4.85,12.023-7.274,19.278-7.274c5.045,0,8.91,0.552,11.591,1.656V524.526z"/>
	<path fill="#FFFFFF" d="M1910.263,504.893l-48.257,121.115h-19.16l-45.772-121.115h21.408l30.751,87.879
		c1.656,4.654,2.996,10.331,4.021,17.032h0.591c0.709-5.834,1.97-11.314,3.785-16.44l32.289-88.471H1910.263z"/>
	<path fill="#FFFFFF" d="M1953.788,461.486c0,3.628-1.262,6.644-3.784,9.048c-2.524,2.406-5.521,3.608-8.99,3.608
		c-3.548,0-6.546-1.163-8.988-3.488c-2.445-2.326-3.667-5.382-3.667-9.167c0-3.389,1.201-6.327,3.608-8.811
		c2.404-2.485,5.42-3.726,9.048-3.726c3.626,0,6.663,1.222,9.108,3.666C1952.566,455.061,1953.788,458.017,1953.788,461.486z
		 M1950.478,626.007h-19.398V504.893h19.398V626.007z"/>
	<path fill="#FFFFFF" d="M2071.355,620.448c-9.385,5.677-20.461,8.516-33.235,8.516c-11.041,0-20.956-2.543-29.746-7.629
		c-8.793-5.085-15.634-12.28-20.521-21.584c-4.89-9.304-7.333-19.753-7.333-31.344c0-20.028,5.736-36.112,17.209-48.256
		c11.473-12.142,26.748-18.215,45.832-18.215c10.566,0,19.91,2.051,28.032,6.151v19.87c-9.069-6.307-18.688-9.462-28.859-9.462
		c-12.538,0-22.73,4.476-30.575,13.425c-7.847,8.95-11.769,20.521-11.769,34.713c0,14.115,3.726,25.273,11.177,33.472
		c7.452,8.202,17.446,12.3,29.984,12.3c10.565,0,20.5-3.469,29.805-10.408V620.448z"/>
	<path fill="#FFFFFF" d="M2197.082,570.3h-85.513c0.314,13.642,3.921,24.069,10.822,31.283c6.899,7.216,16.458,10.822,28.682,10.822
		c13.72,0,26.217-4.414,37.493-13.246v18.096c-10.567,7.806-24.602,11.709-42.106,11.709c-17.268,0-30.751-5.577-40.45-16.735
		c-9.699-11.157-14.548-26.592-14.548-46.305c0-11.985,2.425-22.925,7.274-32.821c4.849-9.895,11.533-17.564,20.048-23.005
		c8.516-5.44,17.978-8.161,28.386-8.161c15.691,0,27.933,5.106,36.725,15.317c8.792,10.213,13.188,24.504,13.188,42.875V570.3z
		 M2177.211,553.859c-0.158-11.196-2.858-19.888-8.101-26.079c-5.245-6.189-12.637-9.285-22.177-9.285
		c-8.99,0-16.677,3.234-23.064,9.699c-6.387,6.466-10.408,15.021-12.064,25.665H2177.211z"/>
	<path fill="#FFFFFF" d="M2291.583,593.6c0,10.488-4.041,19.004-12.123,25.547c-8.084,6.546-18.826,9.817-32.23,9.817
		c-11.435,0-21.449-2.445-30.042-7.333v-20.816c9.54,7.729,20.028,11.591,31.461,11.591c15.376,0,23.064-5.636,23.064-16.913
		c0-4.572-1.498-8.297-4.495-11.177c-2.998-2.877-9.817-6.759-20.461-11.649c-10.725-4.573-18.295-9.481-22.708-14.725
		c-4.418-5.244-6.624-12.201-6.624-20.876c0-10.013,4.021-18.372,12.064-25.074c8.043-6.701,18.253-10.054,30.633-10.054
		c9.54,0,18.174,1.893,25.903,5.677v19.516c-7.886-5.754-17.032-8.634-27.441-8.634c-6.387,0-11.531,1.578-15.435,4.731
		c-3.904,3.154-5.855,7.215-5.855,12.182c0,5.363,1.497,9.483,4.495,12.36c2.996,2.88,9.186,6.289,18.569,10.231
		c11.511,4.89,19.594,10.014,24.246,15.376C2289.257,578.738,2291.583,585.479,2291.583,593.6z"/>
</g>
</svg>
