<?xml version="1.0" encoding="utf-8"?>
<!-- Generator: Adobe Illustrator 18.1.0, SVG Export Plug-In . SVG Version: 6.00 Build 0)  -->
<!DOCTYPE svg PUBLIC "-//W3C//DTD SVG 1.1//EN" "http://www.w3.org/Graphics/SVG/1.1/DTD/svg11.dtd">
<svg version="1.1" xmlns="http://www.w3.org/2000/svg" xmlns:xlink="http://www.w3.org/1999/xlink" x="0px" y="0px" width="16px"
	 height="16px" viewBox="0 0 16 16" enable-background="new 0 0 16 16" xml:space="preserve">
<g id="icons">
	<rect x="-400" y="-606" display="none" fill="#3C454F" width="1200" height="934"/>
	<g id="settings">
	</g>
	<g id="audio-only_1_">
		<g>
			<path fill="#FFFFFF" d="M7.067,15c-2.316,0-4.2-1.884-4.2-4.2c0-0.258,0.209-0.467,0.467-0.467S3.8,10.542,3.8,10.8
				c0,1.801,1.465,3.267,3.267,3.267s3.267-1.466,3.267-3.267c0-0.233-0.032-0.48-0.098-0.757c-0.044-0.185,0.028-0.379,0.184-0.489
				c1.114-0.79,1.78-2.066,1.781-3.415c0.001-1.119-0.435-2.174-1.228-2.97c-0.793-0.795-1.847-1.234-2.967-1.235
				c-0.002,0-0.003,0-0.005,0c-2.038,0-3.773,1.462-4.125,3.477C3.83,5.665,3.589,5.845,3.334,5.79
				C3.081,5.746,2.911,5.504,2.955,5.25C3.386,2.786,5.507,1,8,1c0.002,0,0.004,0,0.006,0c1.369,0.002,2.657,0.538,3.627,1.509
				c0.969,0.972,1.503,2.26,1.501,3.63c-0.002,1.547-0.717,3.016-1.928,3.989c0.041,0.234,0.061,0.456,0.061,0.672
				C11.267,13.116,9.382,15,7.067,15z"/>
			<path fill="#FFFFFF" d="M5.2,11.267c-0.258,0-0.467-0.209-0.467-0.467c0-0.613,0.248-1.082,0.455-1.367L5.75,8.665L5.243,7.861
				c-0.334-0.53-0.51-1.129-0.51-1.731C4.735,4.33,6.201,2.867,8,2.867c0.873,0.001,1.693,0.343,2.311,0.961
				c0.617,0.619,0.957,1.439,0.956,2.311c0,0.257-0.209,0.466-0.467,0.466h0c-0.258,0-0.466-0.21-0.466-0.468
				c0.001-0.621-0.242-1.207-0.683-1.649C9.209,4.044,8.623,3.801,8,3.8c-1.285,0-2.332,1.045-2.333,2.332
				c0,0.425,0.126,0.85,0.366,1.231l0.676,1.073C6.81,8.598,6.803,8.806,6.69,8.96L5.943,9.983
				c-0.126,0.172-0.276,0.455-0.276,0.817C5.667,11.058,5.458,11.267,5.2,11.267z"/>
		</g>
		<rect fill="none" width="16" height="16"/>
	</g>
</g>
<g id="quality_click">
	<g id="check_copy_17_2_">
	</g>
</g>
</svg>
