<?xml version="1.0" encoding="utf-8"?>
<!-- Generator: Adobe Illustrator 18.0.0, SVG Export Plug-In . SVG Version: 6.00 Build 0)  -->
<!DOCTYPE svg PUBLIC "-//W3C//DTD SVG 1.1//EN" "http://www.w3.org/Graphics/SVG/1.1/DTD/svg11.dtd">
<svg version="1.1" id="icons" xmlns="http://www.w3.org/2000/svg" xmlns:xlink="http://www.w3.org/1999/xlink" x="0px" y="0px"
	 width="16px" height="16px" viewBox="0 0 16 16" enable-background="new 0 0 16 16" xml:space="preserve">
<rect x="-100" y="-632" fill="#3C454F" width="1200" height="934"/>
<g id="settings">
</g>
<g id="fast_forward_2x_2_">
	<rect x="0" fill="none" width="16" height="16"/>
	<g>
		<g>
			<polygon fill="#FFFFFF" points="8,5 4,8 4,2 			"/>
		</g>
		<g>
			<polygon fill="#FFFFFF" points="4,5 0,8 0,2 			"/>
		</g>
	</g>
	<g>
		<path fill="#FFFFFF" d="M11,15.6H7.5v-0.4c0-0.2,0-0.3,0.1-0.5c0-0.2,0.1-0.3,0.2-0.4C7.8,14.1,7.9,14,8,13.8
			c0.1-0.1,0.2-0.2,0.4-0.4c0.1-0.1,0.3-0.2,0.4-0.3s0.3-0.2,0.4-0.3c0.1-0.1,0.2-0.2,0.3-0.3c0.1-0.1,0.2-0.2,0.3-0.3
			c0.1-0.1,0.1-0.2,0.2-0.3c0-0.1,0.1-0.2,0.1-0.4c0-0.1,0-0.3-0.1-0.4c0-0.1-0.1-0.2-0.2-0.3s-0.2-0.1-0.3-0.2
			c-0.1,0-0.2-0.1-0.4-0.1c-0.2,0-0.5,0.1-0.7,0.2c-0.2,0.1-0.5,0.3-0.7,0.5v-0.9c0.1-0.1,0.2-0.2,0.3-0.2c0.1-0.1,0.2-0.1,0.4-0.2
			s0.3-0.1,0.4-0.1c0.1,0,0.3,0,0.4,0c0.3,0,0.5,0,0.7,0.1c0.2,0.1,0.4,0.2,0.5,0.3c0.1,0.1,0.3,0.3,0.3,0.5
			c0.1,0.2,0.1,0.4,0.1,0.7c0,0.2,0,0.4-0.1,0.6c-0.1,0.2-0.1,0.3-0.2,0.5c-0.1,0.2-0.2,0.3-0.4,0.4c-0.1,0.1-0.3,0.3-0.5,0.4
			c-0.2,0.1-0.3,0.2-0.5,0.4C9.1,13.9,9,14,8.8,14.1c-0.1,0.1-0.2,0.2-0.3,0.3c-0.1,0.1-0.1,0.2-0.1,0.3v0H11V15.6z"/>
		<path fill="#FFFFFF" d="M16.1,11.6l-1.3,2l1.3,2H15l-0.7-1.2c0-0.1-0.1-0.2-0.2-0.3h0c0,0-0.1,0.1-0.2,0.3l-0.7,1.2h-1l1.4-2
			l-1.3-2h1.1l0.7,1.3c0.1,0.1,0.1,0.2,0.2,0.3h0l0.9-1.6H16.1z"/>
	</g>
</g>
</svg>
