<?xml version="1.0" encoding="utf-8"?>
<!-- Generator: Adobe Illustrator 18.0.0, SVG Export Plug-In . SVG Version: 6.00 Build 0)  -->
<!DOCTYPE svg PUBLIC "-//W3C//DTD SVG 1.1//EN" "http://www.w3.org/Graphics/SVG/1.1/DTD/svg11.dtd">
<svg version="1.1" id="icons" xmlns="http://www.w3.org/2000/svg" xmlns:xlink="http://www.w3.org/1999/xlink" x="0px" y="0px"
	 width="16px" height="16px" viewBox="0 0 16 16" enable-background="new 0 0 16 16" xml:space="preserve">
<rect x="-100" y="-688" fill="#3C454F" width="1200" height="934"/>
<g id="settings">
</g>
<g id="fast_forward_2x_3_">
	<rect x="0" fill="none" width="16" height="16"/>
	<g>
		<g>
			<polygon fill="#FFFFFF" points="8,5 4,8 4,2 			"/>
		</g>
		<g>
			<polygon fill="#FFFFFF" points="4,5 0,8 0,2 			"/>
		</g>
	</g>
	<g>
		<path fill="#FFFFFF" d="M7.1,14c0-0.2,0-0.3,0.1-0.5c0-0.2,0.1-0.3,0.2-0.4c0.1-0.1,0.2-0.2,0.3-0.3c0.1-0.1,0.3-0.2,0.4-0.2
			c-0.2-0.1-0.4-0.3-0.6-0.5c-0.1-0.2-0.2-0.4-0.2-0.7c0-0.2,0-0.4,0.1-0.6c0.1-0.2,0.2-0.3,0.4-0.5c0.1-0.1,0.3-0.2,0.5-0.3
			C8.5,9.9,8.7,9.9,9,9.9c0.2,0,0.5,0,0.7,0.1c0.2,0.1,0.4,0.2,0.5,0.3c0.1,0.1,0.3,0.3,0.3,0.5c0.1,0.2,0.1,0.4,0.1,0.6
			c0,0.3-0.1,0.5-0.2,0.7c-0.1,0.2-0.3,0.4-0.6,0.5c0.2,0.1,0.3,0.1,0.4,0.2c0.1,0.1,0.2,0.2,0.3,0.3c0.1,0.1,0.1,0.3,0.2,0.4
			c0,0.2,0.1,0.3,0.1,0.5c0,0.2,0,0.5-0.1,0.7c-0.1,0.2-0.2,0.4-0.4,0.5s-0.4,0.3-0.6,0.3c-0.2,0.1-0.5,0.1-0.8,0.1
			c-0.3,0-0.5,0-0.8-0.1c-0.2-0.1-0.4-0.2-0.6-0.3c-0.2-0.1-0.3-0.3-0.4-0.5C7.2,14.5,7.1,14.3,7.1,14z M8,13.9c0,0.2,0,0.3,0.1,0.4
			c0,0.1,0.1,0.2,0.2,0.3c0.1,0.1,0.2,0.2,0.3,0.2S8.8,15,9,15c0.1,0,0.3,0,0.4-0.1c0.1,0,0.2-0.1,0.3-0.2c0.1-0.1,0.2-0.2,0.2-0.3
			c0-0.1,0.1-0.3,0.1-0.4c0-0.1,0-0.3-0.1-0.4c0-0.1-0.1-0.2-0.2-0.3S9.5,13,9.4,13S9.1,12.9,9,12.9c-0.1,0-0.3,0-0.4,0.1
			s-0.2,0.1-0.3,0.2c-0.1,0.1-0.2,0.2-0.2,0.3C8,13.7,8,13.8,8,13.9z M8.2,11.4c0,0.1,0,0.2,0.1,0.3c0,0.1,0.1,0.2,0.2,0.3
			s0.2,0.1,0.2,0.2c0.1,0,0.2,0.1,0.3,0.1s0.2,0,0.3-0.1c0.1,0,0.2-0.1,0.2-0.2c0.1-0.1,0.1-0.2,0.2-0.3c0-0.1,0.1-0.2,0.1-0.3
			c0-0.1,0-0.2-0.1-0.3c0-0.1-0.1-0.2-0.2-0.3c-0.1-0.1-0.2-0.1-0.2-0.2c-0.1,0-0.2-0.1-0.3-0.1c-0.1,0-0.2,0-0.3,0.1
			c-0.1,0-0.2,0.1-0.2,0.2c-0.1,0.1-0.1,0.2-0.2,0.3C8.2,11.2,8.2,11.3,8.2,11.4z"/>
		<path fill="#FFFFFF" d="M16.1,11.6l-1.3,2l1.3,2H15l-0.7-1.2c0-0.1-0.1-0.2-0.2-0.3h0c0,0-0.1,0.1-0.2,0.3l-0.7,1.2h-1l1.4-2
			l-1.3-2h1.1l0.7,1.3c0.1,0.1,0.1,0.2,0.2,0.3h0l0.9-1.6H16.1z"/>
	</g>
</g>
</svg>
