<?xml version="1.0" encoding="utf-8"?>
<!-- Generator: Adobe Illustrator 18.0.0, SVG Export Plug-In . SVG Version: 6.00 Build 0)  -->
<!DOCTYPE svg PUBLIC "-//W3C//DTD SVG 1.1//EN" "http://www.w3.org/Graphics/SVG/1.1/DTD/svg11.dtd">
<svg version="1.1" id="icons" xmlns="http://www.w3.org/2000/svg" xmlns:xlink="http://www.w3.org/1999/xlink" x="0px" y="0px"
	 width="16px" height="16px" viewBox="0 0 16 16" enable-background="new 0 0 16 16" xml:space="preserve">
<rect x="-100" y="-380" fill="#3C454F" width="1200" height="934"/>
<g id="settings">
</g>
<g id="closed_captioning_2_">
	<path fill="#FFFFFF" d="M15,7c-0.1-1-0.2-2-0.5-2.9c-0.2-0.5-0.5-0.8-1-1c-0.8-0.3-1.6-0.4-2.4-0.5C10,2.5,9,2.5,8,2.5
		c-1,0-2,0-3.1,0.1C4.1,2.7,3.3,2.8,2.5,3.1c-0.5,0.2-0.8,0.5-1,1C1.2,5,1.1,6,1,7c0,0.3,0,1.7,0,2c0.1,1,0.2,2,0.5,2.9
		c0.2,0.5,0.5,0.8,1,1c0.8,0.3,1.6,0.4,2.4,0.5c1,0.1,2,0.1,3.1,0.1c1,0,2,0,3.1-0.1c0.8-0.1,1.7-0.2,2.4-0.5c0.5-0.2,0.8-0.5,1-1
		C14.8,11,14.9,10,15,9C15,8.7,15,7.3,15,7z M4.3,9.5C4.5,9.7,4.7,9.9,5,9.9c0.5,0,0.8-0.4,0.9-1.1l1.9,0.1
		c-0.1,0.8-0.4,1.4-0.9,1.9c-0.5,0.4-1.1,0.6-1.9,0.6c-0.9,0-1.6-0.3-2.2-0.9C2.3,9.9,2,9.1,2,8.1c0-1,0.3-1.9,0.8-2.5
		c0.5-0.6,1.3-1,2.2-1c0.9,0,1.5,0.2,2,0.7c0.5,0.5,0.7,1.1,0.8,1.9L5.9,7.3c0-0.4-0.1-0.8-0.3-1C5.5,6.2,5.3,6.1,5,6.1
		c-0.6,0-1,0.6-1,1.9C4.1,8.7,4.2,9.2,4.3,9.5z M10.6,9.5c0.2,0.3,0.4,0.4,0.7,0.4c0.5,0,0.8-0.4,0.9-1.1L14,8.9
		c-0.1,0.8-0.4,1.4-0.9,1.9c-0.5,0.4-1.1,0.6-1.9,0.6c-0.9,0-1.6-0.3-2.2-0.9C8.5,9.9,8.2,9.1,8.2,8.1c0-1,0.3-1.9,0.8-2.5
		c0.5-0.6,1.3-1,2.2-1c0.9,0,1.5,0.2,2,0.7c0.5,0.5,0.7,1.1,0.8,1.9l-1.9,0.1c0-0.4-0.1-0.8-0.3-1c-0.2-0.2-0.4-0.3-0.6-0.3
		c-0.6,0-1,0.6-1,1.9C10.3,8.7,10.4,9.2,10.6,9.5z"/>
	<rect fill="none" width="16" height="16"/>
</g>
<g id="live_edge_5_">
	<g>
		<defs>
			<rect id="SVGID_3_" x="630" y="12" width="36" height="4"/>
		</defs>
		<clipPath id="SVGID_2_">
			<use xlink:href="#SVGID_3_"  overflow="visible"/>
		</clipPath>
		<g clip-path="url(#SVGID_2_)">
			
				<rect x="9" y="10.6" transform="matrix(0.7071 -0.7071 0.7071 0.7071 -0.8701 21.8995)" opacity="0.5" fill="#DAF0FA" width="33.9" height="2.8"/>
		</g>
		<g clip-path="url(#SVGID_2_)">
			
				<rect x="1" y="10.6" transform="matrix(0.7071 -0.7071 0.7071 0.7071 -3.2132 16.2426)" opacity="0.5" fill="#DAF0FA" width="33.9" height="2.8"/>
		</g>
		<g clip-path="url(#SVGID_2_)">
			
				<rect x="-7" y="10.6" transform="matrix(0.7071 -0.7071 0.7071 0.7071 -5.5563 10.5858)" opacity="0.5" fill="#DAF0FA" width="33.9" height="2.8"/>
		</g>
		<g clip-path="url(#SVGID_2_)">
			
				<rect x="-15" y="10.6" transform="matrix(0.7071 -0.7071 0.7071 0.7071 -7.8995 4.9289)" opacity="0.5" fill="#DAF0FA" width="33.9" height="2.8"/>
		</g>
		<g clip-path="url(#SVGID_2_)">
			
				<rect x="-23" y="10.6" transform="matrix(0.7071 -0.7071 0.7071 0.7071 -10.2426 -0.7279)" opacity="0.5" fill="#DAF0FA" width="33.9" height="2.8"/>
		</g>
	</g>
</g>
</svg>
