<?xml version="1.0" encoding="utf-8"?>
<!-- Generator: Adobe Illustrator 18.0.0, SVG Export Plug-In . SVG Version: 6.00 Build 0)  -->
<!DOCTYPE svg PUBLIC "-//W3C//DTD SVG 1.1//EN" "http://www.w3.org/Graphics/SVG/1.1/DTD/svg11.dtd">
<svg version="1.1" id="icons" xmlns="http://www.w3.org/2000/svg" xmlns:xlink="http://www.w3.org/1999/xlink" x="0px" y="0px"
	 width="96px" height="95px" viewBox="0 0 96 95" enable-background="new 0 0 96 95" xml:space="preserve">
<rect x="-700" y="-220" fill="#3C454F" width="1200" height="934"/>
<g id="settings">
</g>
<g id="error">
	<path fill="#71B1D1" d="M95.9,41.2c-0.5-6.8-1.4-13.5-3.4-20.1c-1-3.4-3.4-5.5-6.8-6.7c-5.4-1.8-11.1-2.6-16.8-3.2
		c-7-0.7-13.9-1-20.9-0.9c-7-0.1-14,0.2-20.9,0.9c-5.7,0.6-11.3,1.4-16.8,3.2c-3.4,1.2-5.7,3.2-6.8,6.7c-2,6.6-2.9,13.3-3.4,20.1
		C0,43.4,0,52.6,0.1,54.8c0.5,6.8,1.4,13.5,3.4,20.1c1,3.4,3.4,5.5,6.8,6.7c5.4,1.9,11.1,2.6,16.8,3.2c7,0.7,13.9,1,20.9,0.9
		c7,0.1,14-0.2,20.9-0.9c5.7-0.6,11.3-1.4,16.8-3.2c3.4-1.2,5.7-3.2,6.8-6.7c2-6.6,2.9-13.3,3.4-20.1C96,52.6,96,43.4,95.9,41.2z"/>
	<polygon fill="#3C454F" points="48.5,59.6 50,49.6 43.9,39.4 50.3,29.5 39.3,19.5 48.5,9.3 57.5,9.7 46.7,19.5 55.7,29.5 
		47.1,39.6 51,49.4 	"/>
	<rect x="0" fill="none" width="96" height="96"/>
</g>
</svg>
