<?xml version="1.0" encoding="utf-8"?>
<!-- Generator: Adobe Illustrator 18.0.0, SVG Export Plug-In . SVG Version: 6.00 Build 0)  -->
<!DOCTYPE svg PUBLIC "-//W3C//DTD SVG 1.1//EN" "http://www.w3.org/Graphics/SVG/1.1/DTD/svg11.dtd">
<svg version="1.1" id="icons" xmlns="http://www.w3.org/2000/svg" xmlns:xlink="http://www.w3.org/1999/xlink" x="0px" y="0px"
	 width="16px" height="16px" viewBox="0 0 16 16" enable-background="new 0 0 16 16" xml:space="preserve">
<rect x="-100" y="-716" fill="#3C454F" width="1200" height="934"/>
<g id="settings">
</g>
<g id="fast_forward_2x_4_">
	<rect x="0" fill="none" width="16" height="16"/>
	<g>
		<g>
			<polygon fill="#FFFFFF" points="8,5 4,8 4,2 			"/>
		</g>
		<g>
			<polygon fill="#FFFFFF" points="4,5 0,8 0,2 			"/>
		</g>
	</g>
	<g>
		<path fill="#FFFFFF" d="M5.9,9.9v5.7H5V11c-0.2,0.1-0.3,0.2-0.5,0.3c-0.2,0.1-0.4,0.2-0.6,0.2v-0.8c0.2,0,0.3-0.1,0.4-0.2
			s0.3-0.1,0.4-0.2c0.1-0.1,0.3-0.1,0.4-0.2c0.1-0.1,0.3-0.2,0.4-0.3H5.9z"/>
		<path fill="#FFFFFF" d="M11.2,13.8c0,0.3,0,0.5-0.1,0.8c-0.1,0.2-0.2,0.4-0.4,0.6s-0.4,0.3-0.6,0.4c-0.2,0.1-0.5,0.1-0.7,0.1
			c-0.3,0-0.5-0.1-0.8-0.2C8.4,15.4,8.2,15.2,8,15c-0.2-0.2-0.3-0.5-0.4-0.8c-0.1-0.3-0.1-0.7-0.1-1.1c0-0.5,0.1-1,0.2-1.4
			c0.1-0.4,0.3-0.7,0.5-1c0.2-0.3,0.5-0.5,0.8-0.6C9.2,10,9.5,9.9,9.8,9.9c0.2,0,0.4,0,0.6,0c0.2,0,0.3,0.1,0.4,0.1v0.8
			c-0.1-0.1-0.3-0.1-0.4-0.2c-0.2,0-0.3-0.1-0.5-0.1c-0.2,0-0.4,0-0.6,0.1c-0.2,0.1-0.3,0.2-0.5,0.4c-0.1,0.2-0.2,0.4-0.3,0.6
			c-0.1,0.3-0.1,0.5-0.1,0.9h0c0.1-0.2,0.3-0.3,0.5-0.4c0.2-0.1,0.4-0.2,0.7-0.2c0.2,0,0.5,0,0.7,0.1c0.2,0.1,0.4,0.2,0.5,0.3
			c0.1,0.1,0.2,0.3,0.3,0.5C11.2,13.3,11.2,13.5,11.2,13.8z M10.3,13.9c0-0.2,0-0.3-0.1-0.4c0-0.1-0.1-0.2-0.2-0.3
			C10,13,9.9,12.9,9.8,12.9c-0.1-0.1-0.3-0.1-0.4-0.1s-0.3,0-0.4,0.1c-0.1,0.1-0.2,0.1-0.3,0.2c-0.1,0.1-0.1,0.2-0.2,0.3
			c0,0.1-0.1,0.2-0.1,0.4c0,0.1,0,0.3,0.1,0.4c0,0.1,0.1,0.3,0.2,0.4c0.1,0.1,0.2,0.2,0.3,0.3s0.3,0.1,0.4,0.1c0.1,0,0.3,0,0.4-0.1
			c0.1-0.1,0.2-0.1,0.3-0.2c0.1-0.1,0.1-0.2,0.2-0.3C10.3,14.2,10.3,14,10.3,13.9z"/>
		<path fill="#FFFFFF" d="M16.1,11.6l-1.3,2l1.3,2H15l-0.7-1.2c0-0.1-0.1-0.2-0.2-0.3h0c0,0-0.1,0.1-0.2,0.3l-0.7,1.2h-1l1.4-2
			l-1.3-2h1.1l0.7,1.3c0.1,0.1,0.1,0.2,0.2,0.3h0l0.9-1.6H16.1z"/>
	</g>
</g>
</svg>
