<?xml version="1.0" encoding="utf-8"?>
<!-- Generator: Adobe Illustrator 18.1.0, SVG Export Plug-In . SVG Version: 6.00 Build 0)  -->
<!DOCTYPE svg PUBLIC "-//W3C//DTD SVG 1.1//EN" "http://www.w3.org/Graphics/SVG/1.1/DTD/svg11.dtd">
<svg version="1.1" xmlns="http://www.w3.org/2000/svg" xmlns:xlink="http://www.w3.org/1999/xlink" x="0px" y="0px" width="8px"
	 height="8px" viewBox="0 0 8 8" enable-background="new 0 0 8 8" xml:space="preserve">
<g id="icons">
	<rect x="-400" y="-750" display="none" fill="#3C454F" width="1200" height="934"/>
	<g id="settings">
	</g>
</g>
<g id="quality_click">
	<g id="check_copy_17_2_">
		<g>
			<path fill="#FFFFFF" d="M0.316,4.426L0.05,4.139C-0.018,4.063-0.018,3.942,0.061,3.87l0.767-0.709
				c0.036-0.033,0.08-0.05,0.127-0.05c0.054,0,0.102,0.022,0.138,0.061l2.109,2.261l3.629-4.648
				c0.036-0.047,0.091-0.072,0.149-0.072c0.044,0,0.083,0.014,0.116,0.04l0.829,0.64c0.04,0.029,0.065,0.072,0.072,0.124
				c0.003,0.05-0.008,0.102-0.04,0.138L3.297,7.623L0.316,4.426z"/>
			<rect x="0" y="0" fill="none" width="8" height="8"/>
		</g>
	</g>
</g>
</svg>
