<?xml version="1.0" encoding="utf-8"?>
<!-- Generator: Adobe Illustrator 18.1.0, SVG Export Plug-In . SVG Version: 6.00 Build 0)  -->
<!DOCTYPE svg PUBLIC "-//W3C//DTD SVG 1.1//EN" "http://www.w3.org/Graphics/SVG/1.1/DTD/svg11.dtd">
<svg version="1.1" xmlns="http://www.w3.org/2000/svg" xmlns:xlink="http://www.w3.org/1999/xlink" x="0px" y="0px" width="96px"
	 height="95px" viewBox="0 0 96 95" enable-background="new 0 0 96 95" xml:space="preserve">
<g id="icons">
	<rect x="-700" y="-220" display="none" fill="#3C454F" width="1200" height="934"/>
	<g id="settings">
	</g>
	<g id="error">
		<path fill="#71B1D1" d="M95.864,41.158c-0.536-6.766-1.426-13.51-3.402-20.067c-1.031-3.416-3.361-5.499-6.77-6.66
			c-5.444-1.85-11.089-2.615-16.774-3.228c-4.055-0.437-8.12-0.676-12.186-0.802L46.707,19.5l8.953,9.953l-8.575,10.1l3.945,9.889
			l-2.545,10.179l1.484-10.063l-6.055-10.111l6.425-9.9L39.293,19.5l8.299-9.204c-6.842-0.045-13.689,0.171-20.511,0.906
			c-5.685,0.614-11.33,1.379-16.774,3.228c-3.408,1.161-5.739,3.244-6.77,6.66c-1.975,6.557-2.866,13.3-3.402,20.067
			c-0.181,2.28-0.181,11.404,0,13.684c0.536,6.766,1.426,13.51,3.402,20.066c1.031,3.416,3.361,5.5,6.77,6.66
			c5.444,1.851,11.089,2.616,16.774,3.229c6.957,0.75,13.941,0.963,20.919,0.907c6.977,0.056,13.962-0.157,20.919-0.907
			c5.685-0.614,11.33-1.379,16.774-3.229c3.408-1.16,5.739-3.244,6.77-6.66c1.975-6.556,2.866-13.3,3.402-20.066
			C96.045,52.562,96.045,43.438,95.864,41.158z"/>
		<rect x="0" fill="none" width="96" height="96"/>
	</g>
</g>
<g id="quality_click">
	<g id="check_copy_17_2_">
	</g>
</g>
</svg>
