<?xml version="1.0" encoding="utf-8"?>
<!-- Generator: Adobe Illustrator 18.1.0, SVG Export Plug-In . SVG Version: 6.00 Build 0)  -->
<!DOCTYPE svg PUBLIC "-//W3C//DTD SVG 1.1//EN" "http://www.w3.org/Graphics/SVG/1.1/DTD/svg11.dtd">
<svg version="1.1" xmlns="http://www.w3.org/2000/svg" xmlns:xlink="http://www.w3.org/1999/xlink" x="0px" y="0px" width="16px"
	 height="16px" viewBox="0 0 16 16" enable-background="new 0 0 16 16" xml:space="preserve">
<g id="icons">
	<rect x="-400" y="-718" display="none" fill="#3C454F" width="1200" height="934"/>
	<g id="settings">
	</g>
	<g id="pip_2_">
		<rect x="0" fill="none" width="16" height="16"/>
		<path fill="#FFFFFF" d="M13,2H4C2.9,2,2,2.9,2,4v2.184C2.314,6.072,2.648,6,3,6V4c0-0.551,0.448-1,1-1h9c0.552,0,1,0.449,1,1v6
			c0,0.551-0.448,1-1,1h-3c0,0.352-0.072,0.686-0.184,1H13c1.1,0,2-0.9,2-2V4C15,2.9,14.1,2,13,2z"/>
		<path fill="#FFFFFF" d="M7.003,7L7.003,7C7.002,7,7.001,7,7,7H3C2.999,7,2.998,7,2.997,7h0C1.899,7.002,1,7.901,1,9v0.239V11
			c0,1.1,0.9,2,2,2h4c1.1,0,2-0.9,2-2V9.239V9C9,7.901,8.101,7.002,7.003,7z"/>
		<polygon fill="#FFFFFF" points="9,4 8,5 11.293,5 6.646,8.646 7.354,9.354 12,5.707 12,9 13,8 13,4 		"/>
	</g>
</g>
<g id="quality_click">
	<g id="check_copy_17_2_">
	</g>
</g>
</svg>
