<?xml version="1.0" encoding="utf-8"?>
<!-- Generator: Adobe Illustrator 18.1.0, SVG Export Plug-In . SVG Version: 6.00 Build 0)  -->
<!DOCTYPE svg PUBLIC "-//W3C//DTD SVG 1.1//EN" "http://www.w3.org/Graphics/SVG/1.1/DTD/svg11.dtd">
<svg version="1.1" xmlns="http://www.w3.org/2000/svg" xmlns:xlink="http://www.w3.org/1999/xlink" x="0px" y="0px" width="16px"
	 height="16px" viewBox="0 0 16 16" enable-background="new 0 0 16 16" xml:space="preserve">
<g id="icons">
	<rect x="-100" y="-492" display="none" fill="#3C454F" width="1200" height="934"/>
	<g id="settings">
	</g>
	<g id="go_live_4_">
		<rect fill="none" width="16" height="16"/>
		<path fill="#FFFFFF" d="M11,3H5C3.9,3,3,3.9,3,5v6c0,1.1,0.9,2,2,2h6c1.1,0,2-0.9,2-2V5C13,3.9,12.1,3,11,3z M12,11
			c0,0.551-0.448,1-1,1H5c-0.552,0-1-0.449-1-1V5c0-0.551,0.448-1,1-1h6c0.552,0,1,0.449,1,1V11z"/>
	</g>
</g>
<g id="quality_click">
	<g id="check_copy_17_2_">
	</g>
</g>
</svg>
