<?xml version="1.0" encoding="utf-8"?>
<!-- Generator: Adobe Illustrator 18.0.0, SVG Export Plug-In . SVG Version: 6.00 Build 0)  -->
<!DOCTYPE svg PUBLIC "-//W3C//DTD SVG 1.1//EN" "http://www.w3.org/Graphics/SVG/1.1/DTD/svg11.dtd">
<svg version="1.1" id="icons" xmlns="http://www.w3.org/2000/svg" xmlns:xlink="http://www.w3.org/1999/xlink" x="0px" y="0px"
	 width="16px" height="16px" viewBox="0 0 16 16" enable-background="new 0 0 16 16" xml:space="preserve">
<rect x="-400" y="-690" fill="#3C454F" width="1200" height="934"/>
<g id="settings">
</g>
<g id="pip_1_">
	<rect fill="none" width="16" height="16"/>
	<path fill="#FFFFFF" d="M9,3C6.8,3,5,4.8,5,7c0,2.2,1.8,4,4,4s4-1.8,4-4C13,4.8,11.2,3,9,3z M9,10c-1.7,0-3-1.3-3-3s1.3-3,3-3
		s3,1.3,3,3S10.7,10,9,10z"/>
	<rect x="4" y="8.8" transform="matrix(0.7071 0.7071 -0.7071 0.7071 9.4497 0.1863)" fill="#FFFFFF" width="1" height="5.4"/>
</g>
</svg>
