<?xml version="1.0" encoding="utf-8"?>
<!-- Generator: Adobe Illustrator 18.1.0, SVG Export Plug-In . SVG Version: 6.00 Build 0)  -->
<!DOCTYPE svg PUBLIC "-//W3C//DTD SVG 1.1//EN" "http://www.w3.org/Graphics/SVG/1.1/DTD/svg11.dtd">
<svg version="1.1" xmlns="http://www.w3.org/2000/svg" xmlns:xlink="http://www.w3.org/1999/xlink" x="0px" y="0px" width="16px"
	 height="16px" viewBox="0 0 16 16" enable-background="new 0 0 16 16" xml:space="preserve">
<g id="icons">
	<rect x="-400" y="-410" display="none" fill="#3C454F" width="1200" height="934"/>
	<g id="settings">
	</g>
	<g id="playback_speed_2_">
		<g>
			<path fill="#FFFFFF" d="M5.401,1.002L5.401,1.002c0,0.549,0.45,2,1,2h3c0.55,0,1-1.451,1-2.001v0.001H5.401z"/>
			<polygon fill="#FFFFFF" points="12.523,5.726 11.211,4.216 12.287,3.268 13.599,4.777 			"/>
			<rect x="7.401" y="5" fill="#FFFFFF" width="1" height="4"/>
			<path fill="#FFFFFF" d="M7.901,3c-3.038,0-5.5,2.462-5.5,5.5c0,3.038,2.462,5.5,5.5,5.5c3.038,0,5.5-2.462,5.5-5.5
				C13.401,5.462,10.938,3,7.901,3z M7.901,13c-2.481,0-4.5-2.019-4.5-4.5S5.42,4,7.901,4s4.5,2.019,4.5,4.5S10.382,13,7.901,13z"/>
		</g>
		<rect x="0" fill="none" width="16" height="16"/>
	</g>
</g>
<g id="quality_click">
	<g id="check_copy_17_2_">
	</g>
</g>
</svg>
