<?xml version="1.0" encoding="utf-8"?>
<!-- Generator: Adobe Illustrator 18.1.0, SVG Export Plug-In . SVG Version: 6.00 Build 0)  -->
<!DOCTYPE svg PUBLIC "-//W3C//DTD SVG 1.1//EN" "http://www.w3.org/Graphics/SVG/1.1/DTD/svg11.dtd">
<svg version="1.1" xmlns="http://www.w3.org/2000/svg" xmlns:xlink="http://www.w3.org/1999/xlink" x="0px" y="0px" width="16px"
	 height="16px" viewBox="0 0 16 16" enable-background="new 0 0 16 16" xml:space="preserve">
<g id="icons">
	<rect x="-400" y="-184" display="none" fill="#3C454F" width="1200" height="934"/>
	<g id="settings">
	</g>
	<g id="fast_forward_2x_12_">
		<rect x="0" fill="none" width="16" height="16"/>
		<g>
			<g>
				<polygon fill="#FFFFFF" points="0,5 4,8 4,2 				"/>
			</g>
			<g>
				<polygon fill="#FFFFFF" points="4,5 8,8 8,2 				"/>
			</g>
		</g>
		<g>
			<path fill="#FFFFFF" d="M7.106,14.023c0-0.162,0.02-0.318,0.061-0.469c0.04-0.151,0.101-0.291,0.182-0.418
				c0.081-0.128,0.182-0.242,0.305-0.344c0.122-0.102,0.266-0.184,0.43-0.246c-0.242-0.136-0.435-0.31-0.578-0.521
				C7.361,11.813,7.29,11.578,7.29,11.32c0-0.206,0.042-0.396,0.127-0.57c0.084-0.175,0.202-0.326,0.352-0.453
				c0.15-0.128,0.326-0.228,0.529-0.299c0.203-0.072,0.424-0.107,0.664-0.107c0.242,0,0.465,0.036,0.67,0.109
				c0.204,0.072,0.381,0.173,0.531,0.301c0.15,0.127,0.266,0.278,0.35,0.453c0.083,0.174,0.125,0.363,0.125,0.566
				c0,0.258-0.072,0.492-0.215,0.705c-0.143,0.212-0.333,0.386-0.57,0.521c0.161,0.063,0.304,0.144,0.428,0.244
				c0.124,0.1,0.227,0.214,0.311,0.342c0.083,0.127,0.146,0.267,0.188,0.418c0.042,0.15,0.063,0.309,0.063,0.473
				c0,0.244-0.046,0.469-0.137,0.672c-0.091,0.203-0.219,0.377-0.383,0.521s-0.361,0.257-0.59,0.338
				c-0.229,0.08-0.482,0.121-0.758,0.121c-0.273,0-0.524-0.041-0.752-0.121c-0.228-0.081-0.425-0.193-0.59-0.338
				c-0.166-0.145-0.294-0.318-0.387-0.521C7.152,14.492,7.106,14.268,7.106,14.023z M7.989,13.945c0,0.158,0.023,0.302,0.07,0.43
				c0.047,0.127,0.113,0.235,0.199,0.324c0.086,0.088,0.189,0.156,0.311,0.203s0.256,0.07,0.404,0.07
				c0.143,0,0.275-0.024,0.395-0.072c0.12-0.049,0.223-0.117,0.311-0.207c0.087-0.09,0.156-0.198,0.205-0.324
				c0.049-0.127,0.074-0.268,0.074-0.424c0-0.144-0.023-0.278-0.07-0.404c-0.047-0.127-0.113-0.236-0.199-0.33
				s-0.189-0.168-0.311-0.223s-0.256-0.082-0.404-0.082c-0.141,0-0.271,0.025-0.393,0.076s-0.225,0.122-0.313,0.215
				c-0.087,0.092-0.156,0.202-0.205,0.33C8.014,13.654,7.989,13.794,7.989,13.945z M8.18,11.414c0,0.117,0.021,0.226,0.063,0.326
				c0.042,0.1,0.098,0.188,0.168,0.262s0.153,0.132,0.248,0.174c0.095,0.041,0.197,0.063,0.307,0.063s0.211-0.021,0.307-0.064
				c0.095-0.043,0.178-0.102,0.25-0.176c0.072-0.074,0.128-0.162,0.17-0.262c0.042-0.101,0.063-0.208,0.063-0.322
				c0-0.117-0.02-0.227-0.061-0.328c-0.041-0.102-0.096-0.189-0.166-0.262c-0.07-0.073-0.154-0.131-0.25-0.172
				C9.182,10.61,9.077,10.59,8.966,10.59c-0.117,0-0.224,0.021-0.32,0.064c-0.096,0.043-0.179,0.102-0.248,0.178
				c-0.069,0.075-0.123,0.163-0.16,0.264C8.199,11.195,8.18,11.302,8.18,11.414z"/>
			<path fill="#FFFFFF" d="M16.086,11.586l-1.332,2.023l1.316,1.977h-1.051l-0.703-1.238c-0.044-0.076-0.096-0.172-0.156-0.289
				h-0.016c-0.01,0.023-0.065,0.119-0.164,0.289l-0.715,1.238h-1.047l1.359-1.961l-1.289-2.039h1.055l0.691,1.301
				c0.052,0.096,0.103,0.195,0.152,0.297h0.012l0.895-1.598H16.086z"/>
		</g>
	</g>
</g>
<g id="quality_click">
	<g id="check_copy_17_2_">
	</g>
</g>
</svg>
