<?xml version="1.0" encoding="utf-8"?>
<!-- Generator: Adobe Illustrator 18.1.0, SVG Export Plug-In . SVG Version: 6.00 Build 0)  -->
<!DOCTYPE svg PUBLIC "-//W3C//DTD SVG 1.1//EN" "http://www.w3.org/Graphics/SVG/1.1/DTD/svg11.dtd">
<svg version="1.1" xmlns="http://www.w3.org/2000/svg" xmlns:xlink="http://www.w3.org/1999/xlink" x="0px" y="0px" width="16px"
	 height="16px" viewBox="0 0 16 16" enable-background="new 0 0 16 16" xml:space="preserve">
<g id="icons">
	<rect x="-400" y="-240" display="none" fill="#3C454F" width="1200" height="934"/>
	<g id="settings">
	</g>
	<g id="fast_forward_2x_10_">
		<rect x="0" fill="none" width="16" height="16"/>
		<g>
			<g>
				<polygon fill="#FFFFFF" points="0,5 4,8 4,2 				"/>
			</g>
			<g>
				<polygon fill="#FFFFFF" points="4,5 8,8 8,2 				"/>
			</g>
		</g>
		<g>
			<path fill="#FFFFFF" d="M3.11,15.379v-0.852c0.365,0.289,0.776,0.434,1.234,0.434c0.372,0,0.67-0.085,0.893-0.254
				c0.223-0.17,0.334-0.398,0.334-0.688c0-0.636-0.486-0.953-1.457-0.953H3.68V12.34h0.414c0.862,0,1.293-0.3,1.293-0.898
				c0-0.553-0.336-0.828-1.008-0.828c-0.375,0-0.728,0.134-1.059,0.402v-0.805c0.38-0.214,0.829-0.32,1.348-0.32
				c0.497,0,0.896,0.125,1.195,0.375c0.299,0.25,0.449,0.57,0.449,0.961c0,0.736-0.375,1.211-1.125,1.422v0.016
				c0.404,0.039,0.723,0.18,0.957,0.424C6.379,13.331,6.497,13.635,6.497,14c0,0.502-0.189,0.908-0.566,1.217
				c-0.378,0.309-0.875,0.463-1.492,0.463C3.883,15.68,3.44,15.579,3.11,15.379z"/>
			<path fill="#FFFFFF" d="M11.129,15.586H7.614v-0.434c0-0.178,0.025-0.344,0.074-0.498c0.049-0.155,0.116-0.301,0.199-0.438
				C7.97,14.08,8.068,13.951,8.18,13.83c0.112-0.121,0.232-0.238,0.359-0.352c0.127-0.113,0.258-0.223,0.391-0.328
				s0.263-0.212,0.391-0.318c0.12-0.102,0.229-0.201,0.328-0.299c0.099-0.098,0.184-0.199,0.254-0.303
				c0.07-0.104,0.125-0.215,0.164-0.33c0.039-0.116,0.059-0.242,0.059-0.377c0-0.148-0.023-0.278-0.068-0.389
				c-0.046-0.111-0.109-0.203-0.191-0.277s-0.179-0.131-0.291-0.168c-0.112-0.038-0.234-0.057-0.367-0.057
				c-0.229,0-0.462,0.053-0.699,0.16c-0.237,0.106-0.465,0.267-0.684,0.48v-0.871c0.115-0.086,0.23-0.161,0.348-0.225
				c0.117-0.064,0.238-0.117,0.363-0.16S8.792,9.942,8.93,9.922C9.068,9.9,9.215,9.891,9.371,9.891c0.252,0,0.482,0.033,0.688,0.1
				c0.206,0.066,0.381,0.164,0.527,0.293c0.146,0.129,0.258,0.289,0.338,0.482c0.079,0.192,0.119,0.414,0.119,0.664
				c0,0.227-0.028,0.43-0.084,0.611c-0.056,0.181-0.135,0.35-0.238,0.506c-0.103,0.156-0.227,0.305-0.373,0.445
				c-0.146,0.141-0.309,0.285-0.488,0.434c-0.151,0.122-0.302,0.241-0.451,0.357c-0.15,0.115-0.285,0.229-0.404,0.34
				c-0.12,0.11-0.217,0.221-0.291,0.332c-0.074,0.11-0.111,0.222-0.111,0.334v0.02h2.527V15.586z"/>
			<path fill="#FFFFFF" d="M16.086,11.586l-1.332,2.023l1.316,1.977h-1.051l-0.703-1.238c-0.044-0.076-0.096-0.172-0.156-0.289
				h-0.016c-0.01,0.023-0.065,0.119-0.164,0.289l-0.715,1.238h-1.047l1.359-1.961l-1.289-2.039h1.055l0.691,1.301
				c0.052,0.096,0.103,0.195,0.152,0.297h0.012l0.895-1.598H16.086z"/>
		</g>
	</g>
</g>
<g id="quality_click">
	<g id="check_copy_17_2_">
	</g>
</g>
</svg>
