<?xml version="1.0" encoding="utf-8"?>
<!-- Generator: Adobe Illustrator 18.1.0, SVG Export Plug-In . SVG Version: 6.00 Build 0)  -->
<!DOCTYPE svg PUBLIC "-//W3C//DTD SVG 1.1//EN" "http://www.w3.org/Graphics/SVG/1.1/DTD/svg11.dtd">
<svg version="1.1" xmlns="http://www.w3.org/2000/svg" xmlns:xlink="http://www.w3.org/1999/xlink" x="0px" y="0px" width="16px"
	 height="16px" viewBox="0 0 16 16" enable-background="new 0 0 16 16" xml:space="preserve">
<g id="icons">
	<rect x="-400" y="-268" display="none" fill="#3C454F" width="1200" height="934"/>
	<g id="settings">
	</g>
	<g id="fast_forward_2x_9_">
		<rect fill="none" width="16" height="16"/>
		<g>
			<g>
				<polygon fill="#FFFFFF" points="0,5 4,8 4,2 				"/>
			</g>
			<g>
				<polygon fill="#FFFFFF" points="4,5 8,8 8,2 				"/>
			</g>
		</g>
		<g>
			<path fill="#FFFFFF" d="M6.918,13.785c0,0.281-0.046,0.537-0.139,0.77c-0.093,0.231-0.221,0.432-0.385,0.6
				s-0.359,0.298-0.584,0.391c-0.225,0.092-0.469,0.139-0.732,0.139c-0.281,0-0.54-0.055-0.775-0.164
				c-0.236-0.109-0.439-0.272-0.609-0.488c-0.171-0.217-0.303-0.485-0.396-0.807c-0.094-0.322-0.141-0.695-0.141-1.119
				c0-0.519,0.062-0.979,0.186-1.379c0.124-0.401,0.293-0.737,0.51-1.008c0.216-0.271,0.47-0.477,0.762-0.617
				C4.905,9.961,5.22,9.891,5.559,9.891c0.211,0,0.403,0.014,0.576,0.043c0.173,0.028,0.312,0.067,0.416,0.117v0.816
				c-0.133-0.068-0.275-0.125-0.426-0.172c-0.151-0.047-0.324-0.07-0.52-0.07c-0.219,0-0.421,0.044-0.605,0.133
				c-0.185,0.088-0.344,0.218-0.479,0.389c-0.134,0.17-0.24,0.381-0.316,0.633c-0.077,0.251-0.117,0.541-0.119,0.869H4.11
				c0.12-0.186,0.282-0.331,0.486-0.438c0.204-0.107,0.445-0.16,0.721-0.16c0.245,0,0.465,0.039,0.662,0.119
				c0.197,0.079,0.365,0.193,0.504,0.344c0.139,0.149,0.247,0.332,0.322,0.547C6.88,13.275,6.918,13.517,6.918,13.785z
				 M6.004,13.859c0-0.162-0.019-0.309-0.057-0.441c-0.038-0.133-0.095-0.247-0.172-0.342c-0.077-0.096-0.173-0.169-0.289-0.221
				c-0.116-0.053-0.252-0.078-0.408-0.078s-0.294,0.027-0.412,0.084c-0.119,0.056-0.218,0.129-0.299,0.221
				c-0.081,0.091-0.141,0.195-0.182,0.313c-0.041,0.117-0.061,0.236-0.061,0.359c0,0.133,0.019,0.269,0.057,0.408
				c0.038,0.139,0.096,0.266,0.174,0.381c0.078,0.114,0.178,0.209,0.299,0.283s0.265,0.111,0.432,0.111
				c0.148,0,0.28-0.027,0.395-0.082c0.115-0.055,0.21-0.131,0.287-0.227c0.077-0.097,0.135-0.211,0.176-0.342
				C5.984,14.155,6.004,14.013,6.004,13.859z"/>
			<path fill="#FFFFFF" d="M10.84,9.984v3.617h0.832v0.754H10.84v1.23H9.961v-1.23H7.426v-0.762
				c0.229-0.258,0.464-0.537,0.705-0.838c0.241-0.301,0.473-0.608,0.695-0.922c0.223-0.314,0.429-0.629,0.619-0.943
				c0.19-0.315,0.35-0.617,0.48-0.906H10.84z M9.961,13.602V11.25c-0.284,0.51-0.564,0.955-0.842,1.336
				c-0.277,0.38-0.537,0.719-0.779,1.016H9.961z"/>
			<path fill="#FFFFFF" d="M16.086,11.586l-1.332,2.023l1.316,1.977H15.02l-0.703-1.238c-0.044-0.076-0.096-0.172-0.156-0.289
				h-0.016c-0.01,0.023-0.065,0.119-0.164,0.289l-0.715,1.238h-1.047l1.359-1.961l-1.289-2.039h1.055l0.691,1.301
				c0.052,0.096,0.103,0.195,0.152,0.297h0.012l0.895-1.598H16.086z"/>
		</g>
	</g>
</g>
<g id="quality_click">
	<g id="check_copy_17_2_">
	</g>
</g>
</svg>
