<?xml version="1.0" encoding="utf-8"?>
<!-- Generator: Adobe Illustrator 18.1.0, SVG Export Plug-In . SVG Version: 6.00 Build 0)  -->
<!DOCTYPE svg PUBLIC "-//W3C//DTD SVG 1.1//EN" "http://www.w3.org/Graphics/SVG/1.1/DTD/svg11.dtd">
<svg version="1.1" xmlns="http://www.w3.org/2000/svg" xmlns:xlink="http://www.w3.org/1999/xlink" x="0px" y="0px" width="16px"
	 height="16px" viewBox="0 0 16 16" enable-background="new 0 0 16 16" xml:space="preserve">
<g id="icons">
	<rect x="-400" y="-550" display="none" fill="#3C454F" width="1200" height="934"/>
	<g id="settings">
		<g>
			<path fill="#FFFFFF" d="M14,8.648V7.28l-0.192-0.072l-1.464-0.48L11.96,5.792l0.744-1.584l-0.96-0.96l-0.192,0.096L10.184,4.04
				L9.248,3.656L8.648,2H7.28L7.208,2.192l-0.48,1.464L5.792,4.04l-1.56-0.744l-0.96,0.96l0.096,0.192l0.696,1.368L3.68,6.752
				L2,7.352V8.72l0.192,0.072l1.464,0.48l0.384,0.936l-0.744,1.584l0.96,0.96l0.192-0.096l1.368-0.696l0.936,0.384L7.352,14H8.72
				l0.072-0.192l0.48-1.464l0.936-0.384l1.584,0.744l0.96-0.96l-0.096-0.192l-0.696-1.368l0.384-0.936L14,8.648z M8,10.04
				c-1.128,0-2.04-0.912-2.04-2.04S6.872,5.96,8,5.96S10.04,6.872,10.04,8S9.128,10.04,8,10.04z"/>
			<rect x="0" fill="none" width="16" height="16"/>
		</g>
	</g>
</g>
<g id="quality_click">
	<g id="check_copy_17_2_">
	</g>
</g>
</svg>
