<?xml version="1.0" encoding="utf-8"?>
<!-- Generator: Adobe Illustrator 18.1.0, SVG Export Plug-In . SVG Version: 6.00 Build 0)  -->
<!DOCTYPE svg PUBLIC "-//W3C//DTD SVG 1.1//EN" "http://www.w3.org/Graphics/SVG/1.1/DTD/svg11.dtd">
<svg version="1.1" xmlns="http://www.w3.org/2000/svg" xmlns:xlink="http://www.w3.org/1999/xlink" x="0px" y="0px" width="16px"
	 height="16px" viewBox="0 0 16 16" enable-background="new 0 0 16 16" xml:space="preserve">
<g id="icons">
	<rect x="-400" y="-522" display="none" fill="#3C454F" width="1200" height="934"/>
	<g id="settings">
	</g>
	<g id="share_2_">
		<g>
			<polygon fill="#FFFFFF" points="14,7 12.586,5.5 14.052,5.5 16,7.505 14.063,9.5 12.597,9.5 14,8 7,8 7,7 			"/>
			<path fill="#FFFFFF" d="M11,12H2c-0.552,0-1-0.449-1-1V4c0-0.551,0.448-1,1-1h9c0.552,0,1,0.449,1,1h1c0-1.1-0.9-2-2-2H2
				C0.9,2,0,2.9,0,4v7c0,1.1,0.9,2,2,2h9c1.1,0,2-0.9,2-2h-1C12,11.551,11.552,12,11,12z"/>
		</g>
		<rect x="0" fill="none" width="16" height="16"/>
	</g>
</g>
<g id="quality_click">
	<g id="check_copy_17_2_">
	</g>
</g>
</svg>
