<?xml version="1.0" encoding="utf-8"?>
<!-- Generator: Adobe Illustrator 18.1.0, SVG Export Plug-In . SVG Version: 6.00 Build 0)  -->
<!DOCTYPE svg PUBLIC "-//W3C//DTD SVG 1.1//EN" "http://www.w3.org/Graphics/SVG/1.1/DTD/svg11.dtd">
<svg version="1.1" xmlns="http://www.w3.org/2000/svg" xmlns:xlink="http://www.w3.org/1999/xlink" x="0px" y="0px" width="16px"
	 height="16px" viewBox="0 0 16 16" enable-background="new 0 0 16 16" xml:space="preserve">
<g id="icons">
	<rect x="-100" y="-212" display="none" fill="#3C454F" width="1200" height="934"/>
	<g id="settings">
	</g>
	<g id="volume_1_">
		<g id="Volume_2_">
			<path fill-rule="evenodd" clip-rule="evenodd" fill="#FFFFFF" d="M12.184,3.4c-0.195-0.195-0.516-0.195-0.711,0
				c-0.188,0.195-0.188,0.508,0,0.703c1.079,1.079,1.618,2.485,1.618,3.892c0,1.415-0.531,2.821-1.618,3.9
				c-0.188,0.195-0.188,0.516,0,0.711c0.102,0.094,0.227,0.141,0.36,0.141c0.125,0,0.25-0.047,0.352-0.141
				c1.274-1.274,1.907-2.946,1.907-4.611S13.45,4.666,12.184,3.4z M10.605,4.978c-0.195-0.195-0.508-0.195-0.703,0
				c-0.195,0.195-0.195,0.508,0,0.703c0.641,0.641,0.961,1.477,0.961,2.321c0,0.836-0.32,1.672-0.961,2.313
				c-0.195,0.195-0.195,0.516,0,0.711c0.102,0.094,0.227,0.141,0.352,0.141c0.133,0,0.258-0.047,0.352-0.141
				c0.836-0.836,1.258-1.938,1.25-3.025C11.863,6.909,11.441,5.815,10.605,4.978z M2,6v4h2l4,3V3L4,6H2z"/>
		</g>
		<rect fill-rule="evenodd" clip-rule="evenodd" fill="none" width="16" height="16"/>
	</g>
</g>
<g id="quality_click">
	<g id="check_copy_17_2_">
	</g>
</g>
</svg>
