<?xml version="1.0" encoding="utf-8"?>
<!-- Generator: Adobe Illustrator 18.1.0, SVG Export Plug-In . SVG Version: 6.00 Build 0)  -->
<!DOCTYPE svg PUBLIC "-//W3C//DTD SVG 1.1//EN" "http://www.w3.org/Graphics/SVG/1.1/DTD/svg11.dtd">
<svg version="1.1" xmlns="http://www.w3.org/2000/svg" xmlns:xlink="http://www.w3.org/1999/xlink" x="0px" y="0px" width="16px"
	 height="16px" viewBox="0 0 16 16" enable-background="new 0 0 16 16" xml:space="preserve">
<g id="icons">
	<rect x="-100" y="-408" display="none" fill="#3C454F" width="1200" height="934"/>
	<g id="settings">
	</g>
	<g id="subtitles_2_">
		<rect x="0" y="0" fill="none" width="16" height="16"/>
		<path fill="#FFFFFF" d="M13,3H3C1.9,3,1,3.9,1,5v5c0,1.1,0.9,2,2,2h3.5l3.5,3.5V12h3c1.1,0,2-0.9,2-2V5C15,3.9,14.1,3,13,3z M4,5
			h8v1H4V5z M12,10H4V9h8V10z M13,8H3V7h10V8z"/>
	</g>
</g>
<g id="quality_click">
	<g id="check_copy_17_2_">
	</g>
</g>
</svg>
