<?xml version="1.0" standalone="no"?>
<!DOCTYPE svg PUBLIC "-//W3C//DTD SVG 1.1//EN" "http://www.w3.org/Graphics/SVG/1.1/DTD/svg11.dtd" >
<svg xmlns="http://www.w3.org/2000/svg">
<metadata></metadata>
<defs>
<font id="ralewaybold" horiz-adv-x="518" >
<font-face units-per-em="2048" ascent="1638" descent="-410" />
<missing-glyph horiz-adv-x="489" />
<glyph unicode="ff" horiz-adv-x="1337" d="M1163 1282q-80 0 -119.5 -54t-39.5 -136v-144h282v-211h-282v-737h-275v737h-262v-737h-274v737h-140v211h140v66q0 187 97.5 307.5t266.5 120.5q123 0 264 -60q108 134 287 134q48 0 98.5 -11t80.5 -21.5t79 -31.5l-55 -207q-80 37 -148 37zM729 948v107q0 24 5.5 66 t13.5 59q-57 28 -136 28q-74 0 -109.5 -54t-35.5 -130v-76h262z" />
<glyph unicode="fi" horiz-adv-x="1165" d="M193 0v737h-140v211h140v133q0 120 51 218t152 157.5t235 59.5q194 0 397 -134l-110 -204q-56 47 -127.5 75.5t-143.5 28.5q-86 0 -133 -55t-47 -135v-144h575v-948h-274v737h-301v-737h-274z" />
<glyph unicode="fl" horiz-adv-x="1349" d="M1315 256l37 -221q-3 -3 -39.5 -15t-100 -24t-118.5 -12q-124 0 -198.5 66.5t-74.5 162.5v836q0 43 -7.5 80.5t-25.5 73.5t-54.5 57.5t-88.5 21.5q-91 0 -134.5 -69t-43.5 -171v-94h180v-211h-180v-737h-274v737h-140v211h140v158q0 196 118.5 303t329.5 107 q226 0 340.5 -107.5t114.5 -294.5v-764q0 -46 26 -83.5t74 -37.5q21 0 49.5 6.5t48.5 13.5z" />
<glyph unicode="ffi" horiz-adv-x="1703" d="M193 0v737h-140v211h140v66q0 187 97.5 307.5t266.5 120.5q123 0 264 -60q124 134 342 134q191 0 402 -134l-111 -204q-52 46 -124 75t-138 29q-94 0 -141 -54t-47 -136v-144h577v-948h-274v737h-303v-737h-275v737h-262v-737h-274zM467 948h262v107q0 24 5.5 66t13.5 59 q-57 28 -136 28q-74 0 -109.5 -54t-35.5 -130v-76z" />
<glyph unicode="ffl" horiz-adv-x="1888" d="M1634 -16q-125 0 -199.5 66.5t-74.5 162.5v836q0 43 -7.5 80.5t-25.5 73.5t-54.5 57.5t-88.5 21.5q-91 0 -134.5 -69t-43.5 -171v-94h178v-211h-178v-737h-275v737h-264v-737h-274v737h-140v211h140v72q0 188 100 305t268 117q118 0 262 -60q116 134 357 134 q226 0 340 -107.5t114 -294.5v-764q0 -46 25.5 -83.5t73.5 -37.5q22 0 50.5 6.5t48.5 13.5l21 7l37 -221q-3 -3 -39 -15t-99.5 -24t-117.5 -12zM467 948h264v105q0 101 14 129q-53 26 -124 26q-76 0 -115 -50t-39 -128v-82z" />
<glyph horiz-adv-x="0" />
<glyph horiz-adv-x="0" />
<glyph unicode="&#xd;" horiz-adv-x="0" />
<glyph unicode=" "  horiz-adv-x="489" />
<glyph unicode="&#x09;" horiz-adv-x="489" />
<glyph unicode="&#xa0;" horiz-adv-x="489" />
<glyph unicode="!" horiz-adv-x="591" d="M434 547h-274v921h274v-921zM434 0h-274v309h274v-309z" />
<glyph unicode="&#x22;" horiz-adv-x="790" d="M350 1104h-233v377h233v-377zM674 1104h-234v377h234v-377z" />
<glyph unicode="#" horiz-adv-x="1482" d="M1405 1061v-193h-297l-68 -280h269v-205h-318l-94 -383h-221l96 383h-246l-92 -383h-221l94 383h-229v205h278l68 280h-250v193h297l96 393h221l-98 -393h246l94 393h221l-96 -393h250zM575 588h246l66 280h-244z" />
<glyph unicode="$" horiz-adv-x="1298" d="M1167 1303l-125 -230q-34 36 -135 82t-207 57v-354l52 -12q93 -24 159.5 -47.5t128 -59t98.5 -79t59 -105t22 -139.5q0 -108 -39.5 -191t-109.5 -133t-157.5 -76t-191.5 -30v-226h-123v228q-143 11 -281.5 58.5t-246.5 125.5l125 244q43 -45 166 -103t255 -71v352l-75 20 q-218 60 -315 146.5t-97 247.5q0 200 130.5 318t338.5 134v209h123v-207q234 -19 446 -159zM918 387q0 66 -53.5 106.5t-164.5 75.5v-331q106 3 162 41t56 108zM420 1053q0 -66 45.5 -102.5t150.5 -67.5v331q-196 -12 -196 -161z" />
<glyph unicode="%" horiz-adv-x="1624" d="M416 854q-140 0 -239 90.5t-99 220.5q0 129 99 219.5t239 90.5q142 0 240 -90.5t98 -219.5q0 -131 -98 -221t-240 -90zM416 991q60 0 102.5 51.5t42.5 122.5q0 70 -43 121t-102 51q-60 0 -103 -51.5t-43 -120.5q0 -71 43.5 -122.5t102.5 -51.5zM1206 -20q-140 0 -238 90 t-98 219q0 130 98 220.5t238 90.5q142 0 240 -90t98 -221q0 -129 -98 -219t-240 -90zM1206 117q61 0 104.5 51t43.5 121q0 72 -44 123t-104 51t-102.5 -51.5t-42.5 -122.5q0 -70 43 -121t102 -51zM319 -14l-124 110l577 674l533 700l125 -110l-566 -660z" />
<glyph unicode="&#x26;" horiz-adv-x="1466" d="M1458 0h-360l-115 121q-182 -141 -410 -141q-109 0 -202 35t-155 94.5t-97 137.5t-35 165q0 221 250 401q-85 97 -119.5 166t-34.5 145q0 155 113 252t285 97q162 0 274.5 -85t112.5 -237q0 -111 -64.5 -200.5t-183.5 -174.5l280 -293q66 142 66 314h223 q-3 -282 -129 -482zM602 195q127 0 234 81l-336 357q-75 -55 -113.5 -108t-38.5 -115q0 -90 72 -152.5t182 -62.5zM430 1133q0 -34 23.5 -69t93.5 -110q89 57 128.5 98.5t39.5 94.5q0 55 -38.5 89t-98.5 34q-65 0 -106.5 -39.5t-41.5 -97.5z" />
<glyph unicode="'" horiz-adv-x="454" d="M344 1116h-233v365h233v-365z" />
<glyph unicode="(" horiz-adv-x="630" d="M70 711q0 191 78 390.5t225 448.5l211 -88q-36 -55 -77 -136t-83.5 -184t-70 -220.5t-27.5 -216.5q0 -286 249 -713l-198 -101q-307 453 -307 820z" />
<glyph unicode=")" horiz-adv-x="630" d="M561 711q0 -367 -307 -820l-201 101q252 423 252 713q0 99 -27.5 216.5t-70 220.5t-83.5 184t-77 136l211 88q147 -249 225 -448.5t78 -390.5z" />
<glyph unicode="*" horiz-adv-x="706" d="M260 995l-106 70l96 145l-146 45l37 119l150 -63l-10 157h145l-10 -157l147 63l37 -119l-143 -45l96 -145l-107 -70l-92 154z" />
<glyph unicode="+" horiz-adv-x="868" d="M557 838h211v-222h-211v-231h-246v231h-213v222h213v231h246v-231z" />
<glyph unicode="," horiz-adv-x="483" d="M66 -231v194q12 0 25.5 4t27.5 19.5t14 40.5v268h225v-318q0 -58 -27.5 -101t-72.5 -65t-93 -32t-99 -10z" />
<glyph unicode="-" horiz-adv-x="854" d="M737 438h-620v248h620v-248z" />
<glyph unicode="." horiz-adv-x="458" d="M342 0h-225v295h225v-295z" />
<glyph unicode="/" horiz-adv-x="1429" d="M1071 1454h305l-1016 -1454h-303z" />
<glyph unicode="0" horiz-adv-x="1259" d="M1159 600q0 -177 -69 -319t-189.5 -221.5t-269.5 -79.5q-229 0 -380 175.5t-151 444.5q0 133 40.5 249t110.5 198t168.5 129t211.5 47q226 0 377 -177t151 -446zM883 600q0 163 -71.5 267t-180.5 104q-115 0 -185.5 -103t-70.5 -268t70.5 -267t185.5 -102q110 0 181 103 t71 266z" />
<glyph unicode="1" horiz-adv-x="1007" d="M700 248h261v-248h-832v248h291v620q-36 -49 -145.5 -99t-186.5 -50v256q46 0 123 39t137 85t72 70h280v-921z" />
<glyph unicode="2" horiz-adv-x="1165" d="M1071 0h-987q0 190 69 310t253 222q37 20 88 47.5t78 42t61.5 35t51.5 35t34.5 32.5t24 36.5t6.5 40.5q0 64 -51 106.5t-140 42.5q-154 0 -287 -157l-176 202q69 72 207.5 133.5t304.5 61.5q206 0 323.5 -95.5t117.5 -252.5q0 -55 -18.5 -105t-43.5 -84t-67.5 -69 t-72 -54t-75.5 -45q-53 -29 -81.5 -46t-77.5 -50.5t-81 -68.5t-49 -72h588v-248z" />
<glyph unicode="3" horiz-adv-x="1144" d="M780 483q129 -22 208 -122t79 -242q0 -192 -144.5 -306t-387.5 -114q-315 0 -476 197l156 194q110 -141 309 -141q126 0 192 50.5t66 150.5q0 107 -76.5 164t-228.5 57h-57v204h63q122 0 193.5 56t71.5 145q0 81 -55.5 123.5t-149.5 42.5q-93 0 -168 -42.5t-123 -121.5 l-172 193q62 94 197.5 151.5t295.5 57.5q208 0 337.5 -100.5t129.5 -262.5q0 -123 -72 -218t-188 -116z" />
<glyph unicode="4" horiz-adv-x="1157" d="M915 -260h-274v305h-598v244l684 880h188v-878h181v-246h-181v-305zM672 754l-355 -463h355v463z" />
<glyph unicode="5" horiz-adv-x="1136" d="M592 653q207 0 343 -131t136 -336q0 -144 -70 -256.5t-191.5 -173.5t-274.5 -61q-158 0 -285 67.5t-193 184.5l158 164q59 -80 145 -127t177 -47q111 0 181 67.5t70 175.5q0 105 -66.5 171.5t-168.5 66.5q-68 0 -126 -30.5t-93 -84.5h-240l168 866h717v-249h-518 l-58 -326q56 59 189 59z" />
<glyph unicode="6" horiz-adv-x="1243" d="M1161 485q0 -213 -152.5 -359t-377.5 -146q-249 0 -393 177t-144 490q0 392 150.5 604.5t412.5 212.5q137 0 254.5 -59.5t196.5 -169.5l-158 -172q-50 77 -128.5 120.5t-168.5 43.5q-137 0 -218.5 -110.5t-84.5 -305.5q42 74 122.5 117t182.5 43q215 0 360.5 -140 t145.5 -346zM631 211q109 0 188.5 81t79.5 193q0 110 -79 188.5t-189 78.5t-189.5 -78.5t-79.5 -188.5t80 -192t189 -82z" />
<glyph unicode="7" horiz-adv-x="1175" d="M137 -260l600 1204h-661v250h1093l-723 -1454h-309z" />
<glyph unicode="8" horiz-adv-x="1239" d="M1147 430q0 -131 -72.5 -234.5t-193 -158.5t-265.5 -55q-144 0 -264 58t-191 163.5t-71 236.5q0 113 67.5 202t161.5 136q-79 38 -131.5 113t-52.5 160q0 93 44 171.5t115 128t155 76.5t169 27q86 0 170.5 -26.5t155.5 -75t115.5 -127t44.5 -172.5q0 -85 -53.5 -162 t-132.5 -113q97 -49 163 -139.5t66 -208.5zM868 446q0 98 -75 158t-175 60q-102 0 -175.5 -61.5t-73.5 -156.5t76 -156t176 -61q99 0 173 62.5t74 154.5zM414 1042q0 -80 62.5 -126t141.5 -46t143 47.5t64 126.5q0 73 -60.5 119.5t-146.5 46.5q-85 0 -144.5 -47t-59.5 -121z " />
<glyph unicode="9" horiz-adv-x="1206" d="M66 664q0 213 152.5 359t377.5 146q249 0 393 -177t144 -490q0 -392 -151 -604.5t-413 -212.5q-137 0 -254 59.5t-196 169.5l157 172q50 -77 128.5 -120.5t168.5 -43.5q137 0 219 110.5t85 305.5q-42 -74 -123 -117t-183 -43q-215 0 -360 140t-145 346zM596 938 q-109 0 -188.5 -81t-79.5 -193q0 -110 79 -188.5t189 -78.5t189 78.5t79 188.5t-79.5 192t-188.5 82z" />
<glyph unicode=":" horiz-adv-x="497" d="M360 766h-223v295h223v-295zM360 0h-223v295h223v-295z" />
<glyph unicode=";" horiz-adv-x="512" d="M371 766h-226v295h226v-295zM78 -231v194q12 0 25.5 4t27.5 19.5t14 40.5v268h226v-318q0 -58 -27.5 -101t-73 -65t-93.5 -32t-99 -10z" />
<glyph unicode="&#x3c;" horiz-adv-x="1042" d="M66 457v133l864 522v-291l-465 -291l465 -278v-307z" />
<glyph unicode="=" horiz-adv-x="894" d="M768 295h-641v178h641v-178zM768 657h-641v179h641v-179z" />
<glyph unicode="&#x3e;" horiz-adv-x="1042" d="M977 590v-133l-864 -512v307l465 278l-465 291v291z" />
<glyph unicode="?" horiz-adv-x="1003" d="M479 477h-225q0 110 36 187t132 133q12 7 47.5 26.5t59 33t56.5 38.5t53 49t35 58t15 71q0 81 -57 128.5t-137 47.5q-81 0 -142 -48t-100 -116l-178 123q53 124 169.5 194.5t258.5 70.5q81 0 154.5 -24t135.5 -70.5t99 -126.5t37 -183q0 -122 -54 -200t-161 -144 q-19 -12 -54.5 -32t-55.5 -32t-47 -33t-41.5 -40.5t-25 -48t-10.5 -62.5zM485 0h-227v283h227v-283z" />
<glyph unicode="@" horiz-adv-x="1712" d="M866 1235q154 0 291.5 -52t243.5 -148t168.5 -245.5t62.5 -332.5q0 -33 -2 -65.5t-9.5 -83.5t-20 -94.5t-36.5 -90.5t-56 -80t-82 -54.5t-111 -21.5q-173 0 -195 168q-66 -66 -157 -105.5t-195 -39.5q-153 0 -236 81.5t-83 209.5q0 66 23 118.5t61 86.5t89.5 56.5 t105.5 32t112 9.5q128 0 235 -47q0 123 -52 187t-183 64q-162 0 -273 -90l-51 146q150 102 352 102q73 0 131 -14.5t96.5 -37.5t66 -59.5t42.5 -70.5t23 -81.5t10 -82.5t2 -82v-196q0 -55 3 -90t13 -71t31.5 -53.5t56.5 -17.5q51 0 88 40t54.5 103.5t25 120.5t7.5 111 q0 185 -82.5 335t-234.5 237t-345 87q-286 0 -468.5 -184t-182.5 -469q0 -136 45.5 -256.5t127 -209.5t201.5 -141t261 -52q88 0 158.5 19t156.5 58l35 -106q-168 -82 -359 -82q-152 0 -288 56.5t-236.5 156t-159.5 245t-59 314.5q0 141 41.5 264t115 213.5t171.5 155 t212.5 97t237.5 32.5zM963 184q61 30 85.5 68t24.5 94v62q-120 43 -229 43q-103 0 -165.5 -38t-62.5 -116q0 -66 43 -112t125 -46q87 0 179 45z" />
<glyph unicode="A" horiz-adv-x="1382" d="M303 0h-299l574 1454h229l571 -1454h-299l-133 362h-510zM895 561l-203 588l-209 -588h412z" />
<glyph unicode="B" horiz-adv-x="1392" d="M1323 375q0 -118 -64.5 -204.5t-169.5 -128.5t-235 -42h-702v1454h778q98 0 176 -55.5t117 -139t39 -176.5q0 -109 -55 -202t-154 -136q126 -37 198 -133.5t72 -236.5zM1038 428q0 80 -49.5 137.5t-120.5 57.5h-434v-383h420q76 0 130 55t54 133zM823 1212h-389v-366h377 q73 0 122.5 50t49.5 134q0 82 -45.5 132t-114.5 50z" />
<glyph unicode="C" horiz-adv-x="1372" d="M66 737q0 107 29.5 211.5t89 197t141.5 163t195 112t241 41.5q189 0 333.5 -86t213.5 -231l-217 -150q-32 78 -91 128.5t-119.5 69.5t-127.5 19q-97 0 -175.5 -42.5t-127.5 -112.5t-75 -154.5t-26 -173.5q0 -129 51 -241t146.5 -181t212.5 -69q66 0 129 21.5t121.5 73 t89.5 126.5l231 -133q-42 -104 -138 -183t-210.5 -117t-230.5 -38q-118 0 -226 42t-190 115.5t-144 168t-94 204t-32 219.5z" />
<glyph unicode="D" horiz-adv-x="1470" d="M680 0h-528v1454h528q173 0 311.5 -56.5t226 -156t133.5 -230t46 -282.5q0 -331 -195.5 -530t-521.5 -199zM1112 729q0 215 -115 346t-317 131h-246v-958h246q203 0 317.5 134.5t114.5 346.5z" />
<glyph unicode="E" horiz-adv-x="1236" d="M434 248h727v-248h-1009v1454h991v-248h-709v-350h613v-229h-613v-379z" />
<glyph unicode="F" horiz-adv-x="1169" d="M434 0h-282v1454h976v-248h-694v-375h578v-229h-578v-602z" />
<glyph unicode="G" horiz-adv-x="1452" d="M1126 0v164q-168 -174 -387 -174q-136 0 -261.5 62t-214.5 164t-142 238.5t-53 280.5q0 147 53 281t144 232.5t220 157t273 58.5q194 0 337.5 -84.5t215.5 -232.5l-211 -156q-52 106 -145 164.5t-207 58.5q-116 0 -207.5 -67t-140 -178t-48.5 -242q0 -207 117.5 -347 t294.5 -140q200 0 362 198v103h-292v207h526v-748h-234z" />
<glyph unicode="H" horiz-adv-x="1525" d="M1094 1454h280v-1454h-280v621h-660v-621h-282v1454h282v-588h660v588z" />
<glyph unicode="I" horiz-adv-x="585" d="M434 0h-282v1452h282v-1452z" />
<glyph unicode="J" horiz-adv-x="1013" d="M23 68l63 229q35 -25 104 -47.5t148 -22.5q49 0 86.5 10.5t65 28.5t46.5 50t30.5 68.5t18 91t9 109t2.5 130.5v737h283v-737q0 -103 -4.5 -180.5t-19 -158.5t-38.5 -138t-65 -109t-97.5 -83.5t-136 -50t-180.5 -18.5q-182 0 -315 91z" />
<glyph unicode="K" horiz-adv-x="1366" d="M434 0h-282v1452h282v-709l629 711h293l-557 -645l592 -809h-299l-463 649l-195 -211v-438z" />
<glyph unicode="L" horiz-adv-x="1206" d="M1176 0h-1024v1454h282v-1206h742v-248z" />
<glyph unicode="M" horiz-adv-x="1771" d="M1620 0h-283v963l-374 -717h-154l-375 717v-963h-282v1454h303l430 -827l434 827h301v-1454z" />
<glyph unicode="N" horiz-adv-x="1562" d="M1182 0l-748 932v-932h-282v1454h219l757 -954v952h283v-1452h-229z" />
<glyph unicode="O" horiz-adv-x="1515" d="M756 -10q-150 0 -280.5 62.5t-218.5 166t-138.5 236t-50.5 272.5q0 144 53 278.5t144 235.5t221 162t276 61q120 0 229 -41.5t191 -114t142.5 -166t92 -201.5t31.5 -218q0 -143 -52.5 -276.5t-142.5 -234.5t-220 -161.5t-277 -60.5zM352 727q0 -128 47.5 -237.5 t142.5 -179.5t218 -70q94 0 172 42t127.5 111.5t76.5 156t27 177.5q0 127 -48 237t-142 179t-215 69q-94 0 -172.5 -42t-128.5 -111t-77.5 -155t-27.5 -177z" />
<glyph unicode="P" horiz-adv-x="1271" d="M434 0h-282v1454h616q97 0 184.5 -42t148 -110t95.5 -155t35 -176q0 -125 -56 -235t-161.5 -179.5t-235.5 -69.5h-344v-487zM434 1206v-471h328q79 0 130.5 65t51.5 171q0 108 -57.5 171.5t-136.5 63.5h-316z" />
<glyph unicode="Q" horiz-adv-x="1519" d="M1208 0l-88 98q-165 -108 -364 -108q-150 1 -280.5 63.5t-218.5 165.5t-138.5 235.5t-50.5 272.5q0 144 53 278.5t144 235.5t221 162t276 61q120 0 229 -41.5t191 -114t142.5 -166t92 -201.5t31.5 -218q0 -137 -46.5 -264.5t-131.5 -227.5l207 -231h-269zM760 240 q106 0 188 51l-219 248h268l90 -103q76 133 76 291q0 95 -28.5 182.5t-79.5 155.5t-128.5 108.5t-168.5 40.5q-94 0 -172.5 -42t-128.5 -111.5t-77.5 -156t-27.5 -177.5q0 -128 47.5 -237.5t142.5 -179.5t218 -70z" />
<glyph unicode="R" horiz-adv-x="1380" d="M434 0h-282v1454h643q129 0 237 -71.5t166.5 -181.5t58.5 -230q0 -140 -71.5 -256.5t-190.5 -167.5l342 -547h-319l-305 487h-279v-487zM434 1206v-471h354q78 0 131.5 68.5t53.5 167.5t-60 167t-137 68h-342z" />
<glyph unicode="S" horiz-adv-x="1259" d="M1145 1303l-125 -230q-37 41 -156 92.5t-235 51.5q-114 0 -173 -42.5t-59 -121.5q0 -22 4.5 -40.5t17 -34.5t25 -28t38 -24t45.5 -20.5t58.5 -20t65.5 -19t78 -20.5q93 -24 159.5 -47.5t128 -59t98.5 -79t59 -105t22 -139.5q0 -113 -43 -198.5t-119.5 -135.5t-170.5 -74 t-206 -24q-163 0 -323.5 49.5t-286.5 138.5l125 244q52 -52 198 -115t292 -63q115 0 174 38.5t59 110.5q0 37 -16.5 65.5t-48 50.5t-74.5 39t-100.5 34t-120.5 34q-11 2 -17 4q-218 60 -315 146.5t-97 247.5q0 144 72 249t190.5 156t268.5 51q270 0 508 -161z" />
<glyph unicode="T" horiz-adv-x="1269" d="M1239 1454v-248h-463v-1206h-282v1206h-465v248h1210z" />
<glyph unicode="U" horiz-adv-x="1531" d="M764 240q97 0 168.5 39.5t111 108.5t58 149.5t18.5 175.5v741h281v-741q0 -153 -37 -281t-111.5 -228.5t-199 -157t-287.5 -56.5q-135 0 -244 39.5t-181.5 106.5t-121 160t-69.5 196.5t-21 220.5v741h283v-741q0 -96 18.5 -177.5t58 -149.5t110 -107t165.5 -39z" />
<glyph unicode="V" horiz-adv-x="1378" d="M0 1454h297l393 -1100l389 1100h297l-567 -1454h-238z" />
<glyph unicode="W" horiz-adv-x="2156" d="M897 788l-244 662h260l164 -481l164 481h262l-248 -662l185 -464l411 1130h308l-592 -1454h-238l-252 610l-252 -610h-237l-590 1454h305l414 -1130z" />
<glyph unicode="X" horiz-adv-x="1318" d="M-8 1454h307l363 -541l360 541h305l-518 -737l502 -717h-305l-344 520l-347 -520h-307l502 717z" />
<glyph unicode="Y" horiz-adv-x="1318" d="M-8 1454h307l358 -700l365 700h305l-528 -946v-508h-281v512z" />
<glyph unicode="Z" horiz-adv-x="1275" d="M57 0v213l822 993h-799v248h1124v-213l-794 -993h800v-248h-1153z" />
<glyph unicode="[" horiz-adv-x="616" d="M530 -82h-385v1598h385v-220h-131v-1159h131v-219z" />
<glyph unicode="\" horiz-adv-x="1306" d="M53 1454h305l891 -1454h-303z" />
<glyph unicode="]" horiz-adv-x="616" d="M469 -82h-383v219h129v1159h-129v220h383v-1598z" />
<glyph unicode="^" horiz-adv-x="1202" d="M303 621h-221l405 833h230l403 -833h-225l-293 602z" />
<glyph unicode="_" horiz-adv-x="782" d="M766 -248h-750v248h750v-248z" />
<glyph unicode="`" horiz-adv-x="522" d="M287 1198l-191 297h254l113 -244z" />
<glyph unicode="a" horiz-adv-x="1183" d="M418 -20q-157 0 -262 96.5t-105 242.5q0 153 128 250t329 97q154 0 262 -48v62q0 107 -61 164t-179 57q-161 0 -335 -121l-84 174q209 138 446 138q231 0 359 -115t128 -328v-334q0 -43 17 -61.5t57 -20.5v-233q-71 -14 -131 -14q-147 3 -170 127l-6 59 q-72 -93 -173.5 -142.5t-219.5 -49.5zM496 180q69 0 131.5 24.5t97.5 65.5q45 36 45 78v123q-108 41 -217 41q-105 0 -173.5 -48t-68.5 -122q0 -69 53.5 -115.5t131.5 -46.5z" />
<glyph unicode="b" horiz-adv-x="1296" d="M733 -20q-121 0 -218 54.5t-153 151.5v-186h-239v1495h274v-610q58 99 152 153t215 54q137 0 245.5 -77t167 -204.5t58.5 -278.5q0 -153 -65 -279.5t-180.5 -199.5t-256.5 -73zM657 213q128 0 212.5 93t84.5 224q0 134 -80 231t-200 97q-88 0 -162.5 -59t-114.5 -150 v-256q27 -79 103 -129.5t157 -50.5z" />
<glyph unicode="c" horiz-adv-x="1155" d="M57 537q0 151 67.5 276t198 202t300.5 77t296 -74t189 -201l-268 -82q-34 58 -92 90.5t-127 32.5q-120 0 -200.5 -90t-80.5 -231q0 -139 82 -231.5t199 -92.5q73 0 135.5 36t87.5 91l268 -82q-57 -125 -186 -201.5t-301 -76.5q-127 0 -235 45.5t-180 122t-112.5 177.5 t-40.5 212z" />
<glyph unicode="d" horiz-adv-x="1329" d="M567 -20q-146 0 -262.5 74t-181 201.5t-64.5 281.5q0 153 60.5 280t171 201t248.5 74q114 0 210 -57t150 -150v610h275v-1180q0 -43 16.5 -62t56.5 -20v-233q-77 -14 -131 -14q-74 1 -117.5 34.5t-52.5 92.5l-6 73q-57 -99 -157 -152.5t-216 -53.5zM639 213 q79 0 156 51.5t106 128.5v256q-34 89 -113.5 149t-164.5 60q-121 0 -201 -97.5t-80 -230.5q0 -134 85 -225.5t212 -91.5z" />
<glyph unicode="e" horiz-adv-x="1228" d="M623 -20q-168 0 -299 76t-199 200.5t-68 273.5q0 153 68 280.5t199 204.5t301 77q128 0 234.5 -45t177 -121.5t109 -175.5t38.5 -209q0 -57 -6 -92h-830q10 -122 92 -195.5t193 -73.5q83 0 155.5 40.5t98.5 105.5l235 -66q-60 -126 -192.5 -203t-306.5 -77zM344 627h557 q-10 119 -88.5 192.5t-191.5 73.5q-112 0 -190 -73.5t-87 -192.5z" />
<glyph unicode="f" horiz-adv-x="780" d="M467 0h-274v737h-140v211h140v133q0 199 97.5 317t260.5 118q130 0 264 -64l-55 -207q-70 39 -150 39q-70 0 -106.5 -49t-36.5 -143v-144h262v-211h-262v-737z" />
<glyph unicode="g" horiz-adv-x="1296" d="M543 -6q-104 0 -195 43.5t-153.5 117t-98 173t-35.5 209.5q0 115 37 217t102 176.5t158 118t201 43.5q122 0 217.5 -55t157.5 -152v188h240v-1022q0 -155 -77 -271.5t-211 -176.5t-306 -60q-171 0 -292.5 57t-211.5 167l149 145q62 -76 156 -119t199 -43q138 0 228.5 76 t90.5 225v135q-53 -91 -149 -141.5t-207 -50.5zM637 213q87 0 159.5 52t102.5 128v256q-37 93 -114 151t-164 58q-123 0 -202 -98.5t-79 -231.5q0 -132 85.5 -223.5t211.5 -91.5z" />
<glyph unicode="h" horiz-adv-x="1232" d="M1120 670v-670h-274v602q0 124 -47 186t-133 62q-78 0 -158.5 -64t-110.5 -159v-627h-274v1495h274v-621q60 103 162 160.5t223 57.5q338 0 338 -422z" />
<glyph unicode="i" d="M397 0h-274v1073h274v-1073zM397 1223h-274v272h274v-272z" />
<glyph unicode="j" d="M25 -401q-165 0 -273 96l117 186q48 -45 121 -45q55 0 94 38t39 97v1102h274v-1081q0 -171 -107.5 -282t-264.5 -111zM397 1223h-274v272h274v-272z" />
<glyph unicode="k" horiz-adv-x="1140" d="M1149 0h-293l-311 465l-148 -146v-319h-274v1495h274v-907l430 483h293l-401 -455z" />
<glyph unicode="l" horiz-adv-x="649" d="M121 248v1247h274v-1139q0 -60 29.5 -92.5t83.5 -32.5q40 0 108 27l37 -219q-54 -25 -127 -40t-135 -15q-128 0 -199 69t-71 195z" />
<glyph unicode="m" horiz-adv-x="1902" d="M1790 670v-670h-274v602q0 125 -44 186.5t-124 61.5t-151.5 -63t-102.5 -162v-625h-275v602q0 125 -43.5 186.5t-122.5 61.5q-81 0 -153.5 -62t-102.5 -161v-627h-274v1073h248v-199q60 104 163.5 161t235.5 57q127 0 203.5 -63t99.5 -165q65 110 166.5 169t228.5 59 q322 0 322 -422z" />
<glyph unicode="n" horiz-adv-x="1232" d="M1120 670v-670h-274v602q0 248 -170 248q-85 0 -167 -64t-112 -159v-627h-274v1073h248v-199q60 102 173 160t253 58q78 0 136.5 -24.5t93.5 -63.5t56.5 -96t29 -113.5t7.5 -124.5z" />
<glyph unicode="o" horiz-adv-x="1239" d="M621 -20q-103 0 -193 29.5t-157 81.5t-116 121.5t-73.5 152t-24.5 170.5q0 112 40 213t111 177.5t178.5 121.5t234.5 45q169 0 298.5 -77.5t196 -203t66.5 -276.5q0 -111 -39 -211.5t-109.5 -177t-177.5 -121.5t-235 -45zM340 535q0 -140 80.5 -231t200.5 -91 q119 0 199.5 92t80.5 232q0 139 -80.5 230t-199.5 91t-200 -92t-81 -231z" />
<glyph unicode="p" horiz-adv-x="1294" d="M764 -20q-122 0 -217.5 55.5t-149.5 152.5v-624h-274v1509h239v-184q61 96 156.5 149.5t214.5 53.5q141 0 257 -75t180.5 -201.5t64.5 -276.5q0 -155 -60 -283t-168.5 -202t-242.5 -74zM674 213q121 0 200.5 97t79.5 229q0 135 -85 227t-212 92q-80 0 -156.5 -51.5 t-103.5 -128.5v-252q37 -92 114 -152.5t163 -60.5z" />
<glyph unicode="q" horiz-adv-x="1294" d="M528 -20q-134 0 -242 75t-167.5 203t-59.5 281t65.5 279.5t181 200t255.5 73.5q120 0 215.5 -55t155.5 -150v186h239v-1179q0 -44 17 -62t57 -20v-234q-70 -12 -151 -12q-83 0 -140 52.5t-57 133.5v436q-60 -102 -154 -155t-215 -53zM631 213q163 0 266 176v254 q-23 90 -103 152.5t-167 62.5q-123 0 -205 -97.5t-82 -230.5q0 -135 81.5 -226t209.5 -91z" />
<glyph unicode="r" horiz-adv-x="792" d="M762 1085v-249q-128 -2 -225.5 -50t-139.5 -137v-649h-274v1073h252v-229q57 111 146 178.5t186 67.5q25 0 55 -5z" />
<glyph unicode="s" horiz-adv-x="1040" d="M547 -20q-134 0 -276 39t-236 104l110 186q204 -133 396 -133q87 0 135.5 31t48.5 88q0 54 -53.5 82t-200.5 63q-215 50 -299 114t-84 185q0 161 122 258t310 97q229 0 441 -133l-113 -170q-169 108 -330 108q-78 0 -126 -30.5t-48 -90.5q0 -53 43.5 -77.5t175.5 -57.5 q238 -58 333 -125.5t95 -198.5q0 -156 -120.5 -247.5t-323.5 -91.5z" />
<glyph unicode="t" horiz-adv-x="782" d="M713 272l55 -217q-164 -73 -305 -73q-59 0 -108 15t-88 45.5t-61 82.5t-22 121v616h-139v211h139v348h275v-348h227v-211h-227v-524q0 -54 29 -79.5t75 -25.5q58 0 150 39z" />
<glyph unicode="u" horiz-adv-x="1273" d="M451 -20q-166 0 -252 107t-86 314v672h274v-612q0 -248 178 -248q85 0 159 50t120 145v665h274v-758q0 -43 16.5 -62t57.5 -20v-233q-80 -14 -133 -14q-72 0 -115.5 33.5t-52.5 93.5l-6 88q-73 -109 -184.5 -165t-249.5 -56z" />
<glyph unicode="v" horiz-adv-x="1112" d="M705 0h-297l-396 1073h283l272 -850l275 850h258z" />
<glyph unicode="w" horiz-adv-x="1730" d="M1143 258l317 815h262l-448 -1073h-225l-185 471l-182 -471h-225l-449 1073h260l320 -815l131 348l-189 465h222l112 -330l115 330h221l-186 -465z" />
<glyph unicode="x" horiz-adv-x="1081" d="M10 1073h283l229 -336l19 -37l18 37l229 336h283l-381 -538l387 -535h-282l-236 334l-18 35l-19 -35l-235 -334h-283l389 535z" />
<glyph unicode="y" horiz-adv-x="1114" d="M137 -446v237q63 -18 121 -18q55 0 90 45.5t78 181.5l-426 1073h283l292 -835l259 835h258l-453 -1286q-43 -121 -137 -188.5t-219 -67.5q-69 0 -146 23z" />
<glyph unicode="z" horiz-adv-x="1003" d="M51 0v168l596 713h-573v192h862v-168l-594 -712h604v-193h-895z" />
<glyph unicode="{" horiz-adv-x="626" d="M543 1296h-113v-417q0 -77 -72 -142q72 -65 72 -141v-440h113v-219h-314q-18 0 -32.5 14t-14.5 47v508q0 52 -30.5 90.5t-71.5 46.5v193q41 0 71.5 43.5t30.5 89.5v485q0 33 15.5 47.5t31.5 14.5h314v-220z" />
<glyph unicode="|" d="M375 -266h-234v1853h234v-1853z" />
<glyph unicode="}" horiz-adv-x="626" d="M199 1296h-113v220h313q16 0 31.5 -14.5t15.5 -47.5v-485q0 -46 31 -89.5t72 -43.5v-193q-43 -8 -73 -46.5t-30 -90.5v-508q0 -32 -15 -46.5t-32 -14.5h-313v219h113v440q0 80 71 141q-71 64 -71 142v417z" />
<glyph unicode="~" horiz-adv-x="1150" d="M111 467q0 13 6.5 36.5t19 54.5t36 62t53 57.5t74 43t95.5 16.5q62 0 127 -27.5t124.5 -55t109.5 -27.5q32 0 58.5 10t41 24t24.5 30.5t13.5 27t3.5 14.5h152q0 -12 -8.5 -39t-31 -67t-54 -75t-85 -60t-116.5 -25q-62 0 -127.5 26.5t-125.5 53t-108 26.5q-31 0 -56 -11 t-38.5 -25.5t-22.5 -31t-11.5 -26t-2.5 -12.5h-151z" />
<glyph unicode="&#xa1;" horiz-adv-x="593" d="M160 911h274v-921h-274v921zM160 1458h274v-309h-274v309z" />
<glyph unicode="&#xa2;" horiz-adv-x="1218" d="M692 -246h-123v228q-137 11 -250 93t-174 202.5t-61 250.5q0 140 55.5 258t167 200t262.5 104v231h123v-231q145 -5 261.5 -75.5t181.5 -197.5l-267 -82q-29 51 -75.5 80.5t-100.5 34.5v-631q59 10 111.5 43t68.5 78l269 -82q-38 -88 -120 -153.5t-168 -95t-161 -29.5 v-226zM367 528q0 -102 55.5 -185t146.5 -112v607q-92 -18 -147 -107.5t-55 -202.5z" />
<glyph unicode="&#xa3;" horiz-adv-x="1120" d="M115 573v207h147q-5 10 -29 59.5t-31.5 68t-22.5 57.5t-20 70.5t-5 64.5q0 152 123 258t298 106q124 0 236.5 -57.5t187.5 -157.5l-143 -168q-51 71 -130.5 115.5t-154.5 44.5t-123.5 -48t-48.5 -120q0 -42 16 -86.5t49.5 -108.5t47.5 -98h377v-209h-330q0 -94 -40 -177 t-134 -181q79 25 154 25q51 0 142 -17.5t136 -17.5q69 0 154 33l67 -205q-111 -62 -235 -62q-62 0 -187.5 30t-191.5 30q-117 0 -260 -45l-62 194q220 184 220 395h-207z" />
<glyph unicode="&#xa5;" horiz-adv-x="1460" d="M1397 1454l-361 -631h150v-178h-246l-74 -137v-62h322v-178h-322v-268h-280v268h-318v178h318v66l-70 133h-246v178h152l-361 631h306l360 -700l363 700h307z" />
<glyph unicode="&#xa6;" horiz-adv-x="526" d="M145 541h234v-807h-234v807zM145 1587h234v-807h-234v807z" />
<glyph unicode="&#xa7;" horiz-adv-x="1091" d="M934 440q72 -65 72 -209q0 -85 -29.5 -156t-76.5 -117.5t-108 -78t-121.5 -45.5t-119.5 -14q-77 0 -149.5 21.5t-128.5 56.5t-95 68t-69 67l176 168q115 -121 254 -121q73 0 127.5 38.5t54.5 102.5q0 34 -14 57t-40.5 34t-51 15.5t-58.5 6.5q-201 13 -312.5 109.5 t-111.5 254.5q0 77 39 152q-34 32 -59 92t-25 133q0 159 127 274t305 115q68 0 130 -17.5t105.5 -42t84.5 -61.5t64.5 -66t49.5 -65l-211 -100q-28 52 -82 80.5t-124 28.5q-75 0 -123.5 -39t-48.5 -103q0 -70 45.5 -97.5t126.5 -29.5q64 -2 124 -13.5t118.5 -37.5 t101.5 -63.5t69.5 -97t26.5 -132.5q0 -54 -13 -99.5t-30 -68.5zM399 662q0 -45 20 -73.5t54.5 -40.5t69.5 -17t75.5 -10t61.5 -13q37 32 37 92q0 47 -28.5 78t-65 42t-76.5 11q-60 0 -115 19q-33 -33 -33 -88z" />
<glyph unicode="&#xa8;" horiz-adv-x="935" d="M385 1237h-227v244h227v-244zM778 1237h-227v244h227v-244z" />
<glyph unicode="&#xa9;" horiz-adv-x="1726" d="M856 -14q-162 0 -304.5 56.5t-244 154.5t-159.5 235.5t-58 294.5q0 156 58 293t159.5 234.5t244 153.5t304.5 56q166 0 311.5 -56t248.5 -153.5t162.5 -234.5t59.5 -293q0 -157 -59.5 -294.5t-162.5 -235.5t-248.5 -154.5t-311.5 -56.5zM856 88q187 0 340 80t241.5 226 t88.5 331q0 132 -51 250t-139 203t-213 134.5t-267 49.5q-184 0 -334.5 -84t-235.5 -230t-85 -323t84.5 -323t235 -230t335.5 -84zM874 238q-226 0 -371 140t-145 349q0 95 33 181t95 155t161.5 110t222.5 41q160 0 278.5 -70t174.5 -192l-266 -82q-28 58 -79.5 84.5 t-109.5 26.5q-104 0 -166.5 -73.5t-62.5 -180.5q0 -117 70 -186.5t161 -69.5q59 0 112.5 31t82.5 84l266 -80q-51 -113 -172 -190.5t-285 -77.5z" />
<glyph unicode="&#xaa;" horiz-adv-x="909" d="M328 694q-104 0 -175 67t-71 167q0 107 85.5 175t219.5 68q100 0 172 -32v39q0 68 -39 105.5t-114 37.5q-105 0 -226 -82l-61 125q140 96 305 96q160 0 247 -79t87 -228v-213q0 -31 12 -44.5t41 -14.5v-174q-55 -9 -96 -9q-106 3 -121 90l-4 39q-49 -64 -117 -98.5 t-145 -34.5zM387 842q41 0 80.5 15t62.5 40q29 26 29 53v80q-64 25 -137 25q-67 0 -109.5 -30t-42.5 -79q0 -44 33.5 -74t83.5 -30z" />
<glyph unicode="&#xab;" horiz-adv-x="1329" d="M76 457v133l538 387v-223l-321 -224l321 -211v-225zM672 457v133l540 387v-223l-323 -224l323 -211v-225z" />
<glyph unicode="&#xac;" horiz-adv-x="1259" d="M129 819h999v-602h-233v356h-766v246z" />
<glyph unicode="&#xad;" horiz-adv-x="1232" d="M1116 438h-999v248h999v-248z" />
<glyph unicode="&#xae;" horiz-adv-x="1726" d="M860 -14q-219 0 -395.5 96.5t-275.5 266t-99 378.5q0 156 58.5 293t160 234.5t244.5 153.5t307 56q219 0 397 -95.5t279.5 -264.5t101.5 -377q0 -157 -59.5 -294.5t-162.5 -235.5t-247.5 -154.5t-308.5 -56.5zM860 86q185 0 336 80.5t238.5 227t87.5 329.5 q0 178 -85.5 324.5t-237.5 230.5t-339 84q-140 0 -262.5 -49.5t-208.5 -134.5t-135 -202t-49 -249q0 -178 83.5 -324.5t234 -231.5t337.5 -85zM528 279v901h400q121 0 203.5 -93.5t82.5 -207.5q0 -86 -45 -159t-118 -102l211 -339h-220l-188 303h-131v-303h-195zM723 750 h188q52 0 82.5 34t30.5 95t-34 95t-83 34h-184v-258z" />
<glyph unicode="&#xaf;" horiz-adv-x="858" d="M737 1296h-614v170h614v-170z" />
<glyph unicode="&#xb0;" horiz-adv-x="587" d="M84 1280q0 87 59.5 145t149.5 58q92 0 151.5 -58t59.5 -145q0 -97 -59 -157t-152 -60q-91 0 -150 61t-59 156zM293 1350q-31 0 -53.5 -22.5t-22.5 -55.5q0 -31 22.5 -53.5t53.5 -22.5t53.5 22.5t22.5 53.5q0 34 -21 56t-55 22z" />
<glyph unicode="&#xb1;" horiz-adv-x="966" d="M844 57h-723v222h723v-222zM606 881h240v-219h-240v-261h-246v261h-239v219h239v260h246v-260z" />
<glyph unicode="&#xb2;" horiz-adv-x="854" d="M760 625h-697q0 166 59 254.5t208 150.5q18 7 55 21.5t56 22.5t48.5 22t45.5 26t33 28.5t24.5 35.5t7.5 41q0 54 -44.5 83t-129.5 29q-145 0 -254 -100l-102 117q38 51 139 96t240 45q163 0 249 -71.5t86 -200.5q0 -51 -18.5 -94t-44.5 -70.5t-65.5 -51t-70.5 -35.5 t-71 -24q-96 -29 -141 -72.5t-45 -93.5h432v-159z" />
<glyph unicode="&#xb3;" horiz-adv-x="835" d="M395 610q-129 0 -218 42.5t-118 119.5l88 121q10 -36 77 -76.5t167 -40.5q91 0 151 27.5t60 77.5q0 57 -80 85.5t-225 28.5h-49v150h49q274 0 274 106q0 44 -53.5 69.5t-120.5 25.5q-147 0 -231 -101l-105 131q44 57 137 89t199 32q149 0 248.5 -68t99.5 -169 q0 -71 -50.5 -118.5t-143.5 -64.5q98 -13 156.5 -74.5t58.5 -146.5q0 -80 -54.5 -137.5t-136.5 -83t-180 -25.5z" />
<glyph unicode="&#xb4;" horiz-adv-x="522" d="M463 1495l-191 -297l-176 53l111 244h256z" />
<glyph unicode="&#xb5;" horiz-adv-x="1304" d="M143 -434v1507h275v-612q0 -248 184 -248q79 0 153 50.5t119 144.5v665h275v-758q0 -43 16.5 -62t57.5 -20v-233q-68 -12 -133 -12q-71 0 -115 33t-55 92l-5 88q-39 -81 -134.5 -151t-194.5 -70q-74 0 -122 37.5t-63 82.5l19 -534h-277z" />
<glyph unicode="&#xb6;" horiz-adv-x="1335" d="M72 934q0 247 151.5 383.5t425.5 136.5h604v-205h-143v-1413h-233v590h-105v-590h-233v590q-212 1 -339.5 140t-127.5 368zM301 940q0 -135 68 -217.5t170 -91.5v618q-112 -6 -175 -89.5t-63 -219.5zM877 631v618h-105v-618h105z" />
<glyph unicode="&#xb7;" horiz-adv-x="458" d="M342 496h-225v309h225v-309z" />
<glyph unicode="&#xb8;" horiz-adv-x="667" d="M43 -360l55 100q27 -15 79 -27t104 -12q114 0 114 68q0 67 -106 67q-65 0 -164 -24l125 245l106 -32l-71 -111q24 8 65 8q77 0 125.5 -36t48.5 -107q0 -81 -67 -130.5t-195 -49.5q-121 0 -219 41z" />
<glyph unicode="&#xb9;" horiz-adv-x="610" d="M422 786h145v-159h-469v159h160v535q-25 -32 -86.5 -68t-105.5 -36v163q24 0 52 11.5t51.5 28t44 33.5t32 29.5t12.5 14.5h164v-711z" />
<glyph unicode="&#xba;" horiz-adv-x="907" d="M453 694q-116 0 -204.5 54t-132.5 140t-44 189q0 161 104 272t277 111q174 0 277.5 -110.5t103.5 -272.5q0 -103 -44 -189t-132.5 -140t-204.5 -54zM276 1075q0 -90 51 -149.5t126 -59.5q76 0 127 60t51 151t-51 150t-127 59t-126.5 -59t-50.5 -152z" />
<glyph unicode="&#xbb;" horiz-adv-x="1329" d="M1253 590v-133l-540 -363v225l323 211l-323 224v223zM657 590v-133l-540 -363v225l323 211l-323 224v223z" />
<glyph unicode="&#xbc;" horiz-adv-x="1906" d="M1706 0h-162v190h-452v158l503 516h111v-514h125v-160h-125v-190zM1550 664l-301 -314h301v314zM442 786h146v-159h-469v159h160v535q-25 -32 -87 -68t-106 -36v163q38 0 85.5 28.5t76.5 55.5t31 33h163v-711zM483 -14l-125 110l578 674l532 700l125 -110l-565 -660z" />
<glyph unicode="&#xbd;" horiz-adv-x="1961" d="M1882 0h-682q0 166 56 255t198 151q16 7 50 21t52 22t45.5 22t43 26t31.5 28.5t23 35.5t7 41q0 54 -43.5 83.5t-122.5 29.5q-136 0 -235 -103l-99 119q39 52 134 96.5t225 44.5q152 0 233.5 -71.5t81.5 -200.5q0 -51 -17.5 -93.5t-42 -69.5t-62.5 -50.5t-66 -35 t-66 -23.5q-176 -59 -176 -168h432v-160zM444 786h146v-159h-469v159h160v535q-25 -32 -87 -68t-106 -36v163q38 0 85.5 28.5t76.5 55.5t31 33h163v-711zM408 -14l-125 110l577 674l533 700l125 -110l-566 -660z" />
<glyph unicode="&#xbe;" horiz-adv-x="1935" d="M418 610q-129 0 -218 42.5t-118 119.5l88 121q10 -36 77 -76.5t167 -40.5q91 0 151 27.5t60 77.5q0 57 -80.5 85.5t-225.5 28.5h-49v150h49q275 0 275 106q0 44 -53.5 69.5t-120.5 25.5q-148 0 -232 -101l-104 131q44 57 137 89t199 32q149 0 248.5 -68t99.5 -169 q0 -71 -51 -118.5t-144 -64.5q98 -13 156.5 -74.5t58.5 -146.5q0 -80 -54.5 -137.5t-136 -83t-179.5 -25.5zM1726 0h-161v190h-453v158l504 516h110v-514h125v-160h-125v-190zM1571 664l-301 -314h301v314zM551 -14l-125 110l578 674l532 700l125 -110l-565 -660z" />
<glyph unicode="&#xbf;" horiz-adv-x="989" d="M518 559h225q0 -110 -36 -186.5t-132 -132.5q-11 -7 -47 -26.5t-59 -33t-56.5 -39t-53.5 -49.5t-35 -58t-15 -71q0 -81 57.5 -128.5t137.5 -47.5q81 0 141 48t100 116l179 -123q-53 -124 -169.5 -194t-258.5 -70q-81 0 -154.5 23.5t-135.5 70.5t-99 126.5t-37 182.5 q0 122 54 200t161 144q19 12 54.5 32t55.5 32t46.5 33t41 40.5t25 48t10.5 62.5zM512 1036h227v-282h-227v282z" />
<glyph unicode="&#xc0;" horiz-adv-x="1382" d="M303 0h-299l574 1454h229l571 -1454h-299l-133 362h-510zM895 561l-203 588l-209 -588h412zM623 1579l-191 297h254l113 -244z" />
<glyph unicode="&#xc1;" horiz-adv-x="1382" d="M303 0h-299l574 1454h229l571 -1454h-299l-133 362h-510zM895 561l-203 588l-209 -588h412zM954 1874l-190 -297l-176 53l110 244h256z" />
<glyph unicode="&#xc2;" horiz-adv-x="1382" d="M303 0h-299l574 1454h229l571 -1454h-299l-133 362h-510zM895 561l-203 588l-209 -588h412zM520 1602l-143 65l217 207h199l217 -207l-142 -65l-174 129z" />
<glyph unicode="&#xc3;" horiz-adv-x="1382" d="M303 0h-299l574 1454h229l571 -1454h-299l-133 362h-510zM895 561l-203 588l-209 -588h412zM821 1612q-52 0 -100 23t-89.5 46t-78.5 23q-26 0 -45.5 -10t-29 -22.5t-15.5 -28.5t-7 -24.5t-1 -12.5h-152q0 18 7.5 47t25.5 67t44 70.5t69 55t94 22.5q42 0 81 -15t64 -33 t59 -33t66 -15q28 0 49 10t32 23.5t18 29.5t8.5 25t1.5 14h151q0 -14 -7.5 -42t-27 -66.5t-46.5 -72.5t-72 -57.5t-99 -23.5z" />
<glyph unicode="&#xc4;" horiz-adv-x="1382" d="M303 0h-299l574 1454h229l571 -1454h-299l-133 362h-510zM895 561l-203 588l-209 -588h412zM610 1618h-227v244h227v-244zM1004 1618h-228v244h228v-244z" />
<glyph unicode="&#xc5;" horiz-adv-x="1382" d="M303 0h-299l574 1454h229l571 -1454h-299l-133 362h-510zM895 561l-203 588l-209 -588h412zM494 1716q0 74 54 116t144 42q91 0 145 -42t54 -116t-54 -115.5t-145 -41.5t-144.5 41.5t-53.5 115.5zM692 1790q-35 0 -58.5 -20.5t-23.5 -53.5q0 -31 23.5 -52.5t58.5 -21.5 q33 0 58.5 21.5t25.5 52.5q0 33 -24 53.5t-60 20.5z" />
<glyph unicode="&#xc6;" horiz-adv-x="2009" d="M-29 0l910 1454h1034v-248h-682v-342h571v-248h-571v-368h700v-248h-979v362h-467l-215 -362h-301zM608 608h326v529z" />
<glyph unicode="&#xc7;" horiz-adv-x="1374" d="M537 -360l55 100q28 -15 79 -27t103 -12q115 0 115 68q0 67 -107 67q-65 0 -164 -24l91 178q-138 10 -259.5 78.5t-204 172.5t-130 234t-47.5 262q0 107 29.5 211.5t89 197t141.5 163t195 112t241 41.5q189 0 333.5 -86t213.5 -231l-217 -150q-32 78 -91 128.5 t-119.5 69.5t-127.5 19q-97 0 -175.5 -42.5t-127.5 -112.5t-75 -154.5t-26 -173.5q0 -129 51 -241t146.5 -181t212.5 -69q66 0 129 21.5t121.5 73t89.5 126.5l231 -133q-39 -94 -120 -167.5t-180 -114t-206 -52.5l-49 -78q24 8 66 8q77 0 125.5 -36t48.5 -107 q0 -81 -67 -130.5t-195 -49.5q-121 0 -219 41z" />
<glyph unicode="&#xc8;" horiz-adv-x="1236" d="M434 248h727v-248h-1009v1454h991v-248h-709v-350h613v-229h-613v-379zM596 1579l-190 297h253l113 -244z" />
<glyph unicode="&#xc9;" horiz-adv-x="1236" d="M930 1874l-191 -297l-176 53l111 244h256zM434 248h727v-248h-1009v1454h991v-248h-709v-350h613v-229h-613v-379z" />
<glyph unicode="&#xca;" horiz-adv-x="1236" d="M494 1602l-144 65l217 207h199l217 -207l-141 -65l-174 129zM434 248h727v-248h-1009v1454h991v-248h-709v-350h613v-229h-613v-379z" />
<glyph unicode="&#xcb;" horiz-adv-x="1236" d="M584 1618h-228v244h228v-244zM977 1618h-227v244h227v-244zM434 248h727v-248h-1009v1454h991v-248h-709v-350h613v-229h-613v-379z" />
<glyph unicode="&#xcc;" horiz-adv-x="585" d="M434 0h-282v1452h282v-1452zM221 1579l-190 297h254l112 -244z" />
<glyph unicode="&#xcd;" horiz-adv-x="585" d="M434 0h-282v1452h282v-1452zM553 1874l-191 -297l-176 53l111 244h256z" />
<glyph unicode="&#xce;" horiz-adv-x="585" d="M434 0h-282v1452h282v-1452zM119 1602l-144 65l218 207h198l217 -207l-141 -65l-174 129z" />
<glyph unicode="&#xcf;" horiz-adv-x="585" d="M434 0h-282v1452h282v-1452zM209 1618h-227v244h227v-244zM602 1618h-227v244h227v-244z" />
<glyph unicode="&#xd0;" horiz-adv-x="1478" d="M690 0h-528v629h-99v205h99v620h528q173 0 311.5 -56.5t226 -156t133.5 -230t46 -282.5q0 -331 -195.5 -530t-521.5 -199zM1122 729q0 215 -115 346t-317 131h-246v-372h285v-205h-285v-381h246q203 0 317.5 134.5t114.5 346.5z" />
<glyph unicode="&#xd1;" horiz-adv-x="1562" d="M1182 0l-748 932v-932h-282v1454h219l757 -954v952h283v-1452h-229zM909 1612q-52 0 -100 23t-89.5 46t-78.5 23q-26 0 -45.5 -10t-29 -22.5t-15.5 -28.5t-7 -24.5t-1 -12.5h-152q0 18 7.5 47t25.5 67t44 70.5t69 55t94 22.5q42 0 81 -15t64 -33t59 -33t66 -15 q28 0 49 10t32 23.5t18 29.5t8.5 25t1.5 14h151q0 -14 -7.5 -42t-27 -66.5t-46.5 -72.5t-72 -57.5t-99 -23.5z" />
<glyph unicode="&#xd2;" horiz-adv-x="1515" d="M756 -10q-150 0 -280.5 62.5t-218.5 166t-138.5 236t-50.5 272.5q0 144 53 278.5t144 235.5t221 162t276 61q120 0 229 -41.5t191 -114t142.5 -166t92 -201.5t31.5 -218q0 -143 -52.5 -276.5t-142.5 -234.5t-220 -161.5t-277 -60.5zM352 727q0 -128 47.5 -237.5 t142.5 -179.5t218 -70q94 0 172 42t127.5 111.5t76.5 156t27 177.5q0 127 -48 237t-142 179t-215 69q-94 0 -172.5 -42t-128.5 -111t-77.5 -155t-27.5 -177zM690 1579l-190 297h254l112 -244z" />
<glyph unicode="&#xd3;" horiz-adv-x="1515" d="M1024 1874l-190 -297l-177 53l111 244h256zM756 -10q-150 0 -280.5 62.5t-218.5 166t-138.5 236t-50.5 272.5q0 144 53 278.5t144 235.5t221 162t276 61q120 0 229 -41.5t191 -114t142.5 -166t92 -201.5t31.5 -218q0 -143 -52.5 -276.5t-142.5 -234.5t-220 -161.5 t-277 -60.5zM352 727q0 -128 47.5 -237.5t142.5 -179.5t218 -70q94 0 172 42t127.5 111.5t76.5 156t27 177.5q0 127 -48 237t-142 179t-215 69q-94 0 -172.5 -42t-128.5 -111t-77.5 -155t-27.5 -177z" />
<glyph unicode="&#xd4;" horiz-adv-x="1515" d="M590 1602l-144 65l218 207h198l217 -207l-141 -65l-174 129zM756 -10q-150 0 -280.5 62.5t-218.5 166t-138.5 236t-50.5 272.5q0 144 53 278.5t144 235.5t221 162t276 61q120 0 229 -41.5t191 -114t142.5 -166t92 -201.5t31.5 -218q0 -143 -52.5 -276.5t-142.5 -234.5 t-220 -161.5t-277 -60.5zM352 727q0 -128 47.5 -237.5t142.5 -179.5t218 -70q94 0 172 42t127.5 111.5t76.5 156t27 177.5q0 127 -48 237t-142 179t-215 69q-94 0 -172.5 -42t-128.5 -111t-77.5 -155t-27.5 -177z" />
<glyph unicode="&#xd5;" horiz-adv-x="1515" d="M756 -10q-150 0 -280.5 62.5t-218.5 166t-138.5 236t-50.5 272.5q0 144 53 278.5t144 235.5t221 162t276 61q120 0 229 -41.5t191 -114t142.5 -166t92 -201.5t31.5 -218q0 -143 -52.5 -276.5t-142.5 -234.5t-220 -161.5t-277 -60.5zM352 727q0 -128 47.5 -237.5 t142.5 -179.5t218 -70q94 0 172 42t127.5 111.5t76.5 156t27 177.5q0 127 -48 237t-142 179t-215 69q-94 0 -172.5 -42t-128.5 -111t-77.5 -155t-27.5 -177zM891 1612q-52 0 -100 23t-89.5 46t-78.5 23q-26 0 -45.5 -10t-29 -22.5t-15.5 -28.5t-7.5 -24.5t-1.5 -12.5h-151 q0 24 13 63.5t38.5 86t75 79.5t112.5 33q53 0 100 -24t89 -48t82 -24q28 0 49 10t31.5 23.5t17.5 29.5t8.5 25t1.5 14h152q0 -14 -7.5 -42t-27 -66.5t-46.5 -72.5t-72 -57.5t-99 -23.5z" />
<glyph unicode="&#xd6;" horiz-adv-x="1515" d="M678 1618h-227v244h227v-244zM1071 1618h-227v244h227v-244zM756 -10q-150 0 -280.5 62.5t-218.5 166t-138.5 236t-50.5 272.5q0 144 53 278.5t144 235.5t221 162t276 61q120 0 229 -41.5t191 -114t142.5 -166t92 -201.5t31.5 -218q0 -143 -52.5 -276.5t-142.5 -234.5 t-220 -161.5t-277 -60.5zM352 727q0 -128 47.5 -237.5t142.5 -179.5t218 -70q94 0 172 42t127.5 111.5t76.5 156t27 177.5q0 127 -48 237t-142 179t-215 69q-94 0 -172.5 -42t-128.5 -111t-77.5 -155t-27.5 -177z" />
<glyph unicode="&#xd7;" horiz-adv-x="978" d="M659 563l213 -211l-174 -170l-211 211l-211 -211l-167 172l206 209l-200 203l174 170l200 -201l203 203l168 -172z" />
<glyph unicode="&#xd8;" horiz-adv-x="1519" d="M1114 1454h305l-157 -225q89 -104 137.5 -236.5t48.5 -269.5q0 -143 -52.5 -276.5t-142.5 -234.5t-220 -161.5t-277 -60.5q-167 0 -307 76l-46 -66h-303l154 221q-89 103 -137.5 234.5t-48.5 271.5q0 144 53 278.5t144 235.5t221 162t276 61q162 0 305 -78zM352 727 q0 -149 66 -272l502 721q-74 36 -162 36q-94 0 -172.5 -42t-128.5 -111t-77.5 -155t-27.5 -177zM1163 727q0 147 -65 268l-502 -721q69 -34 164 -34q94 0 172 42t127.5 111.5t76.5 156t27 177.5z" />
<glyph unicode="&#xd9;" horiz-adv-x="1531" d="M764 240q97 0 168.5 39.5t111 108.5t58 149.5t18.5 175.5v741h281v-741q0 -153 -37 -281t-111.5 -228.5t-199 -157t-287.5 -56.5q-135 0 -244 39.5t-181.5 106.5t-121 160t-69.5 196.5t-21 220.5v741h283v-741q0 -96 18.5 -177.5t58 -149.5t110 -107t165.5 -39zM694 1579 l-190 297h254l112 -244z" />
<glyph unicode="&#xda;" horiz-adv-x="1531" d="M1028 1874l-190 -297l-176 53l110 244h256zM764 240q97 0 168.5 39.5t111 108.5t58 149.5t18.5 175.5v741h281v-741q0 -153 -37 -281t-111.5 -228.5t-199 -157t-287.5 -56.5q-135 0 -244 39.5t-181.5 106.5t-121 160t-69.5 196.5t-21 220.5v741h283v-741 q0 -96 18.5 -177.5t58 -149.5t110 -107t165.5 -39z" />
<glyph unicode="&#xdb;" horiz-adv-x="1531" d="M592 1602l-143 65l217 207h198l217 -207l-141 -65l-174 129zM764 240q97 0 168.5 39.5t111 108.5t58 149.5t18.5 175.5v741h281v-741q0 -153 -37 -281t-111.5 -228.5t-199 -157t-287.5 -56.5q-135 0 -244 39.5t-181.5 106.5t-121 160t-69.5 196.5t-21 220.5v741h283v-741 q0 -96 18.5 -177.5t58 -149.5t110 -107t165.5 -39z" />
<glyph unicode="&#xdc;" horiz-adv-x="1531" d="M682 1618h-227v244h227v-244zM1075 1618h-227v244h227v-244zM764 240q97 0 168.5 39.5t111 108.5t58 149.5t18.5 175.5v741h281v-741q0 -153 -37 -281t-111.5 -228.5t-199 -157t-287.5 -56.5q-135 0 -244 39.5t-181.5 106.5t-121 160t-69.5 196.5t-21 220.5v741h283v-741 q0 -96 18.5 -177.5t58 -149.5t110 -107t165.5 -39z" />
<glyph unicode="&#xdd;" horiz-adv-x="1318" d="M-8 1454h307l358 -700l365 700h305l-528 -946v-508h-281v512zM920 1874l-191 -297l-176 53l111 244h256z" />
<glyph unicode="&#xde;" horiz-adv-x="1241" d="M733 1192q97 0 184.5 -42t148 -109.5t95.5 -154.5t35 -177q0 -126 -56 -236t-160.5 -179t-234.5 -69h-311v-225h-282v1454h282v-262h299zM731 473q79 0 131.5 69t52.5 167q0 99 -59 167t-137 68h-285v-471h297z" />
<glyph unicode="&#xdf;" horiz-adv-x="1142" d="M504 -12v252q133 2 212 57t79 164q0 102 -68.5 161.5t-165.5 59.5h-41v246h39q73 0 115.5 41.5t42.5 109.5q0 54 -28 89.5t-62.5 48t-71.5 12.5q-89 0 -130.5 -62.5t-41.5 -144.5v-1022h-260v1069q0 171 129 282t323 111q175 0 288.5 -91.5t113.5 -244.5q0 -104 -52 -190 t-126 -113q132 -37 208 -141.5t76 -251.5q0 -91 -31 -165t-84.5 -124t-128 -84.5t-158 -50.5t-177.5 -18z" />
<glyph unicode="&#xe0;" horiz-adv-x="1183" d="M418 -20q-157 0 -262 96.5t-105 242.5q0 153 128 250t329 97q154 0 262 -48v62q0 107 -61 164t-179 57q-161 0 -335 -121l-84 174q209 138 446 138q231 0 359 -115t128 -328v-334q0 -43 17 -61.5t57 -20.5v-233q-71 -14 -131 -14q-147 3 -170 127l-6 59 q-72 -93 -173.5 -142.5t-219.5 -49.5zM496 180q69 0 131.5 24.5t97.5 65.5q45 36 45 78v123q-108 41 -217 41q-105 0 -173.5 -48t-68.5 -122q0 -69 53.5 -115.5t131.5 -46.5zM487 1198l-190 297h254l113 -244z" />
<glyph unicode="&#xe1;" horiz-adv-x="1183" d="M418 -20q-157 0 -262 96.5t-105 242.5q0 153 128 250t329 97q154 0 262 -48v62q0 107 -61 164t-179 57q-161 0 -335 -121l-84 174q209 138 446 138q231 0 359 -115t128 -328v-334q0 -43 17 -61.5t57 -20.5v-233q-71 -14 -131 -14q-147 3 -170 127l-6 59 q-72 -93 -173.5 -142.5t-219.5 -49.5zM496 180q69 0 131.5 24.5t97.5 65.5q45 36 45 78v123q-108 41 -217 41q-105 0 -173.5 -48t-68.5 -122q0 -69 53.5 -115.5t131.5 -46.5zM819 1495l-190 -297l-176 53l110 244h256z" />
<glyph unicode="&#xe2;" horiz-adv-x="1183" d="M418 -20q-157 0 -262 96.5t-105 242.5q0 153 128 250t329 97q154 0 262 -48v62q0 107 -61 164t-179 57q-161 0 -335 -121l-84 174q209 138 446 138q231 0 359 -115t128 -328v-334q0 -43 17 -61.5t57 -20.5v-233q-71 -14 -131 -14q-147 3 -170 127l-6 59 q-72 -93 -173.5 -142.5t-219.5 -49.5zM496 180q69 0 131.5 24.5t97.5 65.5q45 36 45 78v123q-108 41 -217 41q-105 0 -173.5 -48t-68.5 -122q0 -69 53.5 -115.5t131.5 -46.5zM385 1223l-143 65l217 207h198l217 -207l-141 -65l-174 129z" />
<glyph unicode="&#xe3;" horiz-adv-x="1183" d="M418 -20q-157 0 -262 96.5t-105 242.5q0 153 128 250t329 97q154 0 262 -48v62q0 107 -61 164t-179 57q-161 0 -335 -121l-84 174q209 138 446 138q231 0 359 -115t128 -328v-334q0 -43 17 -61.5t57 -20.5v-233q-71 -14 -131 -14q-147 3 -170 127l-6 59 q-72 -93 -173.5 -142.5t-219.5 -49.5zM496 180q69 0 131.5 24.5t97.5 65.5q45 36 45 78v123q-108 41 -217 41q-105 0 -173.5 -48t-68.5 -122q0 -69 53.5 -115.5t131.5 -46.5zM686 1233q-52 0 -100 23t-89.5 46t-78.5 23q-26 0 -45.5 -10t-29 -22.5t-15.5 -28.5t-7.5 -24.5 t-1.5 -12.5h-151q0 18 7.5 47t25.5 67t44 70.5t69 55t94 22.5q42 0 81 -15t64 -33t59 -33t66 -15q28 0 49 10t31.5 23.5t17.5 29.5t8.5 25t1.5 14h152q0 -14 -7.5 -42t-27 -66.5t-46.5 -72.5t-72 -57.5t-99 -23.5z" />
<glyph unicode="&#xe4;" horiz-adv-x="1183" d="M418 -20q-157 0 -262 96.5t-105 242.5q0 153 128 250t329 97q154 0 262 -48v62q0 107 -61 164t-179 57q-161 0 -335 -121l-84 174q209 138 446 138q231 0 359 -115t128 -328v-334q0 -43 17 -61.5t57 -20.5v-233q-71 -14 -131 -14q-147 3 -170 127l-6 59 q-72 -93 -173.5 -142.5t-219.5 -49.5zM496 180q69 0 131.5 24.5t97.5 65.5q45 36 45 78v123q-108 41 -217 41q-105 0 -173.5 -48t-68.5 -122q0 -69 53.5 -115.5t131.5 -46.5zM475 1237h-227v244h227v-244zM868 1237h-227v244h227v-244z" />
<glyph unicode="&#xe5;" horiz-adv-x="1183" d="M418 -20q-157 0 -262 96.5t-105 242.5q0 153 128 250t329 97q154 0 262 -48v62q0 107 -61 164t-179 57q-161 0 -335 -121l-84 174q209 138 446 138q231 0 359 -115t128 -328v-334q0 -43 17 -61.5t57 -20.5v-233q-71 -14 -131 -14q-147 3 -170 127l-6 59 q-72 -93 -173.5 -142.5t-219.5 -49.5zM496 180q69 0 131.5 24.5t97.5 65.5q45 36 45 78v123q-108 41 -217 41q-105 0 -173.5 -48t-68.5 -122q0 -69 53.5 -115.5t131.5 -46.5zM358 1337q0 74 54 116t145 42t145 -42t54 -116t-54 -115.5t-145 -41.5t-145 41.5t-54 115.5z M557 1411q-35 0 -58.5 -20.5t-23.5 -53.5q0 -31 23.5 -52t58.5 -21q33 0 58.5 21t25.5 52q0 33 -24 53.5t-60 20.5z" />
<glyph unicode="&#xe6;" horiz-adv-x="1921" d="M420 -20q-157 0 -262 96.5t-105 242.5q0 153 128 250t329 97q142 0 242 -41q5 57 16 90q-18 186 -236 186q-160 0 -337 -121l-82 174q209 138 446 138q248 0 375 -152q149 152 381 152q170 0 299.5 -77t196 -202t67.5 -276q0 -53 -6 -88h-840q9 -122 93.5 -195.5 t201.5 -73.5q83 0 155.5 40.5t98.5 105.5l236 -66q-60 -126 -193 -203t-307 -77q-149 0 -267.5 59t-191.5 162q-69 -109 -191.5 -165t-246.5 -56zM498 180q69 0 131.5 24.5t99.5 65.5q43 34 43 74q-13 26 -20 133q-103 35 -197 35q-106 0 -175 -48t-69 -122 q0 -69 54.5 -115.5t132.5 -46.5zM1028 618h567q-11 123 -89 199t-195 76t-195.5 -76t-87.5 -199z" />
<glyph unicode="&#xe7;" horiz-adv-x="1159" d="M408 -360l55 100q28 -15 79 -27t103 -12q115 0 115 68q0 67 -107 67q-65 0 -164 -24l86 170q-155 12 -274 91.5t-180.5 200.5t-61.5 263q0 151 67.5 276t198 202t300.5 77t296 -74t189 -201l-268 -82q-34 58 -92 90.5t-127 32.5q-120 0 -200.5 -90t-80.5 -231 q0 -139 82 -231.5t199 -92.5q73 0 135.5 36t87.5 91l268 -82q-52 -113 -162.5 -187t-259.5 -87l-43 -70q24 8 66 8q77 0 125.5 -36t48.5 -107q0 -81 -67 -130.5t-195 -49.5q-121 0 -219 41z" />
<glyph unicode="&#xe8;" horiz-adv-x="1228" d="M623 -20q-168 0 -299 76t-199 200.5t-68 273.5q0 153 68 280.5t199 204.5t301 77q128 0 234.5 -45t177 -121.5t109 -175.5t38.5 -209q0 -57 -6 -92h-830q10 -122 92 -195.5t193 -73.5q83 0 155.5 40.5t98.5 105.5l235 -66q-60 -126 -192.5 -203t-306.5 -77zM344 627h557 q-10 119 -88.5 192.5t-191.5 73.5q-112 0 -190 -73.5t-87 -192.5zM549 1198l-191 297h254l113 -244z" />
<glyph unicode="&#xe9;" horiz-adv-x="1228" d="M881 1495l-191 -297l-176 53l111 244h256zM623 -20q-168 0 -299 76t-199 200.5t-68 273.5q0 153 68 280.5t199 204.5t301 77q128 0 234.5 -45t177 -121.5t109 -175.5t38.5 -209q0 -57 -6 -92h-830q10 -122 92 -195.5t193 -73.5q83 0 155.5 40.5t98.5 105.5l235 -66 q-60 -126 -192.5 -203t-306.5 -77zM344 627h557q-10 119 -88.5 192.5t-191.5 73.5q-112 0 -190 -73.5t-87 -192.5z" />
<glyph unicode="&#xea;" horiz-adv-x="1228" d="M446 1223l-143 65l217 207h199l217 -207l-141 -65l-174 129zM623 -20q-168 0 -299 76t-199 200.5t-68 273.5q0 153 68 280.5t199 204.5t301 77q128 0 234.5 -45t177 -121.5t109 -175.5t38.5 -209q0 -57 -6 -92h-830q10 -122 92 -195.5t193 -73.5q83 0 155.5 40.5 t98.5 105.5l235 -66q-60 -126 -192.5 -203t-306.5 -77zM344 627h557q-10 119 -88.5 192.5t-191.5 73.5q-112 0 -190 -73.5t-87 -192.5z" />
<glyph unicode="&#xeb;" horiz-adv-x="1228" d="M537 1237h-228v244h228v-244zM930 1237h-228v244h228v-244zM623 -20q-168 0 -299 76t-199 200.5t-68 273.5q0 153 68 280.5t199 204.5t301 77q128 0 234.5 -45t177 -121.5t109 -175.5t38.5 -209q0 -57 -6 -92h-830q10 -122 92 -195.5t193 -73.5q83 0 155.5 40.5 t98.5 105.5l235 -66q-60 -126 -192.5 -203t-306.5 -77zM344 627h557q-10 119 -88.5 192.5t-191.5 73.5q-112 0 -190 -73.5t-87 -192.5z" />
<glyph unicode="&#xec;" d="M397 0h-274v1073h274v-1073zM188 1198l-190 297h254l113 -244z" />
<glyph unicode="&#xed;" d="M520 1495l-190 -297l-176 53l110 244h256zM397 0h-274v1073h274v-1073z" />
<glyph unicode="&#xee;" d="M86 1223l-143 65l217 207h198l217 -207l-141 -65l-174 129zM397 0h-274v1073h274v-1073z" />
<glyph unicode="&#xef;" d="M176 1237h-227v244h227v-244zM569 1237h-227v244h227v-244zM397 0h-274v1073h274v-1073z" />
<glyph unicode="&#xf0;" horiz-adv-x="1255" d="M997 1460l78 -108l-145 -80q127 -145 192.5 -324t65.5 -354q0 -281 -159 -447.5t-411 -166.5q-155 0 -282 64.5t-200 178.5t-73 254q0 133 66 246t179.5 178.5t248.5 65.5q106 0 199 -43.5t151 -116.5q-47 211 -184 369l-193 -107l-77 107l172 96q-137 121 -328 223h352 q104 -55 187 -129zM344 479q0 -114 80 -190t199 -76q122 0 203 78.5t81 193.5q0 113 -79.5 186.5t-200.5 73.5t-202 -76t-81 -190z" />
<glyph unicode="&#xf1;" horiz-adv-x="1232" d="M1120 670v-670h-274v602q0 248 -170 248q-85 0 -167 -64t-112 -159v-627h-274v1073h248v-199q60 102 173 160t253 58q78 0 136.5 -24.5t93.5 -63.5t56.5 -96t29 -113.5t7.5 -124.5zM774 1233q-52 0 -100 23t-89.5 46t-78.5 23q-26 0 -45.5 -10t-29 -22.5t-15.5 -28.5 t-7 -24.5t-1 -12.5h-152q0 18 7.5 47t25.5 67t44 70.5t69 55t94 22.5q42 0 81 -15t64 -33t59 -33t66 -15q28 0 49 10t31.5 23.5t17.5 29.5t8.5 25t1.5 14h152q0 -14 -7.5 -42t-27 -66.5t-46.5 -72.5t-72 -57.5t-99 -23.5z" />
<glyph unicode="&#xf2;" horiz-adv-x="1239" d="M621 -20q-103 0 -193 29.5t-157 81.5t-116 121.5t-73.5 152t-24.5 170.5q0 112 40 213t111 177.5t178.5 121.5t234.5 45q169 0 298.5 -77.5t196 -203t66.5 -276.5q0 -111 -39 -211.5t-109.5 -177t-177.5 -121.5t-235 -45zM340 535q0 -140 80.5 -231t200.5 -91 q119 0 199.5 92t80.5 232q0 139 -80.5 230t-199.5 91t-200 -92t-81 -231zM551 1198l-191 297h254l113 -244z" />
<glyph unicode="&#xf3;" horiz-adv-x="1239" d="M881 1495l-191 -297l-176 53l111 244h256zM621 -20q-103 0 -193 29.5t-157 81.5t-116 121.5t-73.5 152t-24.5 170.5q0 112 40 213t111 177.5t178.5 121.5t234.5 45q169 0 298.5 -77.5t196 -203t66.5 -276.5q0 -111 -39 -211.5t-109.5 -177t-177.5 -121.5t-235 -45z M340 535q0 -140 80.5 -231t200.5 -91q119 0 199.5 92t80.5 232q0 139 -80.5 230t-199.5 91t-200 -92t-81 -231z" />
<glyph unicode="&#xf4;" horiz-adv-x="1239" d="M446 1223l-143 65l217 207h199l217 -207l-141 -65l-174 129zM621 -20q-103 0 -193 29.5t-157 81.5t-116 121.5t-73.5 152t-24.5 170.5q0 112 40 213t111 177.5t178.5 121.5t234.5 45q169 0 298.5 -77.5t196 -203t66.5 -276.5q0 -111 -39 -211.5t-109.5 -177 t-177.5 -121.5t-235 -45zM340 535q0 -140 80.5 -231t200.5 -91q119 0 199.5 92t80.5 232q0 139 -80.5 230t-199.5 91t-200 -92t-81 -231z" />
<glyph unicode="&#xf5;" horiz-adv-x="1239" d="M621 -20q-103 0 -193 29.5t-157 81.5t-116 121.5t-73.5 152t-24.5 170.5q0 112 40 213t111 177.5t178.5 121.5t234.5 45q169 0 298.5 -77.5t196 -203t66.5 -276.5q0 -111 -39 -211.5t-109.5 -177t-177.5 -121.5t-235 -45zM340 535q0 -140 80.5 -231t200.5 -91 q119 0 199.5 92t80.5 232q0 139 -80.5 230t-199.5 91t-200 -92t-81 -231zM750 1233q-52 0 -100.5 23t-90 46t-78.5 23q-26 0 -45.5 -10t-29 -22.5t-15.5 -28.5t-7 -24.5t-1 -12.5h-152q0 18 7.5 47t25.5 67t44 70.5t69 55t94 22.5q42 0 81 -15t64 -33t59 -33t66 -15 q28 0 49 10t32 23.5t18 29.5t8.5 25t1.5 14h151q0 -11 -5.5 -33t-17 -52t-32 -60.5t-46.5 -57t-65.5 -43t-84.5 -16.5z" />
<glyph unicode="&#xf6;" horiz-adv-x="1239" d="M537 1237h-228v244h228v-244zM930 1237h-228v244h228v-244zM621 -20q-103 0 -193 29.5t-157 81.5t-116 121.5t-73.5 152t-24.5 170.5q0 112 40 213t111 177.5t178.5 121.5t234.5 45q169 0 298.5 -77.5t196 -203t66.5 -276.5q0 -111 -39 -211.5t-109.5 -177t-177.5 -121.5 t-235 -45zM340 535q0 -140 80.5 -231t200.5 -91q119 0 199.5 92t80.5 232q0 139 -80.5 230t-199.5 91t-200 -92t-81 -231z" />
<glyph unicode="&#xf7;" horiz-adv-x="1042" d="M637 858h-231v262h231v-262zM637 98h-231v264h231v-264zM934 500h-825v219h825v-219z" />
<glyph unicode="&#xf8;" horiz-adv-x="1239" d="M102 -8l119 139q-79 78 -121.5 182.5t-42.5 221.5q0 112 40 213t111 177.5t178.5 121.5t234.5 45q161 0 294 -76l56 65h155l-114 -137q82 -76 126 -182.5t44 -226.5q0 -111 -39 -211.5t-109.5 -177t-177.5 -121.5t-235 -45q-176 0 -306 79l-57 -67h-156zM621 213 q119 0 199.5 92t80.5 232q0 116 -59 204l-371 -483q67 -45 150 -45zM340 535q0 -118 55 -201l367 483q-62 41 -141 41q-119 0 -200 -92t-81 -231z" />
<glyph unicode="&#xf9;" horiz-adv-x="1273" d="M451 -20q-166 0 -252 107t-86 314v672h274v-612q0 -248 178 -248q85 0 159 50t120 145v665h274v-758q0 -43 16.5 -62t57.5 -20v-233q-80 -14 -133 -14q-72 0 -115.5 33.5t-52.5 93.5l-6 88q-73 -109 -184.5 -165t-249.5 -56zM545 1198l-191 297h254l113 -244z" />
<glyph unicode="&#xfa;" horiz-adv-x="1273" d="M874 1495l-190 -297l-176 53l110 244h256zM451 -20q-166 0 -252 107t-86 314v672h274v-612q0 -248 178 -248q85 0 159 50t120 145v665h274v-758q0 -43 16.5 -62t57.5 -20v-233q-80 -14 -133 -14q-72 0 -115.5 33.5t-52.5 93.5l-6 88q-73 -109 -184.5 -165t-249.5 -56z " />
<glyph unicode="&#xfb;" horiz-adv-x="1273" d="M440 1223l-143 65l217 207h199l217 -207l-142 -65l-174 129zM451 -20q-166 0 -252 107t-86 314v672h274v-612q0 -248 178 -248q85 0 159 50t120 145v665h274v-758q0 -43 16.5 -62t57.5 -20v-233q-80 -14 -133 -14q-72 0 -115.5 33.5t-52.5 93.5l-6 88 q-73 -109 -184.5 -165t-249.5 -56z" />
<glyph unicode="&#xfc;" horiz-adv-x="1273" d="M530 1237h-227v244h227v-244zM924 1237h-228v244h228v-244zM451 -20q-166 0 -252 107t-86 314v672h274v-612q0 -248 178 -248q85 0 159 50t120 145v665h274v-758q0 -43 16.5 -62t57.5 -20v-233q-80 -14 -133 -14q-72 0 -115.5 33.5t-52.5 93.5l-6 88 q-73 -109 -184.5 -165t-249.5 -56z" />
<glyph unicode="&#xfd;" horiz-adv-x="1114" d="M137 -446v237q63 -18 121 -18q55 0 90 45.5t78 181.5l-426 1073h283l292 -835l259 835h258l-453 -1286q-43 -121 -137 -188.5t-219 -67.5q-69 0 -146 23zM838 1495l-191 -297l-176 53l111 244h256z" />
<glyph unicode="&#xfe;" horiz-adv-x="1228" d="M1174 524q-1 -150 -73.5 -282t-197 -211.5t-268.5 -79.5q-86 0 -146.5 31.5t-85.5 72.5v-491h-280v1890h280v-465q79 115 248 115q93 0 176.5 -33.5t145.5 -91t108 -132t69.5 -157.5t23.5 -166zM891 528q0 137 -70 232.5t-186 95.5q-144 0 -232 -168v-328q0 -57 73 -109 t151 -52q114 0 189 96t75 233z" />
<glyph unicode="&#xff;" horiz-adv-x="1114" d="M137 -446v237q63 -18 121 -18q55 0 90 45.5t78 181.5l-426 1073h283l292 -835l259 835h258l-453 -1286q-43 -121 -137 -188.5t-219 -67.5q-69 0 -146 23zM494 1237h-228v244h228v-244zM887 1237h-228v244h228v-244z" />
<glyph unicode="&#x100;" horiz-adv-x="1382" d="M303 0h-299l574 1454h229l571 -1454h-299l-133 362h-510zM895 561l-203 588l-209 -588h412zM1001 1675h-614v170h614v-170z" />
<glyph unicode="&#x101;" horiz-adv-x="1183" d="M418 -20q-157 0 -262 96.5t-105 242.5q0 153 128 250t329 97q154 0 262 -48v62q0 107 -61 164t-179 57q-161 0 -335 -121l-84 174q209 138 446 138q231 0 359 -115t128 -328v-334q0 -43 17 -61.5t57 -20.5v-233q-71 -14 -131 -14q-147 3 -170 127l-6 59 q-72 -93 -173.5 -142.5t-219.5 -49.5zM496 180q69 0 131.5 24.5t97.5 65.5q45 36 45 78v123q-108 41 -217 41q-105 0 -173.5 -48t-68.5 -122q0 -69 53.5 -115.5t131.5 -46.5zM866 1296h-614v170h614v-170z" />
<glyph unicode="&#x102;" horiz-adv-x="1382" d="M303 0h-299l574 1454h229l571 -1454h-299l-133 362h-510zM895 561l-203 588l-209 -588h412zM692 1722q46 0 81.5 43.5t41.5 108.5h146q0 -119 -76 -197t-193 -78t-192.5 78t-75.5 197h147q0 -61 36.5 -106.5t84.5 -45.5z" />
<glyph unicode="&#x103;" horiz-adv-x="1183" d="M418 -20q-157 0 -262 96.5t-105 242.5q0 153 128 250t329 97q154 0 262 -48v62q0 107 -61 164t-179 57q-161 0 -335 -121l-84 174q209 138 446 138q231 0 359 -115t128 -328v-334q0 -43 17 -61.5t57 -20.5v-233q-71 -14 -131 -14q-147 3 -170 127l-6 59 q-72 -93 -173.5 -142.5t-219.5 -49.5zM496 180q69 0 131.5 24.5t97.5 65.5q45 36 45 78v123q-108 41 -217 41q-105 0 -173.5 -48t-68.5 -122q0 -69 53.5 -115.5t131.5 -46.5zM557 1343q46 0 81.5 43.5t41.5 108.5h145q0 -119 -75.5 -196.5t-192.5 -77.5t-192.5 77.5 t-75.5 196.5h147q0 -61 36.5 -106.5t84.5 -45.5z" />
<glyph unicode="&#x104;" horiz-adv-x="1382" d="M1280 -401q-104 17 -160.5 65t-56.5 113q0 118 166 223h-150l-133 362h-510l-133 -362h-299l574 1454h229l571 -1454q-168 -99 -168 -184q0 -76 127 -82zM895 561l-203 588l-209 -588h412z" />
<glyph unicode="&#x105;" horiz-adv-x="1183" d="M1020 -401q-104 17 -160.5 65t-56.5 113q0 112 149 213q-116 14 -135 123l-6 59q-72 -93 -173.5 -142.5t-219.5 -49.5q-157 0 -262 96.5t-105 242.5q0 153 128 250t329 97q154 0 262 -48v62q0 107 -61 164t-179 57q-161 0 -335 -121l-84 174q209 138 446 138 q231 0 359 -115t128 -328v-334q0 -43 17 -61.5t57 -20.5v-233q-168 -99 -168 -184q0 -76 127 -82zM496 180q69 0 131.5 24.5t97.5 65.5q45 36 45 78v123q-108 41 -217 41q-105 0 -173.5 -48t-68.5 -122q0 -69 53.5 -115.5t131.5 -46.5z" />
<glyph unicode="&#x106;" horiz-adv-x="1372" d="M1022 1874l-191 -297l-176 53l111 244h256zM66 737q0 107 29.5 211.5t89 197t141.5 163t195 112t241 41.5q189 0 333.5 -86t213.5 -231l-217 -150q-32 78 -91 128.5t-119.5 69.5t-127.5 19q-97 0 -175.5 -42.5t-127.5 -112.5t-75 -154.5t-26 -173.5q0 -129 51 -241 t146.5 -181t212.5 -69q66 0 129 21.5t121.5 73t89.5 126.5l231 -133q-42 -104 -138 -183t-210.5 -117t-230.5 -38q-118 0 -226 42t-190 115.5t-144 168t-94 204t-32 219.5z" />
<glyph unicode="&#x107;" horiz-adv-x="1155" d="M883 1495l-191 -297l-176 53l111 244h256zM57 537q0 151 67.5 276t198 202t300.5 77t296 -74t189 -201l-268 -82q-34 58 -92 90.5t-127 32.5q-120 0 -200.5 -90t-80.5 -231q0 -139 82 -231.5t199 -92.5q73 0 135.5 36t87.5 91l268 -82q-57 -125 -186 -201.5t-301 -76.5 q-127 0 -235 45.5t-180 122t-112.5 177.5t-40.5 212z" />
<glyph unicode="&#x108;" horiz-adv-x="1372" d="M588 1602l-144 65l218 207h198l217 -207l-141 -65l-174 129zM66 737q0 107 29.5 211.5t89 197t141.5 163t195 112t241 41.5q189 0 333.5 -86t213.5 -231l-217 -150q-32 78 -91 128.5t-119.5 69.5t-127.5 19q-97 0 -175.5 -42.5t-127.5 -112.5t-75 -154.5t-26 -173.5 q0 -129 51 -241t146.5 -181t212.5 -69q66 0 129 21.5t121.5 73t89.5 126.5l231 -133q-42 -104 -138 -183t-210.5 -117t-230.5 -38q-118 0 -226 42t-190 115.5t-144 168t-94 204t-32 219.5z" />
<glyph unicode="&#x109;" horiz-adv-x="1155" d="M449 1223l-144 65l217 207h199l217 -207l-141 -65l-174 129zM57 537q0 151 67.5 276t198 202t300.5 77t296 -74t189 -201l-268 -82q-34 58 -92 90.5t-127 32.5q-120 0 -200.5 -90t-80.5 -231q0 -139 82 -231.5t199 -92.5q73 0 135.5 36t87.5 91l268 -82 q-57 -125 -186 -201.5t-301 -76.5q-127 0 -235 45.5t-180 122t-112.5 177.5t-40.5 212z" />
<glyph unicode="&#x10a;" horiz-adv-x="1372" d="M66 737q0 107 29.5 211.5t89 197t141.5 163t195 112t241 41.5q189 0 333.5 -86t213.5 -231l-217 -150q-32 78 -91 128.5t-119.5 69.5t-127.5 19q-97 0 -175.5 -42.5t-127.5 -112.5t-75 -154.5t-26 -173.5q0 -129 51 -241t146.5 -181t212.5 -69q66 0 129 21.5t121.5 73 t89.5 126.5l231 -133q-42 -104 -138 -183t-210.5 -117t-230.5 -38q-118 0 -226 42t-190 115.5t-144 168t-94 204t-32 219.5zM885 1616h-248v258h248v-258z" />
<glyph unicode="&#x10b;" horiz-adv-x="1155" d="M57 537q0 151 67.5 276t198 202t300.5 77t296 -74t189 -201l-268 -82q-34 58 -92 90.5t-127 32.5q-120 0 -200.5 -90t-80.5 -231q0 -139 82 -231.5t199 -92.5q73 0 135.5 36t87.5 91l268 -82q-57 -125 -186 -201.5t-301 -76.5q-127 0 -235 45.5t-180 122t-112.5 177.5 t-40.5 212zM745 1237h-247v258h247v-258z" />
<glyph unicode="&#x10c;" horiz-adv-x="1372" d="M444 1808l144 66l174 -129l174 129l141 -66l-217 -206h-198zM66 737q0 107 29.5 211.5t89 197t141.5 163t195 112t241 41.5q189 0 333.5 -86t213.5 -231l-217 -150q-32 78 -91 128.5t-119.5 69.5t-127.5 19q-97 0 -175.5 -42.5t-127.5 -112.5t-75 -154.5t-26 -173.5 q0 -129 51 -241t146.5 -181t212.5 -69q66 0 129 21.5t121.5 73t89.5 126.5l231 -133q-42 -104 -138 -183t-210.5 -117t-230.5 -38q-118 0 -226 42t-190 115.5t-144 168t-94 204t-32 219.5z" />
<glyph unicode="&#x10d;" horiz-adv-x="1155" d="M305 1430l144 65l174 -129l174 129l141 -65l-217 -207h-199zM57 537q0 151 67.5 276t198 202t300.5 77t296 -74t189 -201l-268 -82q-34 58 -92 90.5t-127 32.5q-120 0 -200.5 -90t-80.5 -231q0 -139 82 -231.5t199 -92.5q73 0 135.5 36t87.5 91l268 -82 q-57 -125 -186 -201.5t-301 -76.5q-127 0 -235 45.5t-180 122t-112.5 177.5t-40.5 212z" />
<glyph unicode="&#x10e;" horiz-adv-x="1470" d="M358 1808l144 66l174 -129l174 129l141 -66l-217 -206h-199zM680 0h-528v1454h528q173 0 311.5 -56.5t226 -156t133.5 -230t46 -282.5q0 -331 -195.5 -530t-521.5 -199zM1112 729q0 215 -115 346t-317 131h-246v-958h246q203 0 317.5 134.5t114.5 346.5z" />
<glyph unicode="&#x10f;" horiz-adv-x="1329" d="M1597 1495l-190 -297l-176 53l110 244h256zM567 -20q-146 0 -262.5 74t-181 201.5t-64.5 281.5q0 153 60.5 280t171 201t248.5 74q114 0 210 -57t150 -150v610h275v-1180q0 -43 16.5 -62t56.5 -20v-233q-77 -14 -131 -14q-74 1 -117.5 34.5t-52.5 92.5l-6 73 q-57 -99 -157 -152.5t-216 -53.5zM639 213q79 0 156 51.5t106 128.5v256q-34 89 -113.5 149t-164.5 60q-121 0 -201 -97.5t-80 -230.5q0 -134 85 -225.5t212 -91.5z" />
<glyph unicode="&#x110;" horiz-adv-x="1478" d="M690 0h-528v629h-99v205h99v620h528q173 0 311.5 -56.5t226 -156t133.5 -230t46 -282.5q0 -331 -195.5 -530t-521.5 -199zM1122 729q0 215 -115 346t-317 131h-246v-372h285v-205h-285v-381h246q203 0 317.5 134.5t114.5 346.5z" />
<glyph unicode="&#x111;" horiz-adv-x="1329" d="M567 -20q-146 0 -262.5 74t-181 201.5t-64.5 281.5q0 153 60.5 280t171 201t248.5 74q114 0 210 -57t150 -150v338h-203v161h203v111h275v-111h131v-161h-131v-908q0 -43 16.5 -62t56.5 -20v-233q-77 -14 -131 -14q-74 1 -117.5 34.5t-52.5 92.5l-6 73 q-57 -99 -157 -152.5t-216 -53.5zM639 213q79 0 156 51.5t106 128.5v256q-34 89 -113.5 149t-164.5 60q-121 0 -201 -97.5t-80 -230.5q0 -134 85 -225.5t212 -91.5z" />
<glyph unicode="&#x112;" horiz-adv-x="1236" d="M434 248h727v-248h-1009v1454h991v-248h-709v-350h613v-229h-613v-379zM977 1675h-615v170h615v-170z" />
<glyph unicode="&#x113;" horiz-adv-x="1228" d="M623 -20q-168 0 -299 76t-199 200.5t-68 273.5q0 153 68 280.5t199 204.5t301 77q128 0 234.5 -45t177 -121.5t109 -175.5t38.5 -209q0 -57 -6 -92h-830q10 -122 92 -195.5t193 -73.5q83 0 155.5 40.5t98.5 105.5l235 -66q-60 -126 -192.5 -203t-306.5 -77zM344 627h557 q-10 119 -88.5 192.5t-191.5 73.5q-112 0 -190 -73.5t-87 -192.5zM928 1296h-615v170h615v-170z" />
<glyph unicode="&#x114;" horiz-adv-x="1236" d="M434 248h727v-248h-1009v1454h991v-248h-709v-350h613v-229h-613v-379zM668 1722q46 0 81.5 43.5t41.5 108.5h145q0 -119 -75.5 -197t-192.5 -78t-193 78t-76 197h148q0 -61 36.5 -106.5t84.5 -45.5z" />
<glyph unicode="&#x115;" horiz-adv-x="1228" d="M623 -20q-168 0 -299 76t-199 200.5t-68 273.5q0 153 68 280.5t199 204.5t301 77q128 0 234.5 -45t177 -121.5t109 -175.5t38.5 -209q0 -57 -6 -92h-830q10 -122 92 -195.5t193 -73.5q83 0 155.5 40.5t98.5 105.5l235 -66q-60 -126 -192.5 -203t-306.5 -77zM344 627h557 q-10 119 -88.5 192.5t-191.5 73.5q-112 0 -190 -73.5t-87 -192.5zM618 1343q46 0 81.5 43.5t41.5 108.5h146q0 -119 -76 -196.5t-193 -77.5t-192.5 77.5t-75.5 196.5h148q0 -61 36 -106.5t84 -45.5z" />
<glyph unicode="&#x116;" horiz-adv-x="1236" d="M434 248h727v-248h-1009v1454h991v-248h-709v-350h613v-229h-613v-379zM793 1616h-248v258h248v-258z" />
<glyph unicode="&#x117;" horiz-adv-x="1228" d="M623 -20q-168 0 -299 76t-199 200.5t-68 273.5q0 153 68 280.5t199 204.5t301 77q128 0 234.5 -45t177 -121.5t109 -175.5t38.5 -209q0 -57 -6 -92h-830q10 -122 92 -195.5t193 -73.5q83 0 155.5 40.5t98.5 105.5l235 -66q-60 -126 -192.5 -203t-306.5 -77zM344 627h557 q-10 119 -88.5 192.5t-191.5 73.5q-112 0 -190 -73.5t-87 -192.5zM743 1237h-247v258h247v-258z" />
<glyph unicode="&#x118;" horiz-adv-x="1236" d="M434 248h727v-248h-428q-168 -99 -168 -184q0 -76 127 -82l-57 -135q-104 17 -160.5 65t-56.5 113q0 118 166 223h-432v1454h991v-248h-709v-350h613v-229h-613v-379z" />
<glyph unicode="&#x119;" horiz-adv-x="1232" d="M666 -406q-104 17 -160.5 65.5t-56.5 113.5q0 108 143 209q-160 7 -282.5 83.5t-186.5 198t-64 266.5q0 153 68 280.5t199 204.5t301 77q128 0 234.5 -45t177 -121.5t109 -175.5t38.5 -209q0 -57 -6 -92h-830q10 -122 92 -195.5t193 -73.5q83 0 155.5 40.5t98.5 105.5 l235 -66q-48 -101 -143 -171.5t-223 -96.5q-162 -96 -162 -180q0 -76 127 -82zM346 627h557q-10 119 -88.5 192.5t-191.5 73.5q-112 0 -190 -73.5t-87 -192.5z" />
<glyph unicode="&#x11a;" horiz-adv-x="1236" d="M350 1808l144 66l174 -129l174 129l141 -66l-217 -206h-199zM434 248h727v-248h-1009v1454h991v-248h-709v-350h613v-229h-613v-379z" />
<glyph unicode="&#x11b;" horiz-adv-x="1228" d="M303 1430l143 65l175 -129l174 129l141 -65l-217 -207h-199zM623 -20q-168 0 -299 76t-199 200.5t-68 273.5q0 153 68 280.5t199 204.5t301 77q128 0 234.5 -45t177 -121.5t109 -175.5t38.5 -209q0 -57 -6 -92h-830q10 -122 92 -195.5t193 -73.5q83 0 155.5 40.5 t98.5 105.5l235 -66q-60 -126 -192.5 -203t-306.5 -77zM344 627h557q-10 119 -88.5 192.5t-191.5 73.5q-112 0 -190 -73.5t-87 -192.5z" />
<glyph unicode="&#x11c;" horiz-adv-x="1452" d="M582 1602l-144 65l217 207h199l217 -207l-141 -65l-174 129zM1126 0v164q-168 -174 -387 -174q-136 0 -261.5 62t-214.5 164t-142 238.5t-53 280.5q0 147 53 281t144 232.5t220 157t273 58.5q194 0 337.5 -84.5t215.5 -232.5l-211 -156q-52 106 -145 164.5t-207 58.5 q-116 0 -207.5 -67t-140 -178t-48.5 -242q0 -207 117.5 -347t294.5 -140q200 0 362 198v103h-292v207h526v-748h-234z" />
<glyph unicode="&#x11d;" horiz-adv-x="1296" d="M524 1223l-143 65l217 207h199l217 -207l-142 -65l-174 129zM543 -6q-104 0 -195 43.5t-153.5 117t-98 173t-35.5 209.5q0 115 37 217t102 176.5t158 118t201 43.5q122 0 217.5 -55t157.5 -152v188h240v-1022q0 -155 -77 -271.5t-211 -176.5t-306 -60q-171 0 -292.5 57 t-211.5 167l149 145q62 -76 156 -119t199 -43q138 0 228.5 76t90.5 225v135q-53 -91 -149 -141.5t-207 -50.5zM637 213q87 0 159.5 52t102.5 128v256q-37 93 -114 151t-164 58q-123 0 -202 -98.5t-79 -231.5q0 -132 85.5 -223.5t211.5 -91.5z" />
<glyph unicode="&#x11e;" horiz-adv-x="1452" d="M1126 0v164q-168 -174 -387 -174q-136 0 -261.5 62t-214.5 164t-142 238.5t-53 280.5q0 147 53 281t144 232.5t220 157t273 58.5q194 0 337.5 -84.5t215.5 -232.5l-211 -156q-52 106 -145 164.5t-207 58.5q-116 0 -207.5 -67t-140 -178t-48.5 -242q0 -207 117.5 -347 t294.5 -140q200 0 362 198v103h-292v207h526v-748h-234zM756 1722q46 0 81.5 43.5t41.5 108.5h145q0 -119 -75.5 -197t-192.5 -78t-193 78t-76 197h148q0 -61 36.5 -106.5t84.5 -45.5z" />
<glyph unicode="&#x11f;" horiz-adv-x="1296" d="M543 -6q-104 0 -195 43.5t-153.5 117t-98 173t-35.5 209.5q0 115 37 217t102 176.5t158 118t201 43.5q122 0 217.5 -55t157.5 -152v188h240v-1022q0 -155 -77 -271.5t-211 -176.5t-306 -60q-171 0 -292.5 57t-211.5 167l149 145q62 -76 156 -119t199 -43q138 0 228.5 76 t90.5 225v135q-53 -91 -149 -141.5t-207 -50.5zM637 213q87 0 159.5 52t102.5 128v256q-37 93 -114 151t-164 58q-123 0 -202 -98.5t-79 -231.5q0 -132 85.5 -223.5t211.5 -91.5zM696 1343q46 0 81.5 43.5t41.5 108.5h146q0 -119 -76 -196.5t-193 -77.5t-192.5 77.5 t-75.5 196.5h147q0 -61 36.5 -106.5t84.5 -45.5z" />
<glyph unicode="&#x120;" horiz-adv-x="1452" d="M1126 0v164q-168 -174 -387 -174q-136 0 -261.5 62t-214.5 164t-142 238.5t-53 280.5q0 147 53 281t144 232.5t220 157t273 58.5q194 0 337.5 -84.5t215.5 -232.5l-211 -156q-52 106 -145 164.5t-207 58.5q-116 0 -207.5 -67t-140 -178t-48.5 -242q0 -207 117.5 -347 t294.5 -140q200 0 362 198v103h-292v207h526v-748h-234zM879 1616h-248v258h248v-258z" />
<glyph unicode="&#x121;" horiz-adv-x="1296" d="M543 -6q-104 0 -195 43.5t-153.5 117t-98 173t-35.5 209.5q0 115 37 217t102 176.5t158 118t201 43.5q122 0 217.5 -55t157.5 -152v188h240v-1022q0 -155 -77 -271.5t-211 -176.5t-306 -60q-171 0 -292.5 57t-211.5 167l149 145q62 -76 156 -119t199 -43q138 0 228.5 76 t90.5 225v135q-53 -91 -149 -141.5t-207 -50.5zM637 213q87 0 159.5 52t102.5 128v256q-37 93 -114 151t-164 58q-123 0 -202 -98.5t-79 -231.5q0 -132 85.5 -223.5t211.5 -91.5zM821 1237h-248v258h248v-258z" />
<glyph unicode="&#x122;" horiz-adv-x="1452" d="M573 -391v112q68 0 68 52v131h223v-142q0 -49 -21 -80.5t-63.5 -47t-89.5 -20.5t-117 -5zM1126 0v164q-168 -174 -387 -174q-136 0 -261.5 62t-214.5 164t-142 238.5t-53 280.5q0 147 53 281t144 232.5t220 157t273 58.5q194 0 337.5 -84.5t215.5 -232.5l-211 -156 q-52 106 -145 164.5t-207 58.5q-116 0 -207.5 -67t-140 -178t-48.5 -242q0 -207 117.5 -347t294.5 -140q200 0 362 198v103h-292v207h526v-748h-234z" />
<glyph unicode="&#x123;" horiz-adv-x="1296" d="M958 1495l-190 -297l-176 53l110 244h256zM543 -6q-104 0 -195 43.5t-153.5 117t-98 173t-35.5 209.5q0 115 37 217t102 176.5t158 118t201 43.5q122 0 217.5 -55t157.5 -152v188h240v-1022q0 -155 -77 -271.5t-211 -176.5t-306 -60q-171 0 -292.5 57t-211.5 167l149 145 q62 -76 156 -119t199 -43q138 0 228.5 76t90.5 225v135q-53 -91 -149 -141.5t-207 -50.5zM637 213q87 0 159.5 52t102.5 128v256q-37 93 -114 151t-164 58q-123 0 -202 -98.5t-79 -231.5q0 -132 85.5 -223.5t211.5 -91.5z" />
<glyph unicode="&#x124;" horiz-adv-x="1525" d="M596 1602l-143 65l217 207h198l217 -207l-141 -65l-174 129zM1094 1454h280v-1454h-280v621h-660v-621h-282v1454h282v-588h660v588z" />
<glyph unicode="&#x125;" horiz-adv-x="1232" d="M625 1225l-127 65l190 201h176l191 -201l-125 -65l-154 127zM1120 670v-670h-274v602q0 124 -47 186t-133 62q-78 0 -158.5 -64t-110.5 -159v-627h-274v1495h274v-621q60 103 162 160.5t223 57.5q338 0 338 -422z" />
<glyph unicode="&#x126;" horiz-adv-x="1540" d="M1102 1454h280v-207h101v-135h-101v-1112h-280v621h-660v-621h-282v1112h-103v135h103v207h282v-207h660v207zM442 866h660v246h-660v-246z" />
<glyph unicode="&#x127;" horiz-adv-x="1232" d="M1120 670v-670h-274v602q0 124 -47 186t-133 62q-78 0 -158.5 -64t-110.5 -159v-627h-274v1223h-92v161h92v111h274v-111h242v-161h-242v-349q60 103 162 160.5t223 57.5q338 0 338 -422z" />
<glyph unicode="&#x128;" horiz-adv-x="585" d="M434 0h-282v1452h282v-1452zM422 1612q-52 0 -100 23t-89.5 46t-78.5 23q-26 0 -45.5 -10t-29 -22.5t-15.5 -28.5t-7.5 -24.5t-1.5 -12.5h-151q0 24 13 63.5t38.5 86t75 79.5t112.5 33q53 0 100 -24t89 -48t82 -24q28 0 49 10t31.5 23.5t17.5 29.5t8.5 25t1.5 14h152 q0 -14 -7.5 -42t-27 -66.5t-46.5 -72.5t-72 -57.5t-99 -23.5z" />
<glyph unicode="&#x129;" d="M397 0h-274v1073h274v-1073zM387 1233q-52 0 -100 23t-89.5 46t-78.5 23q-26 0 -45.5 -10t-29 -22.5t-15.5 -28.5t-7.5 -24.5t-1.5 -12.5h-151q0 18 7.5 47t25.5 67t44 70.5t69 55t94 22.5q42 0 81 -15t64 -33t59 -33t66 -15q28 0 49 10t31.5 23.5t17.5 29.5t8.5 25 t1.5 14h152q0 -14 -7.5 -42t-27 -66.5t-46.5 -72.5t-72 -57.5t-99 -23.5z" />
<glyph unicode="&#x12a;" horiz-adv-x="585" d="M434 0h-282v1452h282v-1452zM602 1675h-614v170h614v-170z" />
<glyph unicode="&#x12b;" d="M397 0h-274v1073h274v-1073zM569 1296h-614v170h614v-170z" />
<glyph unicode="&#x12c;" horiz-adv-x="585" d="M434 0h-282v1452h282v-1452zM291 1722q46 0 81.5 43.5t41.5 108.5h145q0 -119 -75.5 -197t-192.5 -78t-192.5 78t-75.5 197h147q0 -61 36.5 -106.5t84.5 -45.5z" />
<glyph unicode="&#x12d;" d="M397 0h-274v1073h274v-1073zM258 1343q46 0 81.5 43.5t41.5 108.5h145q0 -119 -75.5 -196.5t-192.5 -77.5t-192.5 77.5t-75.5 196.5h147q0 -61 36.5 -106.5t84.5 -45.5z" />
<glyph unicode="&#x12e;" horiz-adv-x="585" d="M336 -401q-104 17 -160.5 65t-56.5 113q0 118 166 223h-133v1452h282v-1452q-168 -99 -168 -184q0 -76 127 -82z" />
<glyph unicode="&#x12f;" horiz-adv-x="520" d="M301 -401q-104 17 -160.5 65t-56.5 113q0 118 166 223h-125v1073h274v-1073q-168 -99 -168 -184q0 -76 127 -82zM399 1223h-274v272h274v-272z" />
<glyph unicode="&#x130;" horiz-adv-x="585" d="M434 0h-282v1452h282v-1452zM416 1616h-248v258h248v-258z" />
<glyph unicode="&#x131;" d="M397 0h-274v1073h274v-1073z" />
<glyph unicode="&#x132;" horiz-adv-x="1599" d="M434 0h-282v1452h282v-1452zM608 68l64 229q35 -25 104 -47.5t148 -22.5q49 0 86.5 10.5t65 28.5t46.5 50t30.5 68.5t18 91t9 109t2.5 130.5v737h282v-737q0 -103 -4.5 -180.5t-18.5 -158.5t-38.5 -138t-65 -109t-97 -83.5t-136 -50t-180.5 -18.5q-183 0 -316 91z" />
<glyph unicode="&#x133;" horiz-adv-x="1036" d="M397 0h-274v1073h274v-1073zM397 1223h-274v272h274v-272zM543 -401q-165 0 -273 96l117 186q48 -45 121 -45q55 0 94 38t39 97v1102h274v-1081q0 -171 -107.5 -282t-264.5 -111zM915 1223h-274v272h274v-272z" />
<glyph unicode="&#x134;" horiz-adv-x="1013" d="M567 1602l-143 65l217 207h199l217 -207l-142 -65l-174 129zM23 68l63 229q35 -25 104 -47.5t148 -22.5q49 0 86.5 10.5t65 28.5t46.5 50t30.5 68.5t18 91t9 109t2.5 130.5v737h283v-737q0 -103 -4.5 -180.5t-19 -158.5t-38.5 -138t-65 -109t-97.5 -83.5t-136 -50 t-180.5 -18.5q-182 0 -315 91z" />
<glyph unicode="&#x135;" d="M25 -401q-165 0 -273 96l117 186q48 -45 121 -45q55 0 94 38t39 97v1102h274v-1081q0 -171 -107.5 -282t-264.5 -111zM86 1223l-143 65l217 207h198l217 -207l-141 -65l-174 129z" />
<glyph unicode="&#x136;" horiz-adv-x="1366" d="M539 -391v112q67 0 67 52v131h223v-142q0 -39 -15 -67.5t-39 -45t-63 -25.5t-78.5 -12t-94.5 -3zM434 0h-282v1452h282v-709l629 711h293l-557 -645l592 -809h-299l-463 649l-195 -211v-438z" />
<glyph unicode="&#x137;" horiz-adv-x="1140" d="M408 -391v112q67 0 67 52v131h223v-142q0 -39 -15 -67.5t-39 -45t-63 -25.5t-78.5 -12t-94.5 -3zM1149 0h-293l-311 465l-148 -146v-319h-274v1495h274v-907l430 483h293l-401 -455z" />
<glyph unicode="&#x138;" horiz-adv-x="1140" d="M1149 0h-293l-311 465l-148 -146v-319h-274v1073h274v-485l430 483h293l-401 -455z" />
<glyph unicode="&#x139;" horiz-adv-x="1206" d="M995 1874l-190 -297l-176 53l110 244h256zM1176 0h-1024v1454h282v-1206h742v-248z" />
<glyph unicode="&#x13a;" horiz-adv-x="649" d="M514 1862l-190 -297l-177 53l111 244h256zM121 248v1247h274v-1139q0 -60 29.5 -92.5t83.5 -32.5q40 0 108 27l37 -219q-54 -25 -127 -40t-135 -15q-128 0 -199 69t-71 195z" />
<glyph unicode="&#x13b;" horiz-adv-x="1206" d="M506 -391v112q67 0 67 52v131h224v-142q0 -49 -21 -80.5t-63.5 -47t-89.5 -20.5t-117 -5zM1176 0h-1024v1454h282v-1206h742v-248z" />
<glyph unicode="&#x13c;" horiz-adv-x="649" d="M205 -391v112q67 0 67 52v131h224v-142q0 -49 -21 -80.5t-63.5 -47t-89.5 -20.5t-117 -5zM121 248v1247h274v-1139q0 -60 29.5 -92.5t83.5 -32.5q40 0 108 27l37 -219q-54 -25 -127 -40t-135 -15q-128 0 -199 69t-71 195z" />
<glyph unicode="&#x13d;" horiz-adv-x="1208" d="M1036 1495l-190 -297l-176 53l110 244h256zM1176 0h-1024v1454h282v-1206h742v-248z" />
<glyph unicode="&#x13e;" horiz-adv-x="649" d="M846 1495l-191 -297l-176 53l111 244h256zM121 248v1247h274v-1139q0 -60 29.5 -92.5t83.5 -32.5q40 0 108 27l37 -219q-54 -25 -127 -40t-135 -15q-128 0 -199 69t-71 195z" />
<glyph unicode="&#x13f;" horiz-adv-x="1208" d="M1176 0h-1024v1454h282v-1206h742v-248zM973 678h-225v309h225v-309z" />
<glyph unicode="&#x140;" horiz-adv-x="811" d="M121 248v1247h274v-1139q0 -60 29.5 -92.5t83.5 -32.5q40 0 108 27l37 -219q-54 -25 -127 -40t-135 -15q-128 0 -199 69t-71 195zM776 580h-225v309h225v-309z" />
<glyph unicode="&#x141;" horiz-adv-x="1226" d="M1196 0h-1024v563l-106 -67l-70 149l176 111v698h283v-520l223 141l67 -149l-290 -185v-493h741v-248z" />
<glyph unicode="&#x142;" horiz-adv-x="702" d="M166 248v364l-105 -61l-69 147l174 105v692h274v-528l176 106l70 -147l-246 -148v-422q0 -60 29.5 -92.5t83.5 -32.5q41 0 109 27l36 -219q-54 -25 -127 -40t-135 -15q-128 0 -199 69t-71 195z" />
<glyph unicode="&#x143;" horiz-adv-x="1562" d="M1042 1874l-190 -297l-176 53l110 244h256zM1182 0l-748 932v-932h-282v1454h219l757 -954v952h283v-1452h-229z" />
<glyph unicode="&#x144;" horiz-adv-x="1232" d="M907 1495l-190 -297l-176 53l110 244h256zM1120 670v-670h-274v602q0 248 -170 248q-85 0 -167 -64t-112 -159v-627h-274v1073h248v-199q60 102 173 160t253 58q78 0 136.5 -24.5t93.5 -63.5t56.5 -96t29 -113.5t7.5 -124.5z" />
<glyph unicode="&#x145;" horiz-adv-x="1562" d="M598 -391v112q68 0 68 52v131h223v-142q0 -49 -21 -80.5t-63.5 -47t-89.5 -20.5t-117 -5zM1182 0l-748 932v-932h-282v1454h219l757 -954v952h283v-1452h-229z" />
<glyph unicode="&#x146;" horiz-adv-x="1232" d="M432 -391v112q68 0 68 52v131h223v-142q0 -49 -21 -80.5t-63.5 -47t-89.5 -20.5t-117 -5zM1120 670v-670h-274v602q0 248 -170 248q-85 0 -167 -64t-112 -159v-627h-274v1073h248v-199q60 102 173 160t253 58q78 0 136.5 -24.5t93.5 -63.5t56.5 -96t29 -113.5t7.5 -124.5 z" />
<glyph unicode="&#x147;" horiz-adv-x="1562" d="M465 1808l143 66l174 -129l174 129l142 -66l-217 -206h-199zM1182 0l-748 932v-932h-282v1454h219l757 -954v952h283v-1452h-229z" />
<glyph unicode="&#x148;" horiz-adv-x="1232" d="M330 1430l143 65l174 -129l174 129l142 -65l-218 -207h-198zM1120 670v-670h-274v602q0 248 -170 248q-85 0 -167 -64t-112 -159v-627h-274v1073h248v-199q60 102 173 160t253 58q78 0 136.5 -24.5t93.5 -63.5t56.5 -96t29 -113.5t7.5 -124.5z" />
<glyph unicode="&#x149;" horiz-adv-x="1232" d="M315 1495l-190 -297l-174 53l69 150l-14 94h309zM1120 670v-670h-274v602q0 248 -170 248q-85 0 -167 -64t-112 -159v-627h-274v1073h248v-199q60 102 173 160t253 58q78 0 136.5 -24.5t93.5 -63.5t56.5 -96t29 -113.5t7.5 -124.5z" />
<glyph unicode="&#x14a;" horiz-adv-x="1533" d="M1108 57l-674 867v-924h-282v1454h217l733 -942v940h280v-1470q0 -168 -108 -275.5t-264 -107.5q-165 0 -273 96l119 186q45 -45 119 -45q55 0 94 38t39 97v86z" />
<glyph unicode="&#x14b;" horiz-adv-x="1230" d="M748 -401q-167 0 -275 96l119 186q48 -45 121 -45q55 0 94 38t39 97v631q0 248 -170 248q-85 0 -167 -64t-112 -159v-627h-274v1073h248v-199q60 102 173 160t253 58q78 0 136 -24.5t93 -63.5t56 -96t28.5 -113.5t7.5 -124.5v-678q0 -171 -107 -282t-263 -111z" />
<glyph unicode="&#x14c;" horiz-adv-x="1515" d="M1071 1675h-614v170h614v-170zM756 -10q-150 0 -280.5 62.5t-218.5 166t-138.5 236t-50.5 272.5q0 144 53 278.5t144 235.5t221 162t276 61q120 0 229 -41.5t191 -114t142.5 -166t92 -201.5t31.5 -218q0 -143 -52.5 -276.5t-142.5 -234.5t-220 -161.5t-277 -60.5z M352 727q0 -128 47.5 -237.5t142.5 -179.5t218 -70q94 0 172 42t127.5 111.5t76.5 156t27 177.5q0 127 -48 237t-142 179t-215 69q-94 0 -172.5 -42t-128.5 -111t-77.5 -155t-27.5 -177z" />
<glyph unicode="&#x14d;" horiz-adv-x="1239" d="M930 1296h-615v170h615v-170zM621 -20q-103 0 -193 29.5t-157 81.5t-116 121.5t-73.5 152t-24.5 170.5q0 112 40 213t111 177.5t178.5 121.5t234.5 45q169 0 298.5 -77.5t196 -203t66.5 -276.5q0 -111 -39 -211.5t-109.5 -177t-177.5 -121.5t-235 -45zM340 535 q0 -140 80.5 -231t200.5 -91q119 0 199.5 92t80.5 232q0 139 -80.5 230t-199.5 91t-200 -92t-81 -231z" />
<glyph unicode="&#x14e;" horiz-adv-x="1515" d="M756 -10q-150 0 -280.5 62.5t-218.5 166t-138.5 236t-50.5 272.5q0 144 53 278.5t144 235.5t221 162t276 61q120 0 229 -41.5t191 -114t142.5 -166t92 -201.5t31.5 -218q0 -143 -52.5 -276.5t-142.5 -234.5t-220 -161.5t-277 -60.5zM352 727q0 -128 47.5 -237.5 t142.5 -179.5t218 -70q94 0 172 42t127.5 111.5t76.5 156t27 177.5q0 127 -48 237t-142 179t-215 69q-94 0 -172.5 -42t-128.5 -111t-77.5 -155t-27.5 -177zM762 1722q46 0 81.5 43.5t41.5 108.5h145q0 -119 -75.5 -197t-192.5 -78t-192.5 78t-75.5 197h147 q0 -61 36.5 -106.5t84.5 -45.5z" />
<glyph unicode="&#x14f;" horiz-adv-x="1239" d="M621 -20q-103 0 -193 29.5t-157 81.5t-116 121.5t-73.5 152t-24.5 170.5q0 112 40 213t111 177.5t178.5 121.5t234.5 45q169 0 298.5 -77.5t196 -203t66.5 -276.5q0 -111 -39 -211.5t-109.5 -177t-177.5 -121.5t-235 -45zM340 535q0 -140 80.5 -231t200.5 -91 q119 0 199.5 92t80.5 232q0 139 -80.5 230t-199.5 91t-200 -92t-81 -231zM618 1343q46 0 81.5 43.5t41.5 108.5h146q0 -119 -76 -196.5t-193 -77.5t-192.5 77.5t-75.5 196.5h148q0 -61 36 -106.5t84 -45.5z" />
<glyph unicode="&#x150;" horiz-adv-x="1515" d="M809 1876l-176 -297l-135 53l98 244h213zM1139 1876l-178 -297l-134 53l97 244h215zM756 -10q-150 0 -280.5 62.5t-218.5 166t-138.5 236t-50.5 272.5q0 144 53 278.5t144 235.5t221 162t276 61q120 0 229 -41.5t191 -114t142.5 -166t92 -201.5t31.5 -218 q0 -143 -52.5 -276.5t-142.5 -234.5t-220 -161.5t-277 -60.5zM352 727q0 -128 47.5 -237.5t142.5 -179.5t218 -70q94 0 172 42t127.5 111.5t76.5 156t27 177.5q0 127 -48 237t-142 179t-215 69q-94 0 -172.5 -42t-128.5 -111t-77.5 -155t-27.5 -177z" />
<glyph unicode="&#x151;" horiz-adv-x="1239" d="M668 1495l-176 -297l-136 53l99 244h213zM997 1495l-178 -297l-133 53l96 244h215zM621 -20q-103 0 -193 29.5t-157 81.5t-116 121.5t-73.5 152t-24.5 170.5q0 112 40 213t111 177.5t178.5 121.5t234.5 45q169 0 298.5 -77.5t196 -203t66.5 -276.5q0 -111 -39 -211.5 t-109.5 -177t-177.5 -121.5t-235 -45zM340 535q0 -140 80.5 -231t200.5 -91q119 0 199.5 92t80.5 232q0 139 -80.5 230t-199.5 91t-200 -92t-81 -231z" />
<glyph unicode="&#x152;" horiz-adv-x="2232" d="M1456 248h701v-248h-981v215q-72 -101 -182 -163t-236 -62q-120 0 -229.5 40.5t-192 111.5t-144 164t-93 201.5t-31.5 219.5q0 144 53 278.5t144 235.5t221 162t276 61q127 0 235 -61.5t179 -161.5v213h962v-248h-682v-342h572v-248h-572v-368zM760 240q94 0 172 42 t127.5 112t76.5 156.5t27 178.5q0 94 -28.5 181.5t-79.5 155t-128.5 108t-168.5 40.5q-94 0 -172.5 -42t-128.5 -111.5t-77.5 -156t-27.5 -177.5q0 -128 47.5 -237.5t142.5 -179.5t218 -70z" />
<glyph unicode="&#x153;" horiz-adv-x="2072" d="M616 -20q-241 0 -400 158t-159 397q0 241 158.5 399t400.5 158q137 0 245 -64.5t179 -185.5q154 250 430 250q158 0 283.5 -69.5t197.5 -196t77 -289.5q0 -48 -7 -88h-827q7 -117 91.5 -196t201.5 -79q86 0 159 43t99 109l227 -66q-61 -129 -195.5 -204.5t-299.5 -75.5 q-247 0 -435 241q-95 -123 -197.5 -182t-228.5 -59zM621 213q121 0 200.5 92t79.5 230q0 140 -79.5 231.5t-200.5 91.5q-120 0 -200.5 -93.5t-80.5 -232.5q0 -138 79.5 -228.5t201.5 -90.5zM1186 618h561q-10 122 -90.5 198.5t-194.5 76.5t-191.5 -77t-84.5 -198z" />
<glyph unicode="&#x154;" horiz-adv-x="1380" d="M915 1876l-190 -297l-176 53l110 244h256zM434 0h-282v1454h643q129 0 237 -71.5t166.5 -181.5t58.5 -230q0 -140 -71.5 -256.5t-190.5 -167.5l342 -547h-319l-305 487h-279v-487zM434 1206v-471h354q78 0 131.5 68.5t53.5 167.5t-60 167t-137 68h-342z" />
<glyph unicode="&#x155;" horiz-adv-x="792" d="M735 1495l-190 -297l-176 53l110 244h256zM762 1085v-249q-128 -2 -225.5 -50t-139.5 -137v-649h-274v1073h252v-229q57 111 146 178.5t186 67.5q25 0 55 -5z" />
<glyph unicode="&#x156;" horiz-adv-x="1380" d="M518 -391v112q68 0 68 52v131h223v-142q0 -49 -21 -80.5t-63.5 -47t-89.5 -20.5t-117 -5zM434 0h-282v1454h643q129 0 237 -71.5t166.5 -181.5t58.5 -230q0 -140 -71.5 -256.5t-190.5 -167.5l342 -547h-319l-305 487h-279v-487zM434 1206v-471h354q78 0 131.5 68.5 t53.5 167.5t-60 167t-137 68h-342z" />
<glyph unicode="&#x157;" horiz-adv-x="792" d="M68 -391v112q67 0 67 52v131h223v-142q0 -39 -15 -67.5t-39 -45t-63 -25.5t-78.5 -12t-94.5 -3zM762 1085v-249q-128 -2 -225.5 -50t-139.5 -137v-649h-274v1073h252v-229q57 111 146 178.5t186 67.5q25 0 55 -5z" />
<glyph unicode="&#x158;" horiz-adv-x="1380" d="M336 1810l143 66l174 -129l174 129l142 -66l-217 -206h-199zM434 0h-282v1454h643q129 0 237 -71.5t166.5 -181.5t58.5 -230q0 -140 -71.5 -256.5t-190.5 -167.5l342 -547h-319l-305 487h-279v-487zM434 1206v-471h354q78 0 131.5 68.5t53.5 167.5t-60 167t-137 68h-342z " />
<glyph unicode="&#x159;" horiz-adv-x="792" d="M158 1430l143 65l174 -129l174 129l142 -65l-218 -207h-198zM762 1085v-249q-128 -2 -225.5 -50t-139.5 -137v-649h-274v1073h252v-229q57 111 146 178.5t186 67.5q25 0 55 -5z" />
<glyph unicode="&#x15a;" horiz-adv-x="1259" d="M922 1890l-191 -297l-176 54l111 243h256zM1145 1303l-125 -230q-37 41 -156 92.5t-235 51.5q-114 0 -173 -42.5t-59 -121.5q0 -22 4.5 -40.5t17 -34.5t25 -28t38 -24t45.5 -20.5t58.5 -20t65.5 -19t78 -20.5q93 -24 159.5 -47.5t128 -59t98.5 -79t59 -105t22 -139.5 q0 -113 -43 -198.5t-119.5 -135.5t-170.5 -74t-206 -24q-163 0 -323.5 49.5t-286.5 138.5l125 244q52 -52 198 -115t292 -63q115 0 174 38.5t59 110.5q0 37 -16.5 65.5t-48 50.5t-74.5 39t-100.5 34t-120.5 34q-11 2 -17 4q-218 60 -315 146.5t-97 247.5q0 144 72 249 t190.5 156t268.5 51q270 0 508 -161z" />
<glyph unicode="&#x15b;" horiz-adv-x="1040" d="M780 1495l-190 -297l-176 53l110 244h256zM547 -20q-134 0 -276 39t-236 104l110 186q204 -133 396 -133q87 0 135.5 31t48.5 88q0 54 -53.5 82t-200.5 63q-215 50 -299 114t-84 185q0 161 122 258t310 97q229 0 441 -133l-113 -170q-169 108 -330 108q-78 0 -126 -30.5 t-48 -90.5q0 -53 43.5 -77.5t175.5 -57.5q238 -58 333 -125.5t95 -198.5q0 -156 -120.5 -247.5t-323.5 -91.5z" />
<glyph unicode="&#x15c;" horiz-adv-x="1259" d="M487 1618l-143 65l217 207h199l217 -207l-141 -65l-174 129zM1145 1303l-125 -230q-37 41 -156 92.5t-235 51.5q-114 0 -173 -42.5t-59 -121.5q0 -22 4.5 -40.5t17 -34.5t25 -28t38 -24t45.5 -20.5t58.5 -20t65.5 -19t78 -20.5q93 -24 159.5 -47.5t128 -59t98.5 -79 t59 -105t22 -139.5q0 -113 -43 -198.5t-119.5 -135.5t-170.5 -74t-206 -24q-163 0 -323.5 49.5t-286.5 138.5l125 244q52 -52 198 -115t292 -63q115 0 174 38.5t59 110.5q0 37 -16.5 65.5t-48 50.5t-74.5 39t-100.5 34t-120.5 34q-11 2 -17 4q-218 60 -315 146.5t-97 247.5 q0 144 72 249t190.5 156t268.5 51q270 0 508 -161z" />
<glyph unicode="&#x15d;" horiz-adv-x="1040" d="M344 1223l-143 65l217 207h198l218 -207l-142 -65l-174 129zM547 -20q-134 0 -276 39t-236 104l110 186q204 -133 396 -133q87 0 135.5 31t48.5 88q0 54 -53.5 82t-200.5 63q-215 50 -299 114t-84 185q0 161 122 258t310 97q229 0 441 -133l-113 -170q-169 108 -330 108 q-78 0 -126 -30.5t-48 -90.5q0 -53 43.5 -77.5t175.5 -57.5q238 -58 333 -125.5t95 -198.5q0 -156 -120.5 -247.5t-323.5 -91.5z" />
<glyph unicode="&#x15e;" horiz-adv-x="1259" d="M436 -360l56 100q28 -15 79 -27t103 -12q114 0 114 68q0 67 -106 67q-65 0 -164 -24l88 174q-153 8 -299 56t-260 130l125 244q52 -52 198 -115t292 -63q115 0 174 38.5t59 110.5q0 37 -16.5 65.5t-48 50.5t-74.5 39t-100.5 34t-120.5 34q-11 2 -17 4q-218 60 -315 146.5 t-97 247.5q0 144 72 249t190.5 156t268.5 51q270 0 508 -161l-125 -230q-37 41 -156 92.5t-235 51.5q-114 0 -173 -42.5t-59 -121.5q0 -22 4.5 -40.5t17 -34.5t25 -28t38 -24t45.5 -20.5t58.5 -20t65.5 -19t78 -20.5q93 -24 159.5 -47.5t128 -59t98.5 -79t59 -105t22 -139.5 q0 -105 -37 -186.5t-103 -131.5t-149 -78t-182 -34l-47 -72q24 8 65 8q77 0 126 -36t49 -107q0 -81 -67.5 -130.5t-195.5 -49.5q-121 0 -219 41z" />
<glyph unicode="&#x15f;" horiz-adv-x="1042" d="M328 -360l55 100q28 -15 79 -27t103 -12q115 0 115 68q0 67 -107 67q-64 0 -163 -24l86 170q-125 6 -250.5 44t-210.5 97l110 186q204 -133 396 -133q87 0 135.5 31t48.5 88q0 54 -53.5 82t-200.5 63q-215 50 -299 114t-84 185q0 161 122 258t310 97q229 0 441 -133 l-113 -170q-169 108 -330 108q-78 0 -126 -30.5t-48 -90.5q0 -53 43.5 -77.5t175.5 -57.5q238 -58 333 -125.5t95 -198.5q0 -144 -101.5 -232.5t-277.5 -102.5l-43 -70q24 8 66 8q77 0 125.5 -36t48.5 -107q0 -81 -67 -130.5t-195 -49.5q-121 0 -219 41z" />
<glyph unicode="&#x160;" horiz-adv-x="1259" d="M344 1825l143 65l175 -129l174 129l141 -65l-217 -207h-199zM1145 1303l-125 -230q-37 41 -156 92.5t-235 51.5q-114 0 -173 -42.5t-59 -121.5q0 -22 4.5 -40.5t17 -34.5t25 -28t38 -24t45.5 -20.5t58.5 -20t65.5 -19t78 -20.5q93 -24 159.5 -47.5t128 -59t98.5 -79 t59 -105t22 -139.5q0 -113 -43 -198.5t-119.5 -135.5t-170.5 -74t-206 -24q-163 0 -323.5 49.5t-286.5 138.5l125 244q52 -52 198 -115t292 -63q115 0 174 38.5t59 110.5q0 37 -16.5 65.5t-48 50.5t-74.5 39t-100.5 34t-120.5 34q-11 2 -17 4q-218 60 -315 146.5t-97 247.5 q0 144 72 249t190.5 156t268.5 51q270 0 508 -161z" />
<glyph unicode="&#x161;" horiz-adv-x="1040" d="M201 1430l143 65l174 -129l174 129l142 -65l-218 -207h-198zM547 -20q-134 0 -276 39t-236 104l110 186q204 -133 396 -133q87 0 135.5 31t48.5 88q0 54 -53.5 82t-200.5 63q-215 50 -299 114t-84 185q0 161 122 258t310 97q229 0 441 -133l-113 -170q-169 108 -330 108 q-78 0 -126 -30.5t-48 -90.5q0 -53 43.5 -77.5t175.5 -57.5q238 -58 333 -125.5t95 -198.5q0 -156 -120.5 -247.5t-323.5 -91.5z" />
<glyph unicode="&#x162;" horiz-adv-x="1269" d="M426 -360l55 100q27 -15 79 -27t104 -12q114 0 114 68q0 67 -106 67q-65 0 -164 -24l96 188h-110v1206h-465v248h1210v-248h-463v-1206h-53l-55 -86q24 8 65 8q77 0 125.5 -36t48.5 -107q0 -81 -67 -130.5t-195 -49.5q-121 0 -219 41z" />
<glyph unicode="&#x163;" horiz-adv-x="782" d="M246 -360l55 100q28 -15 79 -27t103 -12q115 0 115 68q0 67 -106 67q-65 0 -164 -24l88 172q-105 11 -168.5 76t-63.5 186v616h-139v211h139v348h275v-348h227v-211h-227v-524q0 -54 29 -79.5t75 -25.5q58 0 150 39l55 -217q-117 -54 -233 -69l-48 -72q24 8 66 8 q77 0 125.5 -36t48.5 -107q0 -81 -67 -130.5t-195 -49.5q-121 0 -219 41z" />
<glyph unicode="&#x164;" horiz-adv-x="1269" d="M330 1808l143 66l174 -129l174 129l142 -66l-218 -206h-198zM1239 1454v-248h-463v-1206h-282v1206h-465v248h1210z" />
<glyph unicode="&#x165;" horiz-adv-x="782" d="M922 1495l-191 -297l-176 53l111 244h256zM713 272l55 -217q-164 -73 -305 -73q-59 0 -108 15t-88 45.5t-61 82.5t-22 121v616h-139v211h139v348h275v-348h227v-211h-227v-524q0 -54 29 -79.5t75 -25.5q58 0 150 39z" />
<glyph unicode="&#x166;" horiz-adv-x="1329" d="M1270 1454v-248h-463v-430h387v-135h-387v-641h-283v641h-389v135h389v430h-465v248h1211z" />
<glyph unicode="&#x167;" horiz-adv-x="784" d="M715 272l55 -217q-164 -73 -305 -73q-59 0 -108 15t-88 45.5t-61 82.5t-22 121v295h-139v164h139v157h-139v211h139v348h275v-348h227v-211h-227v-157h227v-164h-227v-203q0 -54 29 -79.5t75 -25.5q58 0 150 39z" />
<glyph unicode="&#x168;" horiz-adv-x="1531" d="M764 240q97 0 168.5 39.5t111 108.5t58 149.5t18.5 175.5v741h281v-741q0 -153 -37 -281t-111.5 -228.5t-199 -157t-287.5 -56.5q-135 0 -244 39.5t-181.5 106.5t-121 160t-69.5 196.5t-21 220.5v741h283v-741q0 -96 18.5 -177.5t58 -149.5t110 -107t165.5 -39zM895 1612 q-52 0 -100 23t-89.5 46t-78.5 23q-26 0 -45.5 -10t-29 -22.5t-15.5 -28.5t-7.5 -24.5t-1.5 -12.5h-151q0 24 13 63.5t38.5 86t75 79.5t112.5 33q53 0 100 -24t89 -48t82 -24q28 0 49 10t31.5 23.5t17.5 29.5t8.5 25t1.5 14h152q0 -14 -7.5 -42t-27 -66.5t-46.5 -72.5 t-72 -57.5t-99 -23.5z" />
<glyph unicode="&#x169;" horiz-adv-x="1273" d="M451 -20q-166 0 -252 107t-86 314v672h274v-612q0 -248 178 -248q85 0 159 50t120 145v665h274v-758q0 -43 16.5 -62t57.5 -20v-233q-80 -14 -133 -14q-72 0 -115.5 33.5t-52.5 93.5l-6 88q-73 -109 -184.5 -165t-249.5 -56zM743 1233q-52 0 -100 23t-89.5 46t-78.5 23 q-26 0 -45.5 -10t-29 -22.5t-15.5 -28.5t-7 -24.5t-1 -12.5h-152q0 18 7.5 47t25.5 67t44 70.5t69 55t94 22.5q42 0 81 -15t64 -33t59 -33t66 -15q28 0 49 10t32 23.5t18 29.5t8.5 25t1.5 14h151q0 -14 -7.5 -42t-27 -66.5t-46.5 -72.5t-72 -57.5t-99 -23.5z" />
<glyph unicode="&#x16a;" horiz-adv-x="1531" d="M764 240q97 0 168.5 39.5t111 108.5t58 149.5t18.5 175.5v741h281v-741q0 -153 -37 -281t-111.5 -228.5t-199 -157t-287.5 -56.5q-135 0 -244 39.5t-181.5 106.5t-121 160t-69.5 196.5t-21 220.5v741h283v-741q0 -96 18.5 -177.5t58 -149.5t110 -107t165.5 -39z M1075 1675h-614v170h614v-170z" />
<glyph unicode="&#x16b;" horiz-adv-x="1273" d="M451 -20q-166 0 -252 107t-86 314v672h274v-612q0 -248 178 -248q85 0 159 50t120 145v665h274v-758q0 -43 16.5 -62t57.5 -20v-233q-80 -14 -133 -14q-72 0 -115.5 33.5t-52.5 93.5l-6 88q-73 -109 -184.5 -165t-249.5 -56zM924 1296h-615v170h615v-170z" />
<glyph unicode="&#x16c;" horiz-adv-x="1531" d="M764 240q97 0 168.5 39.5t111 108.5t58 149.5t18.5 175.5v741h281v-741q0 -153 -37 -281t-111.5 -228.5t-199 -157t-287.5 -56.5q-135 0 -244 39.5t-181.5 106.5t-121 160t-69.5 196.5t-21 220.5v741h283v-741q0 -96 18.5 -177.5t58 -149.5t110 -107t165.5 -39zM766 1722 q46 0 81.5 43.5t41.5 108.5h145q0 -119 -75.5 -197t-192.5 -78t-192.5 78t-75.5 197h147q0 -61 36.5 -106.5t84.5 -45.5z" />
<glyph unicode="&#x16d;" horiz-adv-x="1273" d="M451 -20q-166 0 -252 107t-86 314v672h274v-612q0 -248 178 -248q85 0 159 50t120 145v665h274v-758q0 -43 16.5 -62t57.5 -20v-233q-80 -14 -133 -14q-72 0 -115.5 33.5t-52.5 93.5l-6 88q-73 -109 -184.5 -165t-249.5 -56zM612 1343q46 0 81.5 43.5t41.5 108.5h146 q0 -119 -76 -196.5t-193 -77.5t-192.5 77.5t-75.5 196.5h148q0 -61 36 -106.5t84 -45.5z" />
<glyph unicode="&#x16e;" horiz-adv-x="1531" d="M565 1716q0 74 54 116t145 42t145 -42t54 -116t-54 -115.5t-145 -41.5t-145 41.5t-54 115.5zM764 1790q-35 0 -58.5 -20.5t-23.5 -53.5q0 -31 23.5 -52.5t58.5 -21.5q33 0 58.5 21.5t25.5 52.5q0 33 -24 53.5t-60 20.5zM764 240q97 0 168.5 39.5t111 108.5t58 149.5 t18.5 175.5v741h281v-741q0 -153 -37 -281t-111.5 -228.5t-199 -157t-287.5 -56.5q-135 0 -244 39.5t-181.5 106.5t-121 160t-69.5 196.5t-21 220.5v741h283v-741q0 -96 18.5 -177.5t58 -149.5t110 -107t165.5 -39z" />
<glyph unicode="&#x16f;" horiz-adv-x="1273" d="M416 1337q0 74 54 116t144 42q91 0 145 -42t54 -116t-54 -115.5t-145 -41.5t-144.5 41.5t-53.5 115.5zM614 1411q-35 0 -58.5 -20.5t-23.5 -53.5q0 -31 23.5 -52t58.5 -21q33 0 58.5 21t25.5 52q0 33 -24 53.5t-60 20.5zM451 -20q-166 0 -252 107t-86 314v672h274v-612 q0 -248 178 -248q85 0 159 50t120 145v665h274v-758q0 -43 16.5 -62t57.5 -20v-233q-80 -14 -133 -14q-72 0 -115.5 33.5t-52.5 93.5l-6 88q-73 -109 -184.5 -165t-249.5 -56z" />
<glyph unicode="&#x170;" horiz-adv-x="1531" d="M764 240q97 0 168.5 39.5t111 108.5t58 149.5t18.5 175.5v741h281v-741q0 -153 -37 -281t-111.5 -228.5t-199 -157t-287.5 -56.5q-135 0 -244 39.5t-181.5 106.5t-121 160t-69.5 196.5t-21 220.5v741h283v-741q0 -96 18.5 -177.5t58 -149.5t110 -107t165.5 -39zM811 1876 l-176 -297l-135 53l98 244h213zM1141 1876l-178 -297l-134 53l97 244h215z" />
<glyph unicode="&#x171;" horiz-adv-x="1273" d="M451 -20q-166 0 -252 107t-86 314v672h274v-612q0 -248 178 -248q85 0 159 50t120 145v665h274v-758q0 -43 16.5 -62t57.5 -20v-233q-80 -14 -133 -14q-72 0 -115.5 33.5t-52.5 93.5l-6 88q-73 -109 -184.5 -165t-249.5 -56zM662 1495l-177 -297l-135 53l99 244h213z M991 1495l-178 -297l-133 53l96 244h215z" />
<glyph unicode="&#x172;" horiz-adv-x="1531" d="M764 240q97 0 168.5 39.5t111 108.5t58 149.5t18.5 175.5v741h281v-741q0 -146 -34 -270.5t-102.5 -223t-181.5 -158.5t-262 -69q-157 -91 -157 -178q0 -76 127 -82l-58 -135q-104 17 -160.5 65t-56.5 113q0 117 162 221q-116 12 -209.5 57t-156 112t-104.5 156 t-60.5 186t-18.5 206v741h283v-741q0 -96 18.5 -177.5t58 -149.5t110 -107t165.5 -39z" />
<glyph unicode="&#x173;" horiz-adv-x="1273" d="M451 -20q-166 0 -252 107t-86 314v672h274v-612q0 -248 178 -248q85 0 159 50t120 145v665h274v-758q0 -43 16.5 -62t57.5 -20v-233q-168 -99 -168 -184q0 -76 127 -82l-57 -135q-104 17 -160.5 65t-56.5 113q0 111 147 211q-117 15 -133 125l-6 88q-73 -109 -184.5 -165 t-249.5 -56z" />
<glyph unicode="&#x174;" horiz-adv-x="2156" d="M903 1602l-143 65l217 207h199l217 -207l-142 -65l-174 129zM897 788l-244 662h260l164 -481l164 481h262l-248 -662l185 -464l411 1130h308l-592 -1454h-238l-252 610l-252 -610h-237l-590 1454h305l414 -1130z" />
<glyph unicode="&#x175;" horiz-adv-x="1730" d="M692 1223l-143 65l217 207h199l217 -207l-142 -65l-174 129zM1143 258l317 815h262l-448 -1073h-225l-185 471l-182 -471h-225l-449 1073h260l320 -815l131 348l-189 465h222l112 -330l115 330h221l-186 -465z" />
<glyph unicode="&#x176;" horiz-adv-x="1318" d="M-8 1454h307l358 -700l365 700h305l-528 -946v-508h-281v512zM485 1602l-143 65l217 207h199l217 -207l-141 -65l-175 129z" />
<glyph unicode="&#x177;" horiz-adv-x="1114" d="M137 -446v237q63 -18 121 -18q55 0 90 45.5t78 181.5l-426 1073h283l292 -835l259 835h258l-453 -1286q-43 -121 -137 -188.5t-219 -67.5q-69 0 -146 23zM403 1223l-143 65l217 207h199l217 -207l-141 -65l-174 129z" />
<glyph unicode="&#x178;" horiz-adv-x="1318" d="M-8 1454h307l358 -700l365 700h305l-528 -946v-508h-281v512zM575 1618h-227v244h227v-244zM969 1618h-228v244h228v-244z" />
<glyph unicode="&#x179;" horiz-adv-x="1275" d="M926 1874l-191 -297l-176 53l111 244h256zM57 0v213l822 993h-799v248h1124v-213l-794 -993h800v-248h-1153z" />
<glyph unicode="&#x17a;" horiz-adv-x="1003" d="M770 1495l-190 -297l-177 53l111 244h256zM51 0v168l596 713h-573v192h862v-168l-594 -712h604v-193h-895z" />
<glyph unicode="&#x17b;" horiz-adv-x="1275" d="M57 0v213l822 993h-799v248h1124v-213l-794 -993h800v-248h-1153zM788 1616h-247v258h247v-258z" />
<glyph unicode="&#x17c;" horiz-adv-x="1003" d="M51 0v168l596 713h-573v192h862v-168l-594 -712h604v-193h-895zM631 1237h-248v258h248v-258z" />
<glyph unicode="&#x17d;" horiz-adv-x="1275" d="M346 1808l143 66l175 -129l174 129l141 -66l-217 -206h-199zM57 0v213l822 993h-799v248h1124v-213l-794 -993h800v-248h-1153z" />
<glyph unicode="&#x17e;" horiz-adv-x="1003" d="M190 1430l144 65l174 -129l174 129l141 -65l-217 -207h-198zM51 0v168l596 713h-573v192h862v-168l-594 -712h604v-193h-895z" />
<glyph unicode="&#x192;" horiz-adv-x="1122" d="M332 -401q-165 0 -273 96l119 186q45 -45 121 -45q55 0 93 38t38 97v766h-139v211h139v133q0 199 97.5 317t260.5 118q131 0 265 -64l-56 -207q-70 39 -149 39q-70 0 -106.5 -49t-36.5 -143v-144h262v-211h-262v-760q0 -165 -108.5 -271.5t-264.5 -106.5z" />
<glyph unicode="&#x1ea;" horiz-adv-x="1515" d="M723 -403q-104 17 -160.5 65t-56.5 113q0 117 162 221q-132 17 -246 85.5t-190.5 168t-120 224t-43.5 253.5q0 144 53 278.5t144 235.5t221 162t276 61q120 0 229 -41.5t191 -114t142.5 -166t92 -201.5t31.5 -218q0 -183 -80.5 -344t-227 -265.5t-327.5 -119.5 q-160 -97 -160 -180q0 -76 127 -82zM352 727q0 -128 47.5 -237.5t142.5 -179.5t218 -70q94 0 172 42t127.5 111.5t76.5 156t27 177.5q0 127 -48 237t-142 179t-215 69q-94 0 -172.5 -42t-128.5 -111t-77.5 -155t-27.5 -177z" />
<glyph unicode="&#x1eb;" horiz-adv-x="1243" d="M653 -408q-104 17 -160.5 65.5t-56.5 113.5q0 110 146 211q-119 7 -218.5 54t-165.5 122.5t-102.5 172.5t-36.5 204q0 112 40 213t111 177.5t178.5 121.5t234.5 45q169 0 298.5 -77.5t196 -203t66.5 -276.5q0 -130 -51.5 -243.5t-152.5 -194t-235 -105.5 q-161 -99 -161 -182q0 -76 127 -82zM342 535q0 -140 80.5 -231t200.5 -91q119 0 199.5 92t80.5 232q0 139 -80.5 230t-199.5 91t-200 -92t-81 -231z" />
<glyph unicode="&#x1fa;" horiz-adv-x="1382" d="M975 1880l-158 -225q74 -44 74 -127q0 -82 -66 -125l553 -1403h-299l-133 362h-510l-133 -362h-299l553 1405q-63 44 -63 123q0 117 124 149l101 203h256zM895 561l-203 588l-209 -588h412zM692 1602q-35 0 -58.5 -20.5t-23.5 -53.5q0 -31 23.5 -52.5t58.5 -21.5 q33 0 58.5 21.5t25.5 52.5q0 33 -24 53.5t-60 20.5z" />
<glyph unicode="&#x1fb;" horiz-adv-x="1183" d="M418 -20q-157 0 -262 96.5t-105 242.5q0 153 128 250t329 97q154 0 262 -48v62q0 107 -61 164t-179 57q-161 0 -335 -121l-84 174q209 138 446 138q231 0 359 -115t128 -328v-334q0 -43 17 -61.5t57 -20.5v-233q-71 -14 -131 -14q-147 3 -170 127l-6 59 q-72 -93 -173.5 -142.5t-219.5 -49.5zM496 180q69 0 131.5 24.5t97.5 65.5q45 36 45 78v123q-108 41 -217 41q-105 0 -173.5 -48t-68.5 -122q0 -69 53.5 -115.5t131.5 -46.5zM819 1843l-190 -297l-176 53l110 244h256zM358 1337q0 74 54 116t145 42t145 -42t54 -116 t-54 -115.5t-145 -41.5t-145 41.5t-54 115.5zM557 1411q-35 0 -58.5 -20.5t-23.5 -53.5q0 -31 23.5 -52t58.5 -21q33 0 58.5 21t25.5 52q0 33 -24 53.5t-60 20.5z" />
<glyph unicode="&#x1fc;" horiz-adv-x="2009" d="M1462 1874l-190 -297l-176 53l110 244h256zM-29 0l910 1454h1034v-248h-682v-342h571v-248h-571v-368h700v-248h-979v362h-467l-215 -362h-301zM608 608h326v529z" />
<glyph unicode="&#x1fd;" horiz-adv-x="1921" d="M1194 1495l-190 -297l-177 53l111 244h256zM420 -20q-157 0 -262 96.5t-105 242.5q0 153 128 250t329 97q142 0 242 -41q5 57 16 90q-18 186 -236 186q-160 0 -337 -121l-82 174q209 138 446 138q248 0 375 -152q149 152 381 152q170 0 299.5 -77t196 -202t67.5 -276 q0 -53 -6 -88h-840q9 -122 93.5 -195.5t201.5 -73.5q83 0 155.5 40.5t98.5 105.5l236 -66q-60 -126 -193 -203t-307 -77q-149 0 -267.5 59t-191.5 162q-69 -109 -191.5 -165t-246.5 -56zM498 180q69 0 131.5 24.5t99.5 65.5q43 34 43 74q-13 26 -20 133q-103 35 -197 35 q-106 0 -175 -48t-69 -122q0 -69 54.5 -115.5t132.5 -46.5zM1028 618h567q-11 123 -89 199t-195 76t-195.5 -76t-87.5 -199z" />
<glyph unicode="&#x1fe;" horiz-adv-x="1519" d="M1114 1454h305l-157 -225q89 -104 137.5 -236.5t48.5 -269.5q0 -143 -52.5 -276.5t-142.5 -234.5t-220 -161.5t-277 -60.5q-167 0 -307 76l-46 -66h-303l154 221q-89 103 -137.5 234.5t-48.5 271.5q0 144 53 278.5t144 235.5t221 162t276 61q162 0 305 -78zM352 727 q0 -149 66 -272l502 721q-74 36 -162 36q-94 0 -172.5 -42t-128.5 -111t-77.5 -155t-27.5 -177zM1163 727q0 147 -65 268l-502 -721q69 -34 164 -34q94 0 172 42t127.5 111.5t76.5 156t27 177.5zM1024 1874l-190 -297l-177 53l111 244h256z" />
<glyph unicode="&#x1ff;" horiz-adv-x="1239" d="M102 -8l119 139q-79 78 -121.5 182.5t-42.5 221.5q0 112 40 213t111 177.5t178.5 121.5t234.5 45q161 0 294 -76l56 65h155l-114 -137q82 -76 126 -182.5t44 -226.5q0 -111 -39 -211.5t-109.5 -177t-177.5 -121.5t-235 -45q-176 0 -306 79l-57 -67h-156zM621 213 q119 0 199.5 92t80.5 232q0 116 -59 204l-371 -483q67 -45 150 -45zM340 535q0 -118 55 -201l367 483q-62 41 -141 41q-119 0 -200 -92t-81 -231zM881 1495l-191 -297l-176 53l111 244h256z" />
<glyph unicode="&#x218;" horiz-adv-x="1259" d="M483 -391v112q68 0 68 52v131h223v-142q0 -49 -21 -80.5t-63.5 -47t-89.5 -20.5t-117 -5zM1145 1303l-125 -230q-37 41 -156 92.5t-235 51.5q-114 0 -173 -42.5t-59 -121.5q0 -22 4.5 -40.5t17 -34.5t25 -28t38 -24t45.5 -20.5t58.5 -20t65.5 -19t78 -20.5 q93 -24 159.5 -47.5t128 -59t98.5 -79t59 -105t22 -139.5q0 -113 -43 -198.5t-119.5 -135.5t-170.5 -74t-206 -24q-163 0 -323.5 49.5t-286.5 138.5l125 244q52 -52 198 -115t292 -63q115 0 174 38.5t59 110.5q0 37 -16.5 65.5t-48 50.5t-74.5 39t-100.5 34t-120.5 34 q-11 2 -17 4q-218 60 -315 146.5t-97 247.5q0 144 72 249t190.5 156t268.5 51q270 0 508 -161z" />
<glyph unicode="&#x219;" horiz-adv-x="1040" d="M362 -391v112q68 0 68 52v131h223v-142q0 -49 -21 -80.5t-63.5 -47t-89.5 -20.5t-117 -5zM547 -20q-134 0 -276 39t-236 104l110 186q204 -133 396 -133q87 0 135.5 31t48.5 88q0 54 -53.5 82t-200.5 63q-215 50 -299 114t-84 185q0 161 122 258t310 97q229 0 441 -133 l-113 -170q-169 108 -330 108q-78 0 -126 -30.5t-48 -90.5q0 -53 43.5 -77.5t175.5 -57.5q238 -58 333 -125.5t95 -198.5q0 -156 -120.5 -247.5t-323.5 -91.5z" />
<glyph unicode="&#x21a;" horiz-adv-x="1269" d="M463 -391v112q67 0 67 52v131h224v-142q0 -49 -21 -80.5t-63.5 -47t-89.5 -20.5t-117 -5zM1239 1454v-248h-463v-1206h-282v1206h-465v248h1210z" />
<glyph unicode="&#x21b;" horiz-adv-x="782" d="M281 -391v112q67 0 67 52v131h223v-142q0 -39 -15 -67.5t-39 -45t-63 -25.5t-78.5 -12t-94.5 -3zM713 272l55 -217q-164 -73 -305 -73q-59 0 -108 15t-88 45.5t-61 82.5t-22 121v616h-139v211h139v348h275v-348h227v-211h-227v-524q0 -54 29 -79.5t75 -25.5q58 0 150 39z " />
<glyph unicode="&#x237;" d="M25 -401q-165 0 -273 96l117 186q48 -45 121 -45q55 0 94 38t39 97v1102h274v-1081q0 -171 -107.5 -282t-264.5 -111z" />
<glyph unicode="&#x259;" horiz-adv-x="1228" d="M608 -20q-170 0 -299.5 77t-196 202t-67.5 276q0 53 6 88h830q-10 122 -92 195t-193 73q-83 0 -155.5 -40.5t-98.5 -105.5l-236 66q60 126 193 203.5t307 77.5q168 0 298.5 -76t198.5 -201.5t68 -275.5q0 -114 -39.5 -215.5t-110.5 -178t-178 -121t-235 -44.5zM612 178 q112 0 188 76.5t85 198.5h-555q9 -121 89.5 -198t192.5 -77z" />
<glyph unicode="&#x2bc;" horiz-adv-x="770" d="M602 1495l-190 -297l-174 53l69 150l-14 94h309z" />
<glyph unicode="&#x2c6;" horiz-adv-x="755" d="M205 1223l-144 65l218 207h198l217 -207l-141 -65l-174 129z" />
<glyph unicode="&#x2c7;" horiz-adv-x="755" d="M61 1430l144 65l174 -129l174 129l141 -65l-217 -207h-198z" />
<glyph unicode="&#x2d8;" horiz-adv-x="671" d="M336 1343q46 0 81.5 43.5t41.5 108.5h145q0 -119 -75.5 -196.5t-192.5 -77.5t-192.5 77.5t-75.5 196.5h147q0 -61 36.5 -106.5t84.5 -45.5z" />
<glyph unicode="&#x2d9;" horiz-adv-x="452" d="M350 1237h-248v258h248v-258z" />
<glyph unicode="&#x2da;" horiz-adv-x="536" d="M70 1337q0 74 54 116t144 42q91 0 145 -42t54 -116t-54 -115.5t-145 -41.5t-144.5 41.5t-53.5 115.5zM268 1411q-35 0 -58.5 -20.5t-23.5 -53.5q0 -31 23.5 -52t58.5 -21q33 0 58.5 21t25.5 52q0 33 -24 53.5t-60 20.5z" />
<glyph unicode="&#x2db;" horiz-adv-x="593" d="M350 -401q-104 17 -160.5 65t-56.5 113q0 69 61.5 137.5t182.5 128.5l72 -43q-168 -99 -168 -184q0 -76 127 -82z" />
<glyph unicode="&#x2dc;" horiz-adv-x="894" d="M582 1233q-52 0 -100.5 23t-90 46t-78.5 23q-26 0 -45.5 -10t-29 -22.5t-15.5 -28.5t-7 -24.5t-1 -12.5h-152q0 18 7.5 47t25.5 67t44 70.5t69 55t94 22.5q42 0 81 -15t64 -33t59 -33t66 -15q28 0 49 10t32 23.5t18 29.5t8.5 25t1.5 14h152q0 -14 -7.5 -42t-27 -66.5 t-46.5 -72.5t-72 -57.5t-99 -23.5z" />
<glyph unicode="&#x2dd;" horiz-adv-x="749" d="M379 1495l-176 -297l-135 53l98 244h213zM709 1495l-179 -297l-133 53l97 244h215z" />
<glyph unicode="&#x3bc;" horiz-adv-x="1288" d="M123 -434v1507h274v-612q0 -248 185 -248q78 0 151 50t119 145v665h274v-758q0 -43 16.5 -62t57.5 -20v-233q-80 -14 -133 -14q-71 0 -114 33.5t-54 93.5l-6 88q-37 -81 -133 -151t-197 -70q-74 0 -120.5 37t-63.5 83l18 -534h-274z" />
<glyph unicode="&#x1e44;" horiz-adv-x="1562" d="M905 1616h-248v258h248v-258zM1182 0l-748 932v-932h-282v1454h219l757 -954v952h283v-1452h-229z" />
<glyph unicode="&#x1e45;" horiz-adv-x="1232" d="M770 1237h-248v258h248v-258zM1120 670v-670h-274v602q0 248 -170 248q-85 0 -167 -64t-112 -159v-627h-274v1073h248v-199q60 102 173 160t253 58q78 0 136.5 -24.5t93.5 -63.5t56.5 -96t29 -113.5t7.5 -124.5z" />
<glyph unicode="&#x1e80;" horiz-adv-x="2156" d="M897 788l-244 662h260l164 -481l164 481h262l-248 -662l185 -464l411 1130h308l-592 -1454h-238l-252 610l-252 -610h-237l-590 1454h305l414 -1130zM1006 1579l-191 297h254l113 -244z" />
<glyph unicode="&#x1e81;" horiz-adv-x="1730" d="M1143 258l317 815h262l-448 -1073h-225l-185 471l-182 -471h-225l-449 1073h260l320 -815l131 348l-189 465h222l112 -330l115 330h221l-186 -465zM795 1198l-191 297h254l113 -244z" />
<glyph unicode="&#x1e82;" horiz-adv-x="2156" d="M1337 1874l-190 -297l-176 53l110 244h256zM897 788l-244 662h260l164 -481l164 481h262l-248 -662l185 -464l411 1130h308l-592 -1454h-238l-252 610l-252 -610h-237l-590 1454h305l414 -1130z" />
<glyph unicode="&#x1e83;" horiz-adv-x="1730" d="M1126 1495l-190 -297l-176 53l110 244h256zM1143 258l317 815h262l-448 -1073h-225l-185 471l-182 -471h-225l-449 1073h260l320 -815l131 348l-189 465h222l112 -330l115 330h221l-186 -465z" />
<glyph unicode="&#x1e84;" horiz-adv-x="2156" d="M993 1618h-227v244h227v-244zM1386 1618h-227v244h227v-244zM897 788l-244 662h260l164 -481l164 481h262l-248 -662l185 -464l411 1130h308l-592 -1454h-238l-252 610l-252 -610h-237l-590 1454h305l414 -1130z" />
<glyph unicode="&#x1e85;" horiz-adv-x="1730" d="M782 1237h-227v244h227v-244zM1176 1237h-228v244h228v-244zM1143 258l317 815h262l-448 -1073h-225l-185 471l-182 -471h-225l-449 1073h260l320 -815l131 348l-189 465h222l112 -330l115 330h221l-186 -465z" />
<glyph unicode="&#x1ebc;" horiz-adv-x="1236" d="M434 248h727v-248h-1009v1454h991v-248h-709v-350h613v-229h-613v-379zM797 1612q-52 0 -100.5 23t-90 46t-78.5 23q-26 0 -45.5 -10t-29 -22.5t-15.5 -28.5t-7 -24.5t-1 -12.5h-151q0 24 13 63.5t38.5 86t75 79.5t112.5 33q42 0 81 -15t64 -33t59 -33t66 -15q28 0 49 10 t32 23.5t18 29.5t8.5 25t1.5 14h152q0 -14 -7.5 -42t-27 -66.5t-46.5 -72.5t-72 -57.5t-99 -23.5z" />
<glyph unicode="&#x1ebd;" horiz-adv-x="1228" d="M623 -20q-168 0 -299 76t-199 200.5t-68 273.5q0 153 68 280.5t199 204.5t301 77q128 0 234.5 -45t177 -121.5t109 -175.5t38.5 -209q0 -57 -6 -92h-830q10 -122 92 -195.5t193 -73.5q83 0 155.5 40.5t98.5 105.5l235 -66q-60 -126 -192.5 -203t-306.5 -77zM344 627h557 q-10 119 -88.5 192.5t-191.5 73.5q-112 0 -190 -73.5t-87 -192.5zM750 1233q-52 0 -100.5 23t-90 46t-78.5 23q-26 0 -45.5 -10t-29 -22.5t-15.5 -28.5t-7 -24.5t-1 -12.5h-152q0 18 7.5 47t25.5 67t44 70.5t69 55t94 22.5q42 0 81 -15t64 -33t59 -33t66 -15q28 0 49 10 t32 23.5t18 29.5t8.5 25t1.5 14h151q0 -11 -5.5 -33t-17 -52t-32 -60.5t-46.5 -57t-65.5 -43t-84.5 -16.5z" />
<glyph unicode="&#x1ef2;" horiz-adv-x="1318" d="M-8 1454h307l358 -700l365 700h305l-528 -946v-508h-281v512zM588 1579l-191 297h254l113 -244z" />
<glyph unicode="&#x1ef3;" horiz-adv-x="1114" d="M137 -446v237q63 -18 121 -18q55 0 90 45.5t78 181.5l-426 1073h283l292 -835l259 835h258l-453 -1286q-43 -121 -137 -188.5t-219 -67.5q-69 0 -146 23zM506 1198l-191 297h254l113 -244z" />
<glyph unicode="&#x1ef8;" horiz-adv-x="1318" d="M-8 1454h307l358 -700l365 700h305l-528 -946v-508h-281v512zM786 1612q-52 0 -100 23t-89.5 46t-78.5 23q-26 0 -45.5 -10t-29 -22.5t-15.5 -28.5t-7 -24.5t-1 -12.5h-152q0 18 7.5 47t25.5 67t44 70.5t69 55t94 22.5q42 0 81 -15t64 -33t59 -33t66 -15q28 0 49 10 t32 23.5t18 29.5t8.5 25t1.5 14h151q0 -14 -7.5 -42t-27 -66.5t-46.5 -72.5t-72 -57.5t-99 -23.5z" />
<glyph unicode="&#x1ef9;" horiz-adv-x="1114" d="M137 -446v237q63 -18 121 -18q55 0 90 45.5t78 181.5l-426 1073h283l292 -835l259 835h258l-453 -1286q-43 -121 -137 -188.5t-219 -67.5q-69 0 -146 23zM705 1233q-52 0 -100.5 23t-90 46t-78.5 23q-26 0 -45.5 -10t-29 -22.5t-15.5 -28.5t-7 -24.5t-1 -12.5h-152 q0 18 7.5 47t25.5 67t44 70.5t69 55t94 22.5q42 0 81 -15t64 -33t59 -33t66 -15q28 0 49 10t32 23.5t18 29.5t8.5 25t1.5 14h151q0 -11 -5.5 -33t-17 -52t-32 -60.5t-46.5 -57t-65.5 -43t-84.5 -16.5z" />
<glyph unicode="&#x2000;" horiz-adv-x="945" />
<glyph unicode="&#x2001;" horiz-adv-x="1890" />
<glyph unicode="&#x2002;" horiz-adv-x="945" />
<glyph unicode="&#x2003;" horiz-adv-x="1890" />
<glyph unicode="&#x2004;" horiz-adv-x="630" />
<glyph unicode="&#x2005;" horiz-adv-x="472" />
<glyph unicode="&#x2006;" horiz-adv-x="315" />
<glyph unicode="&#x2007;" horiz-adv-x="315" />
<glyph unicode="&#x2008;" horiz-adv-x="236" />
<glyph unicode="&#x2009;" horiz-adv-x="378" />
<glyph unicode="&#x200a;" horiz-adv-x="105" />
<glyph unicode="&#x2010;" horiz-adv-x="854" d="M737 438h-620v248h620v-248z" />
<glyph unicode="&#x2011;" horiz-adv-x="854" d="M737 438h-620v248h620v-248z" />
<glyph unicode="&#x2012;" horiz-adv-x="854" d="M737 438h-620v248h620v-248z" />
<glyph unicode="&#x2013;" horiz-adv-x="1232" d="M1116 438h-999v248h999v-248z" />
<glyph unicode="&#x2014;" horiz-adv-x="1898" d="M1780 438h-1663v248h1663v-248z" />
<glyph unicode="&#x2018;" horiz-adv-x="497" d="M389 1210v-194q-52 0 -100.5 10t-94 32.5t-73 65.5t-27.5 101v270h225v-219q2 -26 16.5 -42t28 -20t25.5 -4z" />
<glyph unicode="&#x2019;" horiz-adv-x="499" d="M90 1300v195q52 0 100.5 -10t94 -32.5t73 -65.5t27.5 -101v-270h-225v219q-3 37 -25.5 51t-44.5 14z" />
<glyph unicode="&#x201a;" horiz-adv-x="483" d="M66 -231v194q12 0 25.5 4t27.5 19.5t14 40.5v268h225v-318q0 -58 -27.5 -101t-72.5 -65t-93 -32t-99 -10z" />
<glyph unicode="&#x201c;" horiz-adv-x="892" d="M389 1210v-194q-52 0 -100.5 10t-94 32.5t-73 65.5t-27.5 101v270h225v-219q2 -26 16.5 -42t28 -20t25.5 -4zM786 1210v-194q-52 0 -100 10t-93.5 32.5t-73 65.5t-27.5 101v270h225v-219q2 -26 16 -42t27.5 -20t25.5 -4z" />
<glyph unicode="&#x201d;" horiz-adv-x="897" d="M90 1300v195q52 0 100.5 -10t94 -32.5t73 -65.5t27.5 -101v-270h-225v219q-3 37 -25.5 51t-44.5 14zM485 1300v195q52 0 100.5 -10t94 -32.5t73 -65.5t27.5 -101v-270h-225v219q-3 37 -25.5 51t-44.5 14z" />
<glyph unicode="&#x201e;" horiz-adv-x="856" d="M66 -231v194q12 0 25.5 4t27.5 19.5t14 40.5v268h225v-318q0 -58 -27.5 -101t-72.5 -65t-93 -32t-99 -10zM438 -231v194q13 0 26.5 4t27.5 19.5t14 40.5v268h225v-318q0 -58 -27.5 -101t-73 -65t-93.5 -32t-99 -10z" />
<glyph unicode="&#x2020;" horiz-adv-x="954" d="M608 -266h-262v698h-270v246h270v909h262v-909h269v-246h-269v-698z" />
<glyph unicode="&#x2021;" horiz-adv-x="974" d="M618 -266h-260v475h-270v246h270v229h-270v248h270v655h260v-655h269v-248h-269v-229h269v-246h-269v-475z" />
<glyph unicode="&#x2022;" horiz-adv-x="743" d="M586 717q0 -89 -62 -152t-151 -63q-88 0 -151.5 63t-63.5 152q0 88 63.5 150.5t151.5 62.5q89 0 151 -62.5t62 -150.5z" />
<glyph unicode="&#x2026;" horiz-adv-x="1230" d="M342 0h-225v295h225v-295zM727 0h-223v295h223v-295zM1114 0h-227v295h227v-295z" />
<glyph unicode="&#x202f;" horiz-adv-x="378" />
<glyph unicode="&#x2030;" horiz-adv-x="2400" d="M424 854q-141 0 -239.5 90.5t-98.5 220.5q0 129 98.5 219.5t239.5 90.5t239.5 -90.5t98.5 -219.5q0 -130 -98.5 -220.5t-239.5 -90.5zM424 991q60 0 102.5 51.5t42.5 122.5q0 70 -43 121t-102 51q-60 0 -102.5 -51.5t-42.5 -120.5q0 -72 43 -123t102 -51zM1214 -20 q-141 0 -239 90t-98 219q0 130 98 220.5t239 90.5t239.5 -90.5t98.5 -220.5q0 -129 -98.5 -219t-239.5 -90zM1214 117q60 0 103 51.5t43 120.5q0 71 -43.5 122.5t-102.5 51.5q-60 0 -102.5 -51.5t-42.5 -122.5t42.5 -121.5t102.5 -50.5zM1995 -20q-140 0 -238 90t-98 219 q0 130 98 220.5t238 90.5q142 0 240 -90t98 -221q0 -129 -98 -219t-240 -90zM1995 117q61 0 103 51t42 121q0 72 -43 123t-102 51q-60 0 -103 -51.5t-43 -122.5q0 -70 43.5 -121t102.5 -51zM326 -14l-125 110l577 674l533 700l125 -110l-566 -660z" />
<glyph unicode="&#x2039;" horiz-adv-x="731" d="M76 457v133l538 387v-223l-321 -224l321 -211v-225z" />
<glyph unicode="&#x203a;" horiz-adv-x="731" d="M657 590v-133l-540 -363v225l323 211l-323 224v223z" />
<glyph unicode="&#x2044;" horiz-adv-x="409" d="M-287 -14l-125 110l578 674l532 700l125 -110l-565 -660z" />
<glyph unicode="&#x205f;" horiz-adv-x="472" />
<glyph unicode="&#x2070;" horiz-adv-x="999" d="M500 621q-103 0 -188 40.5t-137.5 105.5t-80.5 140t-28 150q0 79 30.5 156.5t85 140.5t138 102t180.5 39q103 0 188 -41.5t137 -107.5t80.5 -141t28.5 -148q0 -63 -19 -125.5t-57 -118.5t-89.5 -99t-121 -68t-147.5 -25zM233 1057q0 -67 28.5 -127.5t91.5 -103t147 -42.5 q66 0 119.5 26t84.5 67.5t47.5 88t16.5 91.5q0 67 -29.5 128.5t-92.5 104.5t-146 43q-66 0 -119 -26.5t-84 -68t-47.5 -88.5t-16.5 -93z" />
<glyph unicode="&#x2074;" horiz-adv-x="839" d="M657 635h-161v186h-453v160l504 514h110v-514h125v-160h-125v-186zM502 1296l-301 -315h301v315z" />
<glyph unicode="&#x2075;" horiz-adv-x="811" d="M418 1192q144 0 240 -78.5t96 -200.5q0 -128 -105 -210t-266 -82q-107 0 -195.5 39.5t-134.5 107.5l97 109q89 -99 241 -99q87 0 142 37.5t55 106.5q0 70 -55.5 108.5t-124.5 38.5q-55 0 -108 -25.5t-79 -66.5h-143q13 66 59 256.5t58 261.5h495v-162h-377l-49 -178 q57 37 154 37z" />
<glyph unicode="&#x2076;" horiz-adv-x="870" d="M811 913q0 -127 -106.5 -214t-264.5 -87q-170 0 -270 107.5t-100 296.5q0 228 105.5 353.5t287.5 125.5q94 0 174 -34t131 -97l-94 -115q-32 43 -90.5 67.5t-126.5 24.5q-105 0 -169 -59t-67 -164q31 38 95.5 60t132.5 22q157 0 259.5 -82.5t102.5 -204.5zM444 762 q86 0 148.5 44.5t62.5 106.5q0 61 -62 103.5t-151 42.5q-88 0 -150.5 -42.5t-62.5 -103.5t64 -106t151 -45z" />
<glyph unicode="&#x2077;" horiz-adv-x="788" d="M102 635l437 698h-490v162h746l-508 -860h-185z" />
<glyph unicode="&#x2078;" horiz-adv-x="862" d="M795 885q0 -75 -50 -136t-133.5 -94.5t-181.5 -33.5q-154 0 -259 77t-105 191q0 131 174 205q-142 56 -142 166q0 67 50.5 122.5t126 84t155.5 28.5q126 0 229 -66t103 -165q0 -59 -39.5 -102t-104.5 -68q177 -71 177 -209zM629 901q0 53 -60.5 87t-138.5 34 q-81 0 -141 -34.5t-60 -86.5q0 -51 63 -84t140 -33q78 0 137.5 33t59.5 84zM262 1247q0 -42 51.5 -67t116.5 -25q64 0 116 25t52 67q0 41 -50 66.5t-118 25.5q-69 0 -118.5 -26t-49.5 -66z" />
<glyph unicode="&#x2079;" horiz-adv-x="870" d="M61 1194q0 126 106.5 213.5t262.5 87.5q170 0 270.5 -107t100.5 -296q0 -228 -104.5 -354t-286.5 -126q-94 0 -175.5 35t-132.5 98l97 113q31 -43 89.5 -67.5t127.5 -24.5q104 0 168 60t65 163q-30 -37 -94.5 -59.5t-134.5 -22.5q-154 0 -256.5 82.5t-102.5 204.5z M428 1346q-87 0 -149 -45t-62 -107q0 -60 62.5 -102.5t150.5 -42.5q86 0 148.5 42.5t62.5 102.5q0 62 -63.5 107t-149.5 45z" />
<glyph unicode="&#x2080;" horiz-adv-x="999" d="M500 -10q-103 0 -188 40.5t-137.5 105t-80.5 140t-28 150.5q0 78 30.5 155.5t85 140t138 101.5t180.5 39q103 0 188 -41.5t137 -106.5t80.5 -140t28.5 -148q0 -80 -30.5 -157.5t-85 -139.5t-138 -100.5t-180.5 -38.5zM233 426q0 -67 28.5 -128t91 -103.5t147.5 -42.5 q66 0 119.5 26t84.5 67.5t47.5 88t16.5 92.5q0 49 -18 97t-50.5 88t-84.5 64.5t-115 24.5q-66 0 -119 -26.5t-84 -68t-47.5 -88t-16.5 -91.5z" />
<glyph unicode="&#x2081;" horiz-adv-x="679" d="M459 160h182v-160h-543v160h197v536q-27 -32 -101.5 -68t-127.5 -36v162q45 0 102 29t90.5 55.5t36.5 31.5h164v-710z" />
<glyph unicode="&#x2082;" horiz-adv-x="864" d="M786 0h-725q0 166 60 255t211 151q17 7 53.5 21t55 22t48.5 22t46 26t33 28.5t24.5 35.5t7.5 41q0 54 -45.5 83.5t-130.5 29.5q-149 0 -252 -103l-104 119q40 52 141.5 96.5t239.5 44.5q163 0 249 -71.5t86 -200.5q0 -51 -19 -93.5t-45 -69.5t-66.5 -50.5t-70 -35 t-69.5 -23.5q-186 -58 -186 -168h458v-160z" />
<glyph unicode="&#x2083;" horiz-adv-x="835" d="M395 -10q-130 0 -218.5 42t-117.5 120l88 118q10 -36 77 -77t167 -41q91 0 151 28t60 78q0 57 -80 86t-225 29h-49v147h49q128 0 201 26.5t73 80.5q0 46 -53 71t-121 25q-148 0 -231 -100l-105 129q44 58 136.5 90t199.5 32q149 0 248.5 -67.5t99.5 -167.5 q0 -73 -50.5 -120t-143.5 -64q98 -13 156.5 -75t58.5 -147q0 -80 -54.5 -136.5t-136.5 -81.5t-180 -25z" />
<glyph unicode="&#x2084;" horiz-adv-x="839" d="M657 0h-161v190h-453v158l504 516h110v-514h125v-160h-125v-190zM502 664l-301 -314h301v314z" />
<glyph unicode="&#x2085;" horiz-adv-x="811" d="M416 559q144 0 240 -78t96 -200q0 -128 -105 -209.5t-266 -81.5q-107 0 -195.5 39t-134.5 106l96 109q91 -101 242 -101q87 0 142 38t55 108t-55.5 108.5t-124.5 38.5q-55 0 -108 -25.5t-79 -66.5h-143q13 66 59 257.5t58 262.5h495v-164h-377l-49 -178q57 37 154 37z " />
<glyph unicode="&#x2086;" horiz-adv-x="870" d="M811 289q0 -126 -106.5 -212.5t-264.5 -86.5q-171 0 -270.5 105.5t-99.5 295.5q0 228 105.5 353.5t287.5 125.5q95 0 174.5 -34.5t130.5 -98.5l-94 -112q-32 42 -90.5 66t-126.5 24q-106 0 -169.5 -58.5t-66.5 -162.5q31 38 95.5 59.5t132.5 21.5q157 0 259.5 -82 t102.5 -204zM444 137q86 0 148.5 45t62.5 105q0 62 -62 104.5t-151 42.5q-88 0 -150.5 -42.5t-62.5 -102.5q0 -61 64.5 -106.5t150.5 -45.5z" />
<glyph unicode="&#x2087;" horiz-adv-x="792" d="M102 0l439 700h-490v164h744l-508 -864h-185z" />
<glyph unicode="&#x2088;" horiz-adv-x="862" d="M795 252q0 -113 -107 -187.5t-258 -74.5q-154 0 -259 77t-105 189q0 129 174 207q-142 56 -142 166q0 67 50.5 121.5t126 83t155.5 28.5q126 0 229 -66t103 -165q0 -57 -39.5 -100t-104.5 -68q177 -75 177 -211zM629 270q0 53 -60.5 86t-138.5 33q-81 0 -141 -34.5 t-60 -86.5q0 -51 63 -83.5t140 -32.5q79 0 138 33t59 85zM262 614q0 -42 51.5 -67t116.5 -25q63 0 115.5 26t52.5 66t-50.5 66.5t-117.5 26.5q-69 0 -118.5 -26.5t-49.5 -66.5z" />
<glyph unicode="&#x2089;" horiz-adv-x="870" d="M61 569q0 126 106.5 213.5t262.5 87.5q170 0 270.5 -107t100.5 -296q0 -228 -104.5 -352.5t-286.5 -124.5q-95 0 -176.5 34t-131.5 97l97 112q30 -42 88.5 -66t128.5 -24q104 0 168 59t65 163q-30 -38 -95 -61t-134 -23q-155 0 -257 82.5t-102 205.5zM428 721 q-87 0 -149 -45.5t-62 -106.5q0 -60 62.5 -102.5t150.5 -42.5q86 0 148.5 42.5t62.5 102.5t-63.5 106t-149.5 46z" />
<glyph unicode="&#x20ac;" horiz-adv-x="1597" d="M158 893h100q23 114 79.5 215.5t141 181t203.5 126t256 46.5q189 0 333.5 -86t213.5 -231l-217 -150q-32 78 -91 128.5t-119.5 69.5t-127.5 19q-146 0 -244.5 -90t-136.5 -229h530l-61 -150h-492q0 -63 6 -106h482l-62 -152h-372q53 -113 145.5 -180t210.5 -67 q66 0 129 21.5t121.5 73t89.5 126.5l231 -133q-42 -104 -138 -183t-210.5 -117t-230.5 -38q-224 0 -396.5 141.5t-246.5 355.5h-215l61 152h117q-6 50 -6 106h-146z" />
<glyph unicode="&#x2122;" horiz-adv-x="1691" d="M690 1458v-178h-194v-438h-181v438h-194v178h569zM1165 1133l119 321h264v-612h-178v383l-131 -297h-145l-131 297v-383h-179v612h263z" />
<glyph unicode="&#x2153;" horiz-adv-x="1964" d="M1516 -10q-130 0 -218.5 42t-117.5 120l88 118q10 -36 76.5 -77t166.5 -41q91 0 151 28t60 78q0 57 -80 86t-225 29h-49v147h49q128 0 201.5 26.5t73.5 80.5q0 46 -53 71t-121 25q-149 0 -232 -100l-104 129q44 58 136.5 90t199.5 32q149 0 248.5 -67.5t99.5 -167.5 q0 -73 -51 -120t-144 -64q98 -13 156.5 -75t58.5 -147q0 -61 -31 -108.5t-84 -76.5t-117.5 -43.5t-137.5 -14.5zM449 786h145v-159h-469v159h160v535q-25 -32 -87 -68t-106 -36v163q38 0 85.5 28.5t76.5 55.5t31 33h164v-711zM399 -14l-125 110l578 674l532 700l125 -110 l-565 -660z" />
<glyph unicode="&#x2154;" horiz-adv-x="1996" d="M1546 -10q-130 0 -218.5 42t-117.5 120l88 118q10 -36 77 -77t167 -41q91 0 151 28t60 78q0 57 -80 86t-225 29h-49v147h49q128 0 201 26.5t73 80.5q0 46 -53 71t-121 25q-148 0 -231 -100l-105 129q44 58 136.5 90t199.5 32q149 0 248.5 -67.5t99.5 -167.5 q0 -73 -50.5 -120t-143.5 -64q98 -13 156.5 -75t58.5 -147q0 -80 -54.5 -136.5t-136.5 -81.5t-180 -25zM743 625h-655q0 166 55.5 254.5t196.5 150.5q15 7 59 25t62 26.5t50 26.5t45.5 33t25.5 37.5t12 48.5q0 54 -42.5 83t-121.5 29q-136 0 -240 -100l-96 117 q36 51 131.5 96t225.5 45q154 0 235.5 -71.5t81.5 -200.5q0 -51 -17.5 -94t-42.5 -70.5t-62.5 -51t-67 -35.5t-66.5 -24q-174 -56 -174 -166h405v-159zM512 -14l-125 110l578 674l532 700l125 -110l-565 -660z" />
<glyph unicode="&#x215b;" horiz-adv-x="1955" d="M1882 252q0 -113 -106.5 -187.5t-257.5 -74.5q-154 0 -259.5 77t-105.5 189q0 129 174 207q-62 24 -101.5 65.5t-39.5 100.5q0 67 50.5 121.5t126 83t155.5 28.5t155.5 -28t125.5 -82t50 -121q0 -57 -39 -100t-104 -68q176 -74 176 -211zM1716 270q0 53 -60 86t-138 33 q-81 0 -141 -34.5t-60 -86.5q0 -51 63 -83.5t140 -32.5q79 0 137.5 33t58.5 85zM1350 614q0 -42 51.5 -67t116.5 -25q63 0 115.5 26t52.5 66t-50.5 66.5t-117.5 26.5q-69 0 -118.5 -26.5t-49.5 -66.5zM446 786h146v-159h-469v159h160v535q-25 -32 -87 -68t-106 -36v163 q38 0 85.5 28.5t76.5 55.5t31 33h163v-711zM424 -14l-125 110l578 674l532 700l125 -110l-565 -660z" />
<glyph unicode="&#x215c;" horiz-adv-x="1982" d="M422 610q-129 0 -218 42.5t-118 119.5l88 121q10 -36 77 -76.5t167 -40.5q91 0 151 27.5t60 77.5q0 57 -80 85.5t-225 28.5h-50v150h50q274 0 274 106q0 44 -53.5 69.5t-120.5 25.5q-147 0 -231 -101l-105 131q44 57 137 89t199 32q149 0 248.5 -68t99.5 -169 q0 -71 -50.5 -118.5t-143.5 -64.5q98 -13 156.5 -74.5t58.5 -146.5q0 -80 -54.5 -137.5t-136.5 -83t-180 -25.5zM1907 252q0 -113 -107 -187.5t-258 -74.5q-154 0 -259 77t-105 189q0 129 174 207q-142 56 -142 166q0 67 50.5 121.5t126 83t155.5 28.5q126 0 229 -66 t103 -165q0 -57 -39 -100t-104 -68q176 -74 176 -211zM1741 270q0 53 -60.5 86t-138.5 33q-81 0 -141 -34.5t-60 -86.5q0 -51 63 -83.5t140 -32.5q79 0 138 33t59 85zM1374 614q0 -42 51.5 -67t116.5 -25q63 0 115.5 26t52.5 66t-50.5 66.5t-117.5 26.5q-69 0 -118.5 -26.5 t-49.5 -66.5zM498 -14l-125 110l577 674l533 700l125 -110l-566 -660z" />
<glyph unicode="&#x215d;" horiz-adv-x="2011" d="M1933 252q0 -113 -106.5 -187.5t-257.5 -74.5q-154 0 -259.5 77t-105.5 189q0 129 174 207q-62 24 -101.5 65.5t-39.5 100.5q0 67 50.5 121.5t126 83t155.5 28.5q126 0 229 -66t103 -165q0 -57 -39.5 -100t-104.5 -68q176 -74 176 -211zM1767 270q0 53 -60 86t-138 33 q-81 0 -141 -34.5t-60 -86.5q0 -51 63 -83.5t140 -32.5q79 0 137.5 33t58.5 85zM1401 614q0 -42 51.5 -67t116.5 -25q63 0 115.5 26t52.5 66t-50.5 66.5t-117.5 26.5q-69 0 -118.5 -26.5t-49.5 -66.5zM438 1192q144 0 240 -78.5t96 -200.5q0 -128 -105 -210t-266 -82 q-107 0 -195 39.5t-134 107.5l96 109q89 -99 242 -99q87 0 141.5 37.5t54.5 106.5q0 70 -55.5 108.5t-124.5 38.5q-55 0 -107.5 -25.5t-78.5 -66.5h-144q13 66 59 256.5t58 261.5h496v-162h-377l-49 -178q57 37 153 37zM498 -14l-125 110l577 674l533 700l125 -110 l-566 -660z" />
<glyph unicode="&#x215e;" horiz-adv-x="1906" d="M1833 252q0 -113 -107 -187.5t-258 -74.5q-154 0 -259 77t-105 189q0 129 174 207q-62 24 -101.5 65.5t-39.5 100.5q0 67 50 121.5t125.5 83t155.5 28.5q126 0 229 -66t103 -165q0 -57 -39 -100t-104 -68q176 -74 176 -211zM1667 270q0 53 -60.5 86t-138.5 33 q-81 0 -140.5 -34.5t-59.5 -86.5q0 -51 62.5 -83.5t139.5 -32.5q79 0 138 33t59 85zM1300 614q0 -42 51.5 -67t116.5 -25q63 0 115.5 26t52.5 66t-50.5 66.5t-117.5 26.5q-69 0 -118.5 -26.5t-49.5 -66.5zM319 -14l-124 110l577 674l533 700l125 -110l-566 -660zM139 635 l436 698h-489v162h745l-507 -860h-185z" />
<glyph unicode="&#x2212;" horiz-adv-x="1081" d="M954 561h-827v219h827v-219z" />
<glyph unicode="&#x2215;" horiz-adv-x="1261" d="M125 -14l-158 129l1170 1355l157 -131z" />
<glyph unicode="&#x2219;" horiz-adv-x="458" d="M342 496h-225v309h225v-309z" />
<glyph unicode="&#x25fc;" horiz-adv-x="1075" d="M0 1075h1075v-1075h-1075v1075z" />
<glyph unicode="&#xf6c3;" horiz-adv-x="411" d="M66 -391v112q67 0 67 52v131h223v-142q0 -39 -15 -67.5t-39 -45t-63 -25.5t-78.5 -12t-94.5 -3z" />
<glyph unicode="&#xfb06;" horiz-adv-x="1769" d="M1700 272l55 -217q-164 -73 -303 -73q-124 0 -201 64.5t-77 199.5v616h-142v211h142q-1 76 -4.5 125t-13.5 88.5t-28 60.5t-45.5 31.5t-68.5 10.5q-97 0 -146 -50.5t-49 -130.5q0 -70 31 -138.5t63 -104.5l-106 -172q-155 106 -303 106q-78 0 -128 -29t-50 -92 q0 -29 13 -51t30.5 -35t52.5 -24t60 -16t71 -13q213 -36 311.5 -105.5t98.5 -209.5q0 -165 -120 -254.5t-308 -89.5q-128 0 -264.5 40t-225.5 101l105 186q200 -131 378 -131q80 0 132.5 29t52.5 90q0 21 -5.5 37.5t-21 29t-27.5 21t-40.5 17t-43.5 12.5t-53.5 12t-54.5 12 q-102 23 -166 45.5t-117 56.5t-76.5 82.5t-23.5 116.5q0 111 59 194t149.5 123t194.5 40q161 0 267 -66q-52 99 -52 189q0 131 92.5 212.5t286.5 81.5q72 0 127 -10t93.5 -26.5t65.5 -47t43 -62.5t24.5 -82t11 -96t2.5 -114h225v-211h-225v-524q0 -54 28.5 -79.5t75.5 -25.5 q56 0 148 39z" />
<glyph horiz-adv-x="1214" d="M270 0h-264l500 1145h203l497 -1145h-262l-115 268h-444zM770 483l-162 361l-168 -361h330z" />
<glyph horiz-adv-x="1220" d="M1149 293q0 -139 -116 -216t-292 -77h-604v1145h674q125 0 205 -90t80 -205q0 -84 -47.5 -156t-133.5 -106q110 -30 172 -106t62 -189zM899 344q0 56 -41.5 96.5t-103.5 40.5h-369v-272h356q67 0 112.5 38.5t45.5 96.5zM717 932h-332v-256h322q61 0 102 34t41 95 q0 58 -38 92.5t-95 34.5z" />
<glyph horiz-adv-x="1220" d="M66 582q0 84 26 166t78 155t123.5 128t170 87.5t210.5 32.5q167 0 293 -67.5t186 -182.5l-190 -133q-41 86 -122 124t-173 38q-84 0 -152.5 -31.5t-111 -83t-65 -114t-22.5 -128.5q0 -149 100 -255.5t255 -106.5q91 0 175 41.5t122 124.5l202 -121q-56 -122 -202 -194 t-305 -72q-127 0 -240.5 51.5t-190.5 134.5t-122 189.5t-45 216.5z" />
<glyph horiz-adv-x="1296" d="M600 0h-463v1145h463q151 0 272 -44.5t197.5 -122.5t117 -181t40.5 -222q0 -261 -171.5 -418t-455.5 -157zM975 575q0 158 -100 255.5t-275 97.5h-215v-711h215q178 0 276.5 99t98.5 259z" />
<glyph horiz-adv-x="1099" d="M385 217h635v-217h-883v1145h867v-217h-619v-244h535v-203h-535v-264z" />
<glyph horiz-adv-x="1036" d="M385 0h-248v1145h854v-217h-606v-266h506v-203h-506v-459z" />
<glyph horiz-adv-x="1478" d="M782 -10q-123 0 -236 40.5t-199 112t-150 165t-97.5 203.5t-33.5 224q0 112 31.5 219.5t93.5 199.5t146.5 161.5t196.5 109t238 39.5q183 0 327 -80t230 -225l-223 -176q-16 29 -35 55.5t-51.5 60t-69 57.5t-87.5 41t-107 17q-124 0 -218 -72t-140 -181.5t-46 -233.5 q0 -89 26.5 -174t75 -155.5t127.5 -114t175 -43.5q135 0 238 83.5t134 198.5h-319v246h625q0 -2 -1 -67t-1 -70q-5 -129 -54.5 -246t-133 -204.5t-203.5 -139t-259 -51.5z" />
<glyph horiz-adv-x="1273" d="M979 0v117q-142 -125 -332 -125q-118 0 -226 48.5t-185 129t-122.5 188.5t-45.5 222q0 156 77.5 287.5t214.5 208.5t304 77t291.5 -67t187.5 -183l-189 -139q-42 79 -122.5 123.5t-176.5 44.5q-149 0 -243.5 -105t-94.5 -256q0 -154 100.5 -256t252.5 -102q170 0 309 145 v56h-254v180h459v-594h-205z" />
<glyph horiz-adv-x="1343" d="M958 1145h246v-1145h-246v475h-573v-475h-248v1145h248v-451h573v451z" />
<glyph horiz-adv-x="522" d="M385 0h-248v1145h248v-1145z" />
<glyph horiz-adv-x="901" d="M29 51l55 203q105 -51 221 -51q59 0 99.5 14.5t65 40t37.5 73t17 99t4 133.5v582h248v-582q0 -82 -4 -143t-16 -124.5t-33 -108t-56.5 -85.5t-84.5 -65t-118.5 -38.5t-158.5 -14.5q-163 0 -276 67z" />
<glyph horiz-adv-x="1214" d="M385 0h-248v1145h248v-535l547 535h260l-487 -510l516 -635h-260l-406 496l-170 -152v-344z" />
<glyph horiz-adv-x="1005" d="M971 0h-834v1145h248v-928h586v-217z" />
<glyph horiz-adv-x="522" d="M463 1495l-191 -297l-176 53l111 244h256z" />
<glyph horiz-adv-x="1556" d="M1419 0h-245v715l-328 -525h-135l-326 525v-715h-248v1145h269l374 -619l375 619h264v-1145z" />
<glyph horiz-adv-x="1374" d="M1036 0l-651 686v-686h-248v1145h193l659 -705v705h248v-1145h-201z" />
<glyph horiz-adv-x="1337" d="M668 -8q-130 0 -244.5 49.5t-191.5 130.5t-121.5 186t-44.5 215q0 113 46.5 218t125.5 184.5t193 127.5t241 48q131 0 245.5 -50.5t191 -132.5t120 -187t43.5 -214q0 -112 -45.5 -216.5t-124 -184t-192 -127t-242.5 -47.5zM317 571q0 -146 97.5 -253t257.5 -107 q108 0 189 54t120 135t39 173q0 93 -41.5 174t-122.5 132t-186 51q-81 0 -149.5 -31t-112 -82.5t-67.5 -115t-24 -130.5z" />
<glyph horiz-adv-x="1124" d="M385 0h-248v1145h537q114 0 209.5 -57.5t146.5 -145t51 -182.5q0 -99 -48.5 -186.5t-140.5 -143t-206 -55.5h-301v-375zM385 928v-336h285q71 0 115 44t44 124q0 79 -49.5 123.5t-120.5 44.5h-274z" />
<glyph horiz-adv-x="1341" d="M1063 0l-76 78q-146 -86 -319 -86q-130 0 -244.5 49.5t-191.5 130.5t-121.5 186t-44.5 215q0 113 46.5 218.5t125.5 185.5t193 128t241 48q131 0 245.5 -50.5t191 -133.5t120 -188t43.5 -214q0 -104 -40 -203t-112 -178l178 -186h-235zM672 213q88 0 153 35l-182 192h236 l77 -82q64 98 64 215q0 145 -97 252t-253 107q-81 0 -149.5 -31.5t-112 -83t-67.5 -115.5t-24 -131q0 -145 97.5 -251.5t257.5 -106.5z" />
<glyph horiz-adv-x="1218" d="M385 0h-248v1145h563q114 0 208.5 -57.5t145 -145t50.5 -182.5q0 -108 -61.5 -198.5t-165.5 -133.5l299 -428h-283l-266 375h-242v-375zM385 928v-336h309q68 0 114 48t46 120t-51 120t-119 48h-299z" />
<glyph horiz-adv-x="1097" d="M987 1026l-108 -203q-40 36 -134.5 73.5t-201.5 37.5q-88 0 -136.5 -28.5t-48.5 -80.5q0 -21 7.5 -38t28 -30.5t38 -23t58 -21t66 -17.5t81.5 -19q98 -22 165 -47.5t122 -64.5t81.5 -96t26.5 -134q0 -74 -24.5 -133.5t-67 -99t-102 -66t-126 -38t-141.5 -11.5 q-137 0 -274.5 38.5t-245.5 106.5l113 215q46 -48 164.5 -92.5t246.5 -44.5q191 0 191 102q0 17 -6.5 31.5t-16.5 25.5t-30.5 22.5t-39 19t-52.5 18t-60 17t-72 18.5q-211 54 -299 125.5t-88 202.5q0 115 61.5 198.5t162.5 123.5t227 40q230 0 434 -127z" />
<glyph horiz-adv-x="1130" d="M1094 1145v-217h-404v-928h-248v928h-405v217h1057z" />
<glyph horiz-adv-x="1327" d="M662 211q83 0 144 29t94 80t48 110t15 129v586h247v-586q0 -121 -32 -222t-96 -179t-171 -122t-247 -44q-116 0 -209 30.5t-155.5 83t-104 125t-60 154.5t-18.5 174v586h248v-586q0 -71 16 -131t49.5 -110t92.5 -78.5t139 -28.5z" />
<glyph horiz-adv-x="1218" d="M6 1145h262l342 -797l338 797h260l-495 -1145h-209z" />
<glyph horiz-adv-x="2254" d="M1925 1454h320l-457 -1454h-291l-373 993l-364 -993h-293l-455 1454h318l311 -1032l330 1032h305l340 -1030z" />
<glyph horiz-adv-x="1900" d="M791 614l-213 527h229l141 -371l144 371h229l-215 -527l149 -317l369 848h270l-516 -1145h-209l-219 461l-219 -461h-209l-516 1145h268l371 -848z" />
<glyph horiz-adv-x="1181" d="M6 1145h270l316 -406l313 406h271l-455 -580l440 -565h-268l-301 389l-301 -389h-271l439 565z" />
<glyph horiz-adv-x="1165" d="M2 1145h266l314 -535l317 535h270l-462 -750v-395h-248v397z" />
<glyph horiz-adv-x="1146" d="M66 0v186l714 742h-694v217h983v-187l-692 -741h696v-217h-1007z" />
<glyph horiz-adv-x="1298" d="M567 -20q-146 0 -263 74t-181 201t-64 282q0 153 63 280.5t173.5 201t245.5 73.5q118 0 212.5 -56t147.5 -153v176h275v-1059h-273v174q-110 -194 -336 -194zM903 393v254q-37 95 -112.5 153t-163.5 58q-122 0 -203.5 -99t-81.5 -229q0 -134 83.5 -225.5t211.5 -91.5 q88 0 155.5 47.5t110.5 132.5z" />
<glyph horiz-adv-x="1155" d="M1044 0h-264v150q-121 -170 -362 -170q-157 0 -262 96.5t-105 242.5q0 107 64 187t166.5 120t226.5 40q156 0 262 -48v62q0 105 -61.5 163t-178.5 58q-161 0 -335 -121l-84 174q210 138 446 138q234 0 360.5 -116.5t126.5 -326.5v-649zM725 270q45 36 45 78v123 q-103 41 -217 41q-98 0 -170 -45t-72 -125q0 -71 54 -116.5t131 -45.5q66 0 129.5 23t99.5 67z" />
<glyph horiz-adv-x="1935" d="M1866 272l55 -217q-164 -73 -305 -73q-122 0 -199.5 65t-77.5 199v616h-141v211h141q0 43 -1 71t-4 62t-8.5 55t-14 44t-21.5 36.5t-30.5 25.5t-42 17t-54.5 5q-91 0 -134.5 -53.5t-43.5 -139.5q0 -133 123 -379l-268 -82q-74 123 -224 123q-122 0 -199 -93.5t-77 -229.5 q0 -138 81.5 -230t201.5 -92q68 0 132 34.5t89 92.5l268 -82q-57 -127 -188.5 -202.5t-300.5 -75.5q-128 0 -236 46t-179.5 123.5t-111 178t-39.5 209.5q0 110 38 209.5t108.5 177t180.5 123t243 45.5q94 0 161 -20t136 -62q-56 110 -56 198q0 142 96.5 222.5t276.5 80.5 q77 0 137 -14t99 -33t66 -57t41 -68t21 -84t8 -87t1 -95h225v-211h-225v-524q0 -54 28.5 -79.5t75.5 -25.5q56 0 148 39z" />
<glyph horiz-adv-x="1296" d="M1174 0h-273v168q-114 -188 -334 -188q-146 0 -262.5 74t-181 201.5t-64.5 281.5q0 153 61.5 280t171.5 201t245 74q116 0 210 -56.5t152 -150.5v610h275v-1495zM901 393v256q-33 91 -113.5 150t-166.5 59q-120 0 -199.5 -98t-79.5 -230q0 -134 85 -225.5t212 -91.5 q81 0 158 51.5t104 128.5z" />
<glyph horiz-adv-x="1239" d="M1147 430q0 -131 -72.5 -234.5t-193 -158.5t-265.5 -55q-144 0 -264 58t-191 163.5t-71 236.5q0 113 67.5 202t161.5 136q-79 38 -131.5 113t-52.5 160q0 93 44 171.5t115 128t155 76.5t169 27q86 0 170.5 -26.5t155.5 -75t115.5 -127t44.5 -172.5q0 -85 -53.5 -162 t-132.5 -113q97 -49 163 -139.5t66 -208.5zM868 446q0 98 -75 158t-175 60q-102 0 -175.5 -61.5t-73.5 -156.5t76 -156t176 -61q99 0 173 62.5t74 154.5zM414 1042q0 -80 62.5 -126t141.5 -46t143 47.5t64 126.5q0 73 -60.5 119.5t-146.5 46.5q-85 0 -144.5 -47t-59.5 -121z " />
<glyph horiz-adv-x="1169" d="M608 940q207 0 343 -131.5t136 -335.5q0 -218 -151.5 -355.5t-384.5 -137.5q-158 0 -284.5 67t-192.5 186l157 164q59 -80 145 -127t177 -47q111 0 181.5 68t70.5 176q0 104 -67 171t-169 67q-66 0 -125 -30.5t-94 -84.5h-239l168 864h716v-250h-518l-57 -325 q54 61 188 61z" />
<glyph horiz-adv-x="1193" d="M938 0h-274v330h-613v245l699 879h188v-876h180v-248h-180v-330zM694 1040l-366 -462h366v462z" />
<glyph d="M123 -436v1495h274v-1495h-274zM123 1223v264h272v-264h-272z" />
<glyph horiz-adv-x="530" d="M127 0v1495h274v-1495h-274z" />
<glyph horiz-adv-x="1243" d="M82 958q0 214 152.5 360t377.5 146q249 0 393 -176t144 -489q0 -392 -150.5 -605.5t-412.5 -213.5q-137 0 -254 60t-197 171l158 172q50 -77 128.5 -120.5t168.5 -43.5q138 0 219 110t84 306q-42 -74 -122.5 -117t-182.5 -43q-215 0 -360.5 139.5t-145.5 343.5zM612 1235 q-109 0 -188.5 -82t-79.5 -192t79.5 -188.5t188.5 -78.5q110 0 189.5 77.5t79.5 186.5q0 112 -80 194.5t-189 82.5z" />
<glyph horiz-adv-x="999" d="M696 248h260v-248h-825v248h285v946q-38 -53 -146 -114.5t-186 -61.5v254q41 0 90 19.5t89.5 47t76 57t55 49t21.5 23.5h280v-1220z" />
<glyph horiz-adv-x="1294" d="M528 -20q-134 0 -242 75t-167.5 203t-59.5 281t65.5 279.5t181 200t255.5 73.5q120 0 215.5 -55t155.5 -150v186h239v-1509h-274v624q-60 -102 -154 -155t-215 -53zM631 213q163 0 266 176v254q-23 90 -103 152.5t-167 62.5q-123 0 -205 -97.5t-82 -230.5 q0 -135 81.5 -226t209.5 -91z" />
<glyph horiz-adv-x="1150" d="M129 0l600 1204h-659v250h1093l-723 -1454h-311z" />
<glyph horiz-adv-x="1243" d="M1161 485q0 -213 -152.5 -359t-377.5 -146q-249 0 -393 177t-144 490q0 392 150.5 604.5t412.5 212.5q137 0 254.5 -59.5t196.5 -169.5l-158 -172q-50 77 -128.5 120.5t-168.5 43.5q-137 0 -218.5 -110.5t-84.5 -305.5q42 74 122.5 117t182.5 43q215 0 360.5 -140 t145.5 -346zM631 211q109 0 188.5 81t79.5 193q0 110 -79 188.5t-189 78.5t-189.5 -78.5t-79.5 -188.5t80 -192t189 -82z" />
<glyph horiz-adv-x="749" d="M475 0h-280v920h-162v245h162v334h280v-334h250v-245h-250v-920z" />
<glyph horiz-adv-x="1202" d="M561 -18q-177 0 -301.5 74t-173.5 210l145 180q6 -30 28.5 -65t61 -69t101 -56.5t135.5 -22.5q112 0 189 53t77 142q0 102 -110 154.5t-310 52.5h-67v229h67q173 0 277 49t104 146q0 84 -65.5 128t-147.5 44q-114 0 -194 -49t-119 -117l-176 199q69 97 204.5 153 t282.5 56q218 0 363 -115t145 -285q0 -120 -72.5 -200.5t-201.5 -108.5q137 -24 221 -129t84 -244q0 -80 -31 -148t-83.5 -115.5t-122.5 -81t-148.5 -49t-161.5 -15.5z" />
<glyph horiz-adv-x="1253" d="M1147 0h-1057q0 192 36 316.5t116 210t223 155.5q22 11 65.5 31.5t67 31.5t61 31.5t58 36.5t46.5 40.5t39 48t22.5 55.5t9.5 67q0 93 -56.5 147t-156.5 54q-106 0 -196.5 -51t-156.5 -123l-172 180q32 37 79.5 75t117.5 77.5t165 64.5t197 25q233 0 361.5 -122 t128.5 -323q0 -73 -20 -134.5t-50 -104.5t-80.5 -84.5t-96 -68.5t-112.5 -61q-164 -81 -236.5 -153.5t-72.5 -173.5h670v-248z" />
<glyph horiz-adv-x="1239" d="M1118 0h-264v184q-57 -99 -161 -151.5t-226 -52.5q-354 0 -354 421v672h274v-612q0 -248 186 -248q79 0 152.5 52t118.5 143v665h274v-1073z" />
<glyph horiz-adv-x="1775" d="M1389 0h-297l-205 647l-205 -647h-297l-369 1073h283l246 -745l213 745h258l213 -745l246 745h282z" />
<glyph horiz-adv-x="1114" d="M844 1073h258l-522 -1509h-318l32 84q33 83 76 191t66 161l-426 1073h285l291 -835z" />
<glyph horiz-adv-x="1437" d="M719 -20q-101 1 -191 33t-158 87t-123 127t-89.5 154t-53 167.5t-18.5 168.5q0 105 28 210.5t83 200t130 167.5t176.5 116t215.5 43q121 0 226 -46t178 -122t126 -172.5t78 -198t25 -198.5q0 -106 -28 -212t-83 -200t-130 -166.5t-176.5 -115t-215.5 -43.5zM371 717 q0 -88 22 -172.5t63 -156t109.5 -115.5t153.5 -44q87 0 156.5 47t109.5 121t61 156.5t21 163.5q0 87 -23 172t-65 156t-110 115t-150 44q-70 0 -129.5 -31t-99 -81t-67 -115t-40 -130.5t-12.5 -129.5z" />
</font>
</defs>
</svg>
