<?xml version="1.0" encoding="utf-8"?>
<!-- Generator: Adobe Illustrator 16.0.0, SVG Export Plug-In . SVG Version: 6.00 Build 0)  -->
<!DOCTYPE svg PUBLIC "-//W3C//DTD SVG 1.1//EN" "http://www.w3.org/Graphics/SVG/1.1/DTD/svg11.dtd">
<svg version="1.1" id="Capa_1" xmlns="http://www.w3.org/2000/svg" xmlns:xlink="http://www.w3.org/1999/xlink" x="0px" y="0px"
	 width="150px" height="38.501px" viewBox="-20 -2.683 150 38.501" enable-background="new -20 -2.683 150 38.501"
	 xml:space="preserve">
<g>
	<g>
		<g>
			<defs>
				<rect id="SVGID_1_" x="-20" y="-2.683" width="150" height="38.501"/>
			</defs>
			<clipPath id="SVGID_2_">
				<use xlink:href="#SVGID_1_"  overflow="visible"/>
			</clipPath>
			<path clip-path="url(#SVGID_2_)" fill="#FF4309" d="M77.713,4.395h-2.321v22.383h2.321V4.395z M70.42,7.569
				c-0.878,0-1.599,0.722-1.599,1.624c0,0.876,0.721,1.573,1.599,1.573c0.876,0,1.599-0.696,1.599-1.573
				C72.019,8.291,71.296,7.569,70.42,7.569 M71.578,14.709h-2.319v12.068h2.319V14.709z M65.724,14.709h-2.32v2.012h-0.047
				c-0.952-1.445-2.396-2.372-4.178-2.372c-3.507,0-5.699,3.014-5.699,6.314c0,3.457,2.09,6.524,5.775,6.524
				c1.727,0,3.171-0.928,4.102-2.295h0.047v1.884h2.32V14.709z M59.615,25.126c-2.449,0-3.816-2.114-3.816-4.383
				c0-2.244,1.419-4.33,3.816-4.33c2.496,0,3.921,1.983,3.921,4.33C63.536,23.115,62.142,25.126,59.615,25.126 M51.39,9.861
				c-1.057-1.88-2.834-2.938-5.001-2.938c-2.939,0-5.725,1.88-5.725,5.027c0,2.707,2.012,3.969,4.229,4.924l1.342,0.568
				c1.675,0.697,3.351,1.599,3.351,3.688c0,2.036-1.495,3.791-3.583,3.791c-2.088,0-3.79-1.547-3.765-3.688l-2.449,0.516
				c0.412,3.121,2.863,5.439,6.008,5.439c3.481,0,6.214-2.526,6.214-6.059c0-3.246-2.062-4.77-4.821-5.854l-1.392-0.54
				c-1.211-0.463-2.708-1.263-2.708-2.785c0-1.703,1.703-2.758,3.249-2.758c1.469,0,2.398,0.62,3.12,1.833L51.39,9.861z
				 M35.611,26.777h2.992l-3.481-4.308l2.373-2.784l-1.547-1.599l-2.269,2.631l-4.047-4.899c1.624-1.186,3.532-2.656,3.532-4.847
				c0-2.552-2.115-4.046-4.485-4.046c-2.552,0-4.487,1.571-4.487,4.254c0,1.65,1.03,3.094,2.139,4.253L25.12,16.31
				c-1.857,1.344-3.403,2.682-3.403,5.156c0,3.353,2.706,5.724,5.955,5.724c2.295,0,4.356-1.312,5.828-3.042L35.611,26.777z
				 M28.263,14.142l-0.644-0.823c-0.568-0.722-1.161-1.445-1.161-2.426c0-1.236,1.005-2.062,2.167-2.062
				c1.29,0,2.268,0.748,2.268,2.116c0,1.418-1.339,2.217-2.32,2.989L28.263,14.142z M27.749,17.187l4.307,5.259
				c-1.211,1.211-2.656,2.577-4.462,2.577c-1.856,0-3.608-1.728-3.608-3.58c0-1.858,2.191-3.175,3.531-4.1L27.749,17.187z"/>
		</g>
	</g>
	<g>
		<g>
			<defs>
				<rect id="SVGID_3_" x="-20" y="-2.683" width="150" height="38.501"/>
			</defs>
			<clipPath id="SVGID_4_">
				<use xlink:href="#SVGID_3_"  overflow="visible"/>
			</clipPath>
			<path clip-path="url(#SVGID_4_)" fill="#FFFFFF" d="M12.536,24.716l-4.743,8.971h2.63l9.771-18.979h-2.604l-3.792,7.657
				l-4.072-7.657H7.019L12.536,24.716z M5.938,14.711h-2.32v2.011H3.563c-0.953-1.443-2.397-2.374-4.176-2.374
				c-3.506,0-5.698,3.018-5.698,6.319c0,3.454,2.088,6.521,5.775,6.521c1.728,0,3.171-0.928,4.098-2.295h0.054v1.881h2.32
				L5.938,14.711L5.938,14.711z M-0.173,25.126c-2.449,0-3.816-2.114-3.816-4.383c0-2.241,1.419-4.329,3.816-4.329
				c2.5,0,3.919,1.985,3.919,4.329C3.746,23.115,2.353,25.126-0.173,25.126 M-8.398,9.863c-1.057-1.885-2.836-2.942-5.003-2.942
				c-2.938,0-5.722,1.885-5.722,5.03c0,2.707,2.011,3.972,4.228,4.925l1.342,0.566c1.676,0.694,3.35,1.599,3.35,3.687
				c0,2.036-1.494,3.789-3.582,3.789c-2.089,0-3.791-1.546-3.763-3.686l-2.451,0.515c0.412,3.123,2.863,5.439,6.007,5.439
				c3.481,0,6.214-2.526,6.214-6.058c0-3.25-2.063-4.771-4.822-5.852l-1.392-0.543c-1.211-0.466-2.707-1.265-2.707-2.785
				c0-1.7,1.703-2.759,3.249-2.759c1.469,0,2.398,0.618,3.12,1.833L-8.398,9.863z"/>
		</g>
	</g>
	<g>
		<g>
			<defs>
				<rect id="SVGID_5_" x="-20" y="-2.683" width="150" height="38.501"/>
			</defs>
			<clipPath id="SVGID_6_">
				<use xlink:href="#SVGID_5_"  overflow="visible"/>
			</clipPath>
			<path clip-path="url(#SVGID_6_)" fill="#FF4309" d="M114.306-2.684c-8.667,0-15.692,7.025-15.692,15.693
				c0,8.598,6.917,15.579,15.493,15.686v6.679l10.722-10.723c3.182-2.872,5.178-7.023,5.178-11.644
				C129.998,4.341,122.969-2.684,114.306-2.684"/>
		</g>
	</g>
	<g>
		<g>
			<defs>
				<rect id="SVGID_7_" x="-20" y="-2.683" width="150" height="38.501"/>
			</defs>
			<clipPath id="SVGID_8_">
				<use xlink:href="#SVGID_7_"  overflow="visible"/>
			</clipPath>
			<path clip-path="url(#SVGID_8_)" fill="#FFFFFF" d="M101.147,28.175v-1.906l-1.567-0.021c-4.465-0.054-8.098-3.731-8.098-8.199
				c0-3.676,2.436-6.796,5.775-7.833c0.193-1.186,0.504-2.331,0.934-3.426c-5.566,0.735-9.88,5.5-9.88,11.257
				c0,5.657,4.211,10.406,9.66,11.244v6.526l7.819-7.816c-0.936-0.537-1.812-1.156-2.633-1.849L101.147,28.175z"/>
		</g>
	</g>
	<g>
		<g>
			<defs>
				<rect id="SVGID_9_" x="-20" y="-2.683" width="150" height="38.501"/>
			</defs>
			<clipPath id="SVGID_10_">
				<use xlink:href="#SVGID_9_"  overflow="visible"/>
			</clipPath>
			<path clip-path="url(#SVGID_10_)" fill="#FFFFFF" d="M109.21,8.959l3.529,3.531h-4.995C107.87,11.156,108.399,9.938,109.21,8.959
				 M113.61,6.631v4.989l-3.536-3.53C111.054,7.282,112.273,6.757,113.61,6.631 M118.362,8.091l-3.53,3.53V6.631
				C116.163,6.757,117.384,7.282,118.362,8.091 M120.693,12.49h-4.996l3.526-3.531C120.037,9.938,120.566,11.156,120.693,12.49
				 M119.227,17.245l-3.526-3.529h4.996C120.566,15.045,120.037,16.266,119.227,17.245 M114.832,19.574v-4.994l3.53,3.529
				C117.384,18.921,116.163,19.448,114.832,19.574 M110.074,18.109l3.533-3.529v4.994C112.273,19.448,111.054,18.921,110.074,18.109
				 M107.744,13.713h4.995l-3.529,3.529C108.399,16.266,107.87,15.045,107.744,13.713 M103.301,13.713h3.216
				c0.132,1.671,0.798,3.195,1.823,4.402l-2.276,2.273c-0.236,0.242-0.236,0.629,0,0.865c0.121,0.12,0.279,0.182,0.434,0.182
				c0.158,0,0.315-0.062,0.431-0.182l2.279-2.277c1.205,1.028,2.727,1.693,4.399,1.831v3.211c0,0.341,0.27,0.612,0.607,0.612
				c0.341,0,0.612-0.271,0.612-0.612v-3.211c1.673-0.138,3.195-0.803,4.397-1.831l2.275,2.277c0.121,0.12,0.278,0.182,0.434,0.182
				s0.314-0.062,0.434-0.182c0.237-0.236,0.237-0.623,0-0.865l-2.275-2.273c1.025-1.207,1.688-2.73,1.826-4.402h3.216
				c0.336,0,0.609-0.274,0.609-0.612c0-0.341-0.273-0.612-0.609-0.612h-3.216c-0.138-1.673-0.801-3.197-1.826-4.4l2.275-2.276
				c0.237-0.238,0.237-0.627,0-0.864c-0.241-0.241-0.628-0.241-0.87,0l-2.272,2.277c-1.205-1.028-2.728-1.695-4.397-1.83V2.183
				c0-0.341-0.273-0.61-0.615-0.61c-0.338,0-0.606,0.269-0.606,0.61v3.212c-1.674,0.135-3.197,0.801-4.402,1.83l-2.277-2.277
				c-0.238-0.241-0.625-0.241-0.867,0c-0.236,0.238-0.236,0.627,0,0.865l2.277,2.276c-1.026,1.203-1.694,2.727-1.823,4.4h-3.217
				c-0.338,0-0.614,0.27-0.614,0.611C102.686,13.439,102.963,13.713,103.301,13.713"/>
		</g>
	</g>
</g>
</svg>
